<?xml version="1.0" encoding="UTF-8" standalone="no"?>
<!-- Created with Inkscape (http://www.inkscape.org/) -->

<svg
   xmlns:osb="http://www.openswatchbook.org/uri/2009/osb"
   xmlns:dc="http://purl.org/dc/elements/1.1/"
   xmlns:cc="http://creativecommons.org/ns#"
   xmlns:rdf="http://www.w3.org/1999/02/22-rdf-syntax-ns#"
   xmlns:svg="http://www.w3.org/2000/svg"
   xmlns="http://www.w3.org/2000/svg"
   xmlns:xlink="http://www.w3.org/1999/xlink"
   xmlns:sodipodi="http://sodipodi.sourceforge.net/DTD/sodipodi-0.dtd"
   xmlns:inkscape="http://www.inkscape.org/namespaces/inkscape"
   width="49"
   height="36"
   id="svg2"
   version="1.1"
   inkscape:version="0.48.2 r9819"
   sodipodi:docname="o{s}d_simple.svg">
  <defs
     id="defs4">
    <linearGradient
       id="linearGradient4444"
       osb:paint="solid">
      <stop
         style="stop-color:#002fa7;stop-opacity:1;"
         offset="0"
         id="stop4446" />
    </linearGradient>
    <linearGradient
       inkscape:collect="always"
       xlink:href="#linearGradient4444"
       id="linearGradient4448"
       x1="1481.6096"
       y1="393.59521"
       x2="3401.6096"
       y2="393.59521"
       gradientUnits="userSpaceOnUse" />
    <linearGradient
       inkscape:collect="always"
       xlink:href="#linearGradient4444"
       id="linearGradient4452"
       gradientUnits="userSpaceOnUse"
       x1="1481.6096"
       y1="393.59521"
       x2="3401.6096"
       y2="393.59521"
       gradientTransform="translate(-1761.6116,2283.4524)" />
  </defs>
  <sodipodi:namedview
     id="base"
     pagecolor="#ffffff"
     bordercolor="#666666"
     borderopacity="1.0"
     inkscape:pageopacity="0.0"
     inkscape:pageshadow="2"
     inkscape:zoom="0.64"
     inkscape:cx="677.72028"
     inkscape:cy="379.22928"
     inkscape:document-units="px"
     inkscape:current-layer="layer11"
     showgrid="false"
     inkscape:window-width="1440"
     inkscape:window-height="852"
     inkscape:window-x="0"
     inkscape:window-y="0"
     inkscape:window-maximized="1" />
  <metadata
     id="metadata7">
    <rdf:RDF>
      <cc:Work
         rdf:about="">
        <dc:format>image/svg+xml</dc:format>
        <dc:type
           rdf:resource="http://purl.org/dc/dcmitype/StillImage" />
        <dc:title />
      </cc:Work>
    </rdf:RDF>
  </metadata>
  <g
     inkscape:groupmode="layer"
     id="layer10"
     inkscape:label="didascalie"
     style="display:inline"
     transform="translate(0,-1016.3622)" />
  <g
     inkscape:groupmode="layer"
     id="layer2"
     inkscape:label="margine"
     style="display:inline"
     transform="translate(0,-1016.3622)" />
  <g
     inkscape:groupmode="layer"
     id="layer3"
     inkscape:label="sfondo"
     style="display:inline"
     transform="translate(0,-1016.3622)" />
  <g
     inkscape:groupmode="layer"
     id="layer4"
     inkscape:label="open"
     sodipodi:insensitive="true"
     style="display:none"
     transform="translate(0,-1016.3622)" />
  <g
     inkscape:groupmode="layer"
     id="layer5"
     inkscape:label="sensors"
     sodipodi:insensitive="true"
     style="display:none"
     transform="translate(0,-1016.3622)" />
  <g
     inkscape:groupmode="layer"
     id="layer6"
     inkscape:label="data"
     sodipodi:insensitive="true"
     style="display:none"
     transform="translate(0,-1016.3622)" />
  <g
     inkscape:groupmode="layer"
     id="layer7"
     inkscape:label="graffe"
     sodipodi:insensitive="true"
     style="display:none"
     transform="translate(0,-1016.3622)">
    <path
       inkscape:connector-curvature="0"
       id="path3004"
       style="font-size:32px;font-style:normal;font-variant:normal;font-weight:normal;font-stretch:normal;text-align:start;line-height:125%;letter-spacing:0px;word-spacing:0px;writing-mode:lr-tb;text-anchor:start;fill:#000000;fill-opacity:1;stroke:none;font-family:Liberation Serif;-inkscape-font-specification:Liberation Serif"
       d="m 209.18304,686.28632 c -1.3125,-1e-5 -2.32292,-0.40105 -3.03125,-1.20313 -0.69792,-0.80208 -1.04688,-1.93229 -1.04687,-3.39062 l 0,-4.60938 c -1e-5,-1.21874 -0.27605,-2.1302 -0.82813,-2.73437 -0.54167,-0.61458 -1.38542,-0.9427 -2.53125,-0.98438 l 0,-0.70312 c 2.23958,-0.0417 3.35937,-1.27083 3.35938,-3.6875 l 0,-4.59375 c -1e-5,-1.46873 0.33853,-2.59894 1.01562,-3.39063 0.67708,-0.79164 1.69791,-1.18748 3.0625,-1.1875 l 2.10938,0 0,0.73438 -0.96875,0 c -0.94793,2e-5 -1.62501,0.28648 -2.03125,0.85937 -0.39584,0.56252 -0.59376,1.39585 -0.59375,2.5 l 0,5.15625 c -1e-5,0.9896 -0.27084,1.84376 -0.8125,2.5625 -0.54167,0.70834 -1.27084,1.16147 -2.1875,1.35938 l 0,0.0469 c 0.92708,0.21876 1.65624,0.6823 2.1875,1.39063 0.54166,0.69792 0.81249,1.55209 0.8125,2.5625 l 0,5.21875 c -1e-5,1.10416 0.19791,1.93749 0.59375,2.5 0.40624,0.57291 1.08332,0.85937 2.03125,0.85937 l 0.96875,0 0,0.73438 -2.10938,0" />
    <path
       inkscape:connector-curvature="0"
       id="path3006"
       style="font-size:32px;font-style:normal;font-variant:normal;font-weight:normal;font-stretch:normal;text-align:start;line-height:125%;letter-spacing:0px;word-spacing:0px;writing-mode:lr-tb;text-anchor:start;fill:#000000;fill-opacity:1;stroke:none;font-family:Liberation Serif;-inkscape-font-specification:Liberation Serif"
       d="m 217.12054,686.28632 0,-0.73438 0.96875,0 c 0.94792,0 1.61979,-0.28646 2.01563,-0.85937 0.40624,-0.56251 0.60937,-1.39584 0.60937,-2.5 l 0,-5.21875 c 0,-1.01041 0.26562,-1.86458 0.79688,-2.5625 0.53124,-0.70833 1.26562,-1.17187 2.20312,-1.39063 l 0,-0.0469 c -0.91667,-0.19791 -1.64584,-0.65624 -2.1875,-1.375 -0.54167,-0.71874 -0.8125,-1.5677 -0.8125,-2.54688 l 0,-5.15625 c 0,-1.10415 -0.20313,-1.93748 -0.60937,-2.5 -0.39584,-0.57289 -1.06771,-0.85935 -2.01563,-0.85937 l -0.96875,0 0,-0.73438 2.125,0 c 1.35416,2e-5 2.36979,0.39586 3.04688,1.1875 0.67707,0.79169 1.01562,1.9219 1.01562,3.39063 l 0,4.59375 c 0,2.41667 1.11979,3.64584 3.35938,3.6875 l 0,0.70312 c -1.12501,0.0417 -1.96876,0.36459 -2.53125,0.96875 -0.55209,0.60417 -0.82813,1.52084 -0.82813,2.75 l 0,4.60938 c 0,1.44791 -0.35417,2.57291 -1.0625,3.375 -0.69792,0.81249 -1.69792,1.21874 -3,1.21875 l -2.125,0" />
  </g>
  <g
     inkscape:label="scritta"
     inkscape:groupmode="layer"
     id="layer1"
     style="display:inline"
     transform="translate(0,-1016.3622)" />
  <g
     inkscape:groupmode="layer"
     id="layer9"
     inkscape:label="rettangoli"
     style="display:inline"
     transform="translate(0,-1016.3622)" />
  <g
     inkscape:groupmode="layer"
     id="layer8"
     inkscape:label="crocette"
     style="display:inline"
     transform="translate(0,-1016.3622)" />
  <g
     inkscape:groupmode="layer"
     id="layer11"
     inkscape:label="logo"
     style="display:inline"
     transform="translate(0,-1016.3622)">
    <path
       inkscape:connector-curvature="0"
       id="path4292"
       style="font-size:28px;font-style:normal;font-variant:normal;font-weight:bold;font-stretch:normal;text-align:start;line-height:125%;letter-spacing:0px;word-spacing:0px;writing-mode:lr-tb;text-anchor:start;fill:#1a1a1a;fill-opacity:1;stroke:none;display:inline;font-family:Open Sans;-inkscape-font-specification:Open Sans Bold"
       d="m 3.3026723,1034.3082 c -7.9e-6,1.1754 0.1911196,2.0638 0.5734107,2.6655 0.3893632,0.6018 1.0194537,0.9027 1.8902475,0.9027 0.8637102,0 1.4831929,-0.2974 1.8584244,-0.892 0.3822982,-0.6019 0.573454,-1.4939 0.5734578,-2.6762 -3.8e-6,-1.1753 -0.1911596,-2.0566 -0.5734578,-2.6442 -0.3823275,-0.5876 -1.0088662,-0.8814 -1.8796364,-0.8814 -0.8637297,0 -1.4867243,0.2938 -1.8690355,0.8814 -0.3822911,0.5805 -0.5734186,1.4619 -0.5734107,2.6442 m 8.2087737,0 c -1.6e-5,1.9327 -0.509727,3.4443 -1.529185,4.5345 -1.0195059,1.0903 -2.4388945,1.6354 -4.2583864,1.6354 -1.1397852,0 -2.1451269,-0.2477 -3.0159048,-0.7433 -0.8707901,-0.5027 -1.5397805,-1.2212 -2.00711541,-2.1558 C 0.23362346,1036.6446 0,1035.5542 0,1034.3082 c 0,-1.9397 0.50615484,-3.4476 1.5185605,-4.5239 1.0124097,-1.076 2.4354304,-1.6141 4.268998,-1.6141 1.1398576,0 2.1450992,0.2478 3.0159854,0.7434 0.8707699,0.4956 1.5397721,1.207 2.0070431,2.1345 0.467219,0.9274 0.700843,2.0141 0.700859,3.2601"
       inkscape:export-filename="/Users/lucacorsato/Documents/o{s}d/o{s}d_semplice.png"
       inkscape:export-xdpi="300"
       inkscape:export-ydpi="300" />
    <path
       d="m 28.485214,1037.0905 c -8e-6,1.0832 -0.403479,1.9187 -1.210565,2.5062 -0.80709,0.5877 -1.939803,0.8814 -3.3982,0.8814 -1.543413,0 -2.746894,-0.2442 -3.610608,-0.7327 l 0,-1.6354 c 0.559247,0.2831 1.157489,0.5062 1.794636,0.6691 0.644247,0.1627 1.263721,0.2441 1.858432,0.2441 0.92033,0 1.628337,-0.1451 2.123878,-0.4353 0.495548,-0.2974 0.743299,-0.7469 0.743307,-1.3487 -8e-6,-0.453 -0.198227,-0.839 -0.594615,-1.1576 -0.389383,-0.3256 -1.154016,-0.7078 -2.293815,-1.1468 -1.083168,-0.4035 -1.854863,-0.7541 -2.31503,-1.0514 -0.453079,-0.3043 -0.79293,-0.6477 -1.019478,-1.0301 -0.219471,-0.3823 -0.329231,-0.8389 -0.329223,-1.3698 -8e-6,-0.9487 0.385839,-1.6956 1.157558,-2.2407 0.771698,-0.5523 1.830087,-0.8283 3.175189,-0.8283 1.253089,0 2.477894,0.2548 3.674299,0.7646 l -0.626559,1.4336 c -1.168089,-0.4814 -2.22651,-0.7221 -3.175185,-0.7222 -0.835429,10e-5 -1.465504,0.1311 -1.890279,0.393 -0.424779,0.2619 -0.637158,0.623 -0.637158,1.0832 0,0.3115 0.07793,0.5769 0.233619,0.7964 0.162843,0.2195 0.421243,0.4283 0.775234,0.6266 0.354008,0.1982 1.033646,0.4848 2.038968,0.8601 1.380488,0.5027 2.311482,1.0089 2.792893,1.5186 0.488462,0.5097 0.732694,1.1504 0.732702,1.9221"
       style="font-size:28px;font-style:normal;font-variant:normal;font-weight:normal;font-stretch:normal;text-align:start;line-height:125%;letter-spacing:0px;word-spacing:0px;writing-mode:lr-tb;text-anchor:start;fill:#4d4d4d;fill-opacity:1;stroke:none;display:inline;font-family:Open Sans;-inkscape-font-specification:Open Sans"
       id="path4294"
       inkscape:connector-curvature="0"
       inkscape:export-filename="/Users/lucacorsato/Documents/o{s}d/o{s}d_semplice.png"
       inkscape:export-xdpi="300"
       inkscape:export-ydpi="300" />
    <path
       d="m 41.76472,1040.4781 c -1.394717,0 -2.492034,-0.5416 -3.292052,-1.6248 -0.792935,-1.0831 -1.189354,-2.584 -1.189354,-4.5026 0,-1.9469 0.403479,-3.4619 1.210589,-4.5451 0.81415,-1.0903 1.932712,-1.6354 3.355753,-1.6354 1.493776,0 2.633642,0.5805 3.419431,1.7415 l 0.106229,0 c -0.16284,-0.8849 -0.244232,-1.6743 -0.244216,-2.368 l 0,-3.8018 3.249516,0 0,16.5238 -2.484966,0 -0.626563,-1.5397 -0.137987,0 c -0.736334,1.168 -1.85842,1.7521 -3.36638,1.7521 m 1.136257,-2.5805 c 0.828307,0 1.433624,-0.2407 1.81594,-0.722 0.389327,-0.4815 0.601711,-1.2993 0.637178,-2.4533 l 0,-0.3504 c -7e-6,-1.2742 -0.198231,-2.1875 -0.594722,-2.7398 -0.389379,-0.5522 -1.026542,-0.8284 -1.911464,-0.8284 -0.722182,0 -1.284969,0.3081 -1.688504,0.924 -0.396467,0.6089 -0.594699,1.4973 -0.594695,2.6654 -7e-6,1.1682 0.20178,2.046 0.605303,2.6337 0.403543,0.5805 0.980489,0.8708 1.730956,0.8708"
       style="font-size:28px;font-style:normal;font-variant:normal;font-weight:bold;font-stretch:normal;text-align:start;line-height:125%;letter-spacing:0px;word-spacing:0px;writing-mode:lr-tb;text-anchor:start;fill:#808080;fill-opacity:1;stroke:none;display:inline;font-family:Open Sans;-inkscape-font-specification:Open Sans Bold"
       id="path4296"
       inkscape:connector-curvature="0"
       inkscape:export-filename="/Users/lucacorsato/Documents/o{s}d/o{s}d_semplice.png"
       inkscape:export-xdpi="300"
       inkscape:export-ydpi="300" />
    <path
       inkscape:connector-curvature="0"
       id="path4298"
       style="font-size:56px;font-style:normal;font-variant:normal;font-weight:normal;font-stretch:normal;text-align:start;line-height:125%;letter-spacing:0px;word-spacing:0px;writing-mode:lr-tb;text-anchor:start;fill:#ea5480;fill-opacity:1;stroke:none;display:inline;font-family:Liberation Serif;-inkscape-font-specification:Liberation Serif"
       d="m 21.527702,1052.3622 c -1.784043,-10e-5 -3.157525,-0.5452 -4.120298,-1.6355 -0.948722,-1.0903 -1.423045,-2.6265 -1.423037,-4.6088 l 0,-6.2654 c -8e-6,-1.6566 -0.375231,-2.8956 -1.125613,-3.7169 -0.736334,-0.8353 -1.8832,-1.2814 -3.440768,-1.338 l 0,-0.9557 c 3.044289,-0.057 4.566373,-1.7275 4.566381,-5.0124 l 0,-6.2443 c -8e-6,-1.9964 0.460163,-3.5326 1.380501,-4.6088 0.920398,-1.076 2.307943,-1.6141 4.162834,-1.6141 l 2.867294,0 0,0.9982 -1.316877,0 c -1.288513,0 -2.208827,0.3894 -2.761034,1.1681 -0.538026,0.7647 -0.807046,1.8974 -0.807038,3.3983 l 0,7.0087 c -8e-6,1.3452 -0.368175,2.5063 -1.104465,3.4833 -0.736251,0.9628 -1.727428,1.5786 -2.973454,1.8478 l 0,0.064 c 1.260186,0.2973 2.251355,0.9274 2.973454,1.8903 0.73629,0.9486 1.104457,2.1096 1.104465,3.4832 l 0,7.0937 c -8e-6,1.5009 0.269012,2.6336 0.807038,3.3983 0.552207,0.7787 1.472521,1.1681 2.761034,1.1681 l 1.316877,0 0,0.9982 -2.867294,0"
       inkscape:export-filename="/Users/lucacorsato/Documents/o{s}d/o{s}d_semplice.png"
       inkscape:export-xdpi="300"
       inkscape:export-ydpi="300" />
    <path
       inkscape:connector-curvature="0"
       id="path4300"
       style="font-size:56px;font-style:normal;font-variant:normal;font-weight:normal;font-stretch:normal;text-align:start;line-height:125%;letter-spacing:0px;word-spacing:0px;writing-mode:lr-tb;text-anchor:start;fill:#002fa7;fill-opacity:1;stroke:none;display:inline;font-family:Liberation Serif;-inkscape-font-specification:Liberation Serif"
       d="m 24.322768,1052.3622 0,-0.9983 1.316781,0 c 1.288485,0 2.201727,-0.3894 2.739821,-1.1681 0.552167,-0.7647 0.828331,-1.8974 0.828339,-3.3983 l 0,-7.0937 c -8e-6,-1.3735 0.360983,-2.5345 1.083166,-3.4832 0.722085,-0.9629 1.720315,-1.5929 2.994664,-1.8902 l 0,-0.064 c -1.24602,-0.269 -2.237211,-0.8921 -2.973433,-1.869 -0.73633,-0.977 -1.104405,-2.131 -1.104397,-3.4621 l 0,-7.0087 c -8e-6,-1.5009 -0.276172,-2.6336 -0.828339,-3.3982 -0.538094,-0.7788 -1.451336,-1.1682 -2.739821,-1.1682 l -1.316781,0 0,-0.9982 2.888441,0 c 1.840704,1e-4 3.221289,0.5382 4.141615,1.6142 0.920298,1.0761 1.380452,2.6124 1.380469,4.6088 l 0,6.2442 c -1.7e-5,3.2849 1.522188,4.9557 4.566389,5.0124 l 0,0.9557 c -1.529193,0.057 -2.676129,0.4956 -3.440656,1.3168 -0.750494,0.8213 -1.12575,2.0673 -1.125733,3.7381 l 0,6.2655 c -1.7e-5,1.9681 -0.481399,3.4974 -1.444173,4.5876 -0.948709,1.1043 -2.307959,1.6566 -4.077911,1.6566 l -2.888441,0"
       inkscape:export-filename="/Users/lucacorsato/Documents/o{s}d/o{s}d_semplice.png"
       inkscape:export-xdpi="300"
       inkscape:export-ydpi="300" />
  </g>
</svg>
