<?xml version="1.0" encoding="UTF-8" standalone="no"?>
<!-- Created with Inkscape (http://www.inkscape.org/) -->

<svg
   xmlns:osb="http://www.openswatchbook.org/uri/2009/osb"
   xmlns:dc="http://purl.org/dc/elements/1.1/"
   xmlns:cc="http://creativecommons.org/ns#"
   xmlns:rdf="http://www.w3.org/1999/02/22-rdf-syntax-ns#"
   xmlns:svg="http://www.w3.org/2000/svg"
   xmlns="http://www.w3.org/2000/svg"
   xmlns:xlink="http://www.w3.org/1999/xlink"
   xmlns:sodipodi="http://sodipodi.sourceforge.net/DTD/sodipodi-0.dtd"
   xmlns:inkscape="http://www.inkscape.org/namespaces/inkscape"
   width="702"
   height="185"
   id="svg2"
   version="1.1"
   inkscape:version="0.48.2 r9819"
   sodipodi:docname="o{s}d_esteso.svg">
  <defs
     id="defs4">
    <linearGradient
       inkscape:collect="always"
       id="linearGradient3978">
      <stop
         style="stop-color:#f9f9f9;stop-opacity:1;"
         offset="0"
         id="stop3980" />
      <stop
         style="stop-color:#f9f9f9;stop-opacity:0;"
         offset="1"
         id="stop3982" />
    </linearGradient>
    <linearGradient
       inkscape:collect="always"
       id="linearGradient3947">
      <stop
         style="stop-color:#f9f9f9;stop-opacity:1;"
         offset="0"
         id="stop3949" />
      <stop
         style="stop-color:#f9f9f9;stop-opacity:0;"
         offset="1"
         id="stop3951" />
    </linearGradient>
    <linearGradient
       id="linearGradient3788">
      <stop
         style="stop-color:#ea5480;stop-opacity:1;"
         offset="0"
         id="stop3791" />
      <stop
         style="stop-color:#e6e6e6;stop-opacity:0;"
         offset="1"
         id="stop3793" />
    </linearGradient>
    <linearGradient
       id="linearGradient4444"
       osb:paint="solid">
      <stop
         style="stop-color:#002fa7;stop-opacity:1;"
         offset="0"
         id="stop4446" />
    </linearGradient>
    <linearGradient
       inkscape:collect="always"
       xlink:href="#linearGradient4444"
       id="linearGradient4448"
       x1="1481.6096"
       y1="393.59521"
       x2="3401.6096"
       y2="393.59521"
       gradientUnits="userSpaceOnUse" />
    <linearGradient
       inkscape:collect="always"
       xlink:href="#linearGradient4444"
       id="linearGradient4452"
       gradientUnits="userSpaceOnUse"
       x1="1481.6096"
       y1="393.59521"
       x2="3401.6096"
       y2="393.59521"
       gradientTransform="translate(-1761.6116,2283.4524)" />
    <radialGradient
       inkscape:collect="always"
       xlink:href="#linearGradient3947"
       id="radialGradient3953"
       cx="357.1875"
       cy="843.59998"
       fx="357.1875"
       fy="843.59998"
       r="334.07394"
       gradientTransform="matrix(1.4966746e-6,0,0,0.14966746,66.059661,686.60554)"
       gradientUnits="userSpaceOnUse" />
    <radialGradient
       inkscape:collect="always"
       xlink:href="#linearGradient3978"
       id="radialGradient3984"
       cx="307.88449"
       cy="1002.3622"
       fx="307.88449"
       fy="1002.3622"
       r="307.88449"
       gradientTransform="matrix(1,0,0,0.16239857,42.946138,796.63388)"
       gradientUnits="userSpaceOnUse" />
    <filter
       inkscape:collect="always"
       id="filter4054"
       x="-0.027897566"
       width="1.0557951"
       y="-0.17178456"
       height="1.3435691">
      <feGaussianBlur
         inkscape:collect="always"
         stdDeviation="7.1576898"
         id="feGaussianBlur4056" />
    </filter>
  </defs>
  <sodipodi:namedview
     id="base"
     pagecolor="#ffffff"
     bordercolor="#666666"
     borderopacity="1.0"
     inkscape:pageopacity="0.0"
     inkscape:pageshadow="2"
     inkscape:zoom="0.90509669"
     inkscape:cx="225.75503"
     inkscape:cy="195.78787"
     inkscape:document-units="px"
     inkscape:current-layer="layer3"
     showgrid="false"
     inkscape:window-width="1440"
     inkscape:window-height="852"
     inkscape:window-x="0"
     inkscape:window-y="0"
     inkscape:window-maximized="1" />
  <metadata
     id="metadata7">
    <rdf:RDF>
      <cc:Work
         rdf:about="">
        <dc:format>image/svg+xml</dc:format>
        <dc:type
           rdf:resource="http://purl.org/dc/dcmitype/StillImage" />
        <dc:title></dc:title>
      </cc:Work>
    </rdf:RDF>
  </metadata>
  <g
     inkscape:groupmode="layer"
     id="layer3"
     inkscape:label="sfondo"
     style="display:inline"
     transform="translate(0,-867.3622)">
    <rect
       style="fill:url(#radialGradient3953);fill-opacity:1;stroke:none"
       id="rect3169"
       width="0.001"
       height="100"
       x="66.059692"
       y="762.86505"
       rx="1.1441341e-05"
       ry="6.1439996" />
    <rect
       style="fill:url(#radialGradient3984);fill-opacity:1;stroke:none;display:inline;filter:url(#filter4054)"
       id="rect3967"
       width="615.76898"
       height="100"
       x="42.946136"
       y="909.41608"
       rx="0"
       ry="0" />
  </g>
  <g
     inkscape:label="scritta"
     inkscape:groupmode="layer"
     id="layer1"
     style="display:inline"
     transform="translate(0,-867.3622)">
    <g
       id="g3015"
       transform="matrix(4.1665799,0,0,4.1665799,42.946138,-3375.3345)">
      <path
         inkscape:export-ydpi="300"
         inkscape:export-xdpi="300"
         inkscape:export-filename="/Users/lucacorsato/Documents/o{s}d_scritta.png"
         d="m 2.201771,1040.3683 c -3e-6,0.7834 0.127432,1.3758 0.3823,1.7769 0.259583,0.4012 0.679644,0.6018 1.260177,0.6018 0.575806,0 0.988785,-0.1982 1.238938,-0.5947 0.25486,-0.4012 0.382295,-0.9958 0.3823,-1.784 -5e-6,-0.7835 -0.12744,-1.3711 -0.3823,-1.7629 -0.254873,-0.3917 -0.672572,-0.5876 -1.253098,-0.5876 -0.575813,0 -0.991151,0.1959 -1.246017,0.5876 -0.254868,0.387 -0.382303,0.9747 -0.3823,1.7629 m 5.472564,0 c -7e-6,1.2885 -0.33983,2.2961 -1.019469,3.023 -0.679653,0.7268 -1.625964,1.0902 -2.838936,1.0902 -0.759884,0 -1.43009,-0.1652 -2.010619,-0.4955 -0.580532,-0.3351 -1.026551,-0.8142 -1.338054,-1.4372 C 0.155752,1041.9258 0,1041.1989 0,1040.3683 c 0,-1.2933 0.337464,-2.2986 1.01239,-3.016 0.674924,-0.7174 1.623596,-1.0761 2.846018,-1.0761 0.759875,0 1.43008,0.1652 2.010617,0.4956 0.580524,0.3304 1.026542,0.8047 1.338053,1.423 0.311498,0.6183 0.46725,1.3428 0.467257,2.1735"
         style="font-size:56px;font-style:normal;font-variant:normal;font-weight:bold;font-stretch:normal;text-align:start;line-height:125%;letter-spacing:0px;word-spacing:0px;writing-mode:lr-tb;text-anchor:start;fill:#000000;fill-opacity:1;stroke:none;font-family:Open Sans;-inkscape-font-specification:Open Sans Bold"
         id="path3925"
         inkscape:connector-curvature="0" />
      <path
         inkscape:export-ydpi="300"
         inkscape:export-xdpi="300"
         inkscape:export-filename="/Users/lucacorsato/Documents/o{s}d_scritta.png"
         d="m 13.80531,1044.4815 c -0.9298,0 -1.659002,-0.3374 -2.187611,-1.0124 l -0.113275,0 c 0.07551,0.6608 0.113272,1.0431 0.113275,1.1469 l 0,3.2071 -2.159294,0 0,-11.3982 1.755752,0 0.304427,1.0265 0.09912,0 c 0.505009,-0.7834 1.253091,-1.1752 2.244248,-1.1752 0.934506,0 1.66607,0.3611 2.194692,1.0832 0.528604,0.7221 0.792912,1.7251 0.79292,3.0089 -8e-6,0.8448 -0.125083,1.5787 -0.375221,2.2017 -0.245437,0.623 -0.597058,1.0974 -1.05487,1.423 -0.457823,0.3257 -0.995877,0.4885 -1.614158,0.4885 m -0.637169,-6.4778 c -0.533337,0 -0.922719,0.1651 -1.168142,0.4955 -0.245431,0.3257 -0.372866,0.8661 -0.3823,1.6213 l 0,0.2336 c -3e-6,0.8496 0.12507,1.4584 0.375221,1.8265 0.254864,0.3682 0.656041,0.5523 1.203538,0.5523 0.967547,0 1.451323,-0.7977 1.451328,-2.393 -5e-6,-0.7787 -0.120358,-1.3616 -0.361062,-1.7486 -0.235994,-0.3918 -0.608854,-0.5876 -1.118583,-0.5876"
         style="font-size:56px;font-style:normal;font-variant:normal;font-weight:bold;font-stretch:normal;text-align:start;line-height:125%;letter-spacing:0px;word-spacing:0px;writing-mode:lr-tb;text-anchor:start;fill:#000000;fill-opacity:1;stroke:none;font-family:Open Sans;-inkscape-font-specification:Open Sans Bold"
         id="path3927"
         inkscape:connector-curvature="0" />
      <path
         inkscape:export-ydpi="300"
         inkscape:export-xdpi="300"
         inkscape:export-filename="/Users/lucacorsato/Documents/o{s}d_scritta.png"
         d="m 21.911502,1037.8125 c -0.45782,0 -0.81652,0.1463 -1.0761,0.4389 -0.25959,0.288 -0.40826,0.6986 -0.44602,1.2319 l 3.03009,0 c -0.009,-0.5333 -0.14868,-0.9439 -0.4177,-1.2319 -0.26903,-0.2926 -0.63245,-0.4389 -1.09027,-0.4389 m 0.30443,6.669 c -1.27434,0 -2.27021,-0.3516 -2.987612,-1.0548 -0.717406,-0.7033 -1.076106,-1.6992 -1.076106,-2.9876 0,-1.3263 0.330383,-2.3505 0.991149,-3.0726 0.665489,-0.7269 1.583479,-1.0903 2.753979,-1.0903 1.11858,0 1.98938,0.3186 2.61239,0.9558 0.62301,0.6371 0.93451,1.5174 0.93452,2.6407 l 0,1.0478 -5.10443,0 c 0.0236,0.6135 0.20531,1.0926 0.54514,1.4371 0.33981,0.3446 0.81651,0.5168 1.43008,0.5168 0.47669,0 0.92743,-0.05 1.35222,-0.1486 0.42477,-0.099 0.86843,-0.2572 1.33097,-0.4744 l 0,1.6708 c -0.37759,0.1888 -0.78113,0.3281 -1.21062,0.4177 -0.4295,0.094 -0.9534,0.1416 -1.57168,0.1416"
         style="font-size:56px;font-style:normal;font-variant:normal;font-weight:bold;font-stretch:normal;text-align:start;line-height:125%;letter-spacing:0px;word-spacing:0px;writing-mode:lr-tb;text-anchor:start;fill:#000000;fill-opacity:1;stroke:none;font-family:Open Sans;-inkscape-font-specification:Open Sans Bold"
         id="path3929"
         inkscape:connector-curvature="0" />
      <path
         inkscape:export-ydpi="300"
         inkscape:export-xdpi="300"
         inkscape:export-filename="/Users/lucacorsato/Documents/o{s}d_scritta.png"
         d="m 34.520352,1044.3399 -2.15929,0 0,-4.623 c -10e-6,-0.5711 -0.10148,-0.9982 -0.30442,-1.2814 -0.20296,-0.2879 -0.52626,-0.4318 -0.96992,-0.4318 -0.60413,0 -1.04071,0.2029 -1.30973,0.6088 -0.26903,0.4012 -0.40354,1.069 -0.40354,2.0035 l 0,3.7239 -2.15929,0 0,-7.915 1.64956,0 0.29026,1.0124 0.12036,0 c 0.2407,-0.3823 0.57108,-0.6702 0.99115,-0.8637 0.42477,-0.1983 0.90619,-0.2974 1.44424,-0.2974 0.92035,0 1.61888,0.2502 2.09558,0.7505 0.47669,0.4955 0.71504,1.2129 0.71504,2.1522 l 0,5.161"
         style="font-size:56px;font-style:normal;font-variant:normal;font-weight:bold;font-stretch:normal;text-align:start;line-height:125%;letter-spacing:0px;word-spacing:0px;writing-mode:lr-tb;text-anchor:start;fill:#000000;fill-opacity:1;stroke:none;font-family:Open Sans;-inkscape-font-specification:Open Sans Bold"
         id="path3931"
         inkscape:connector-curvature="0" />
      <path
         inkscape:export-ydpi="300"
         inkscape:export-xdpi="300"
         inkscape:export-filename="/Users/lucacorsato/Documents/o{s}d_scritta.png"
         d="m 44.998232,1052.3622 c -1.18939,0 -2.10502,-0.3634 -2.7469,-1.0903 -0.63246,-0.7268 -0.94868,-1.751 -0.94868,-3.0725 l 0,-4.177 c 0,-1.1045 -0.25015,-1.9304 -0.75044,-2.4779 -0.49086,-0.5569 -1.25546,-0.8543 -2.2938,-0.892 l 0,-0.6372 c 2.02949,-0.038 3.04424,-1.1516 3.04424,-3.3416 l 0,-4.1628 c 0,-1.331 0.30678,-2.3552 0.92036,-3.0726 0.61356,-0.7174 1.53863,-1.0761 2.77522,-1.0761 l 1.9115,0 0,0.6655 -0.87787,0 c -0.85901,0 -1.47258,0.2596 -1.84071,0.7787 -0.35871,0.5098 -0.53806,1.2649 -0.53805,2.2655 l 0,4.6726 c -10e-6,0.8968 -0.24544,1.6708 -0.73629,2.3221 -0.49086,0.6419 -1.15162,1.0525 -1.9823,1.2319 l 0,0.042 c 0.84012,0.1982 1.50088,0.6183 1.9823,1.2601 0.49085,0.6325 0.73628,1.4065 0.73629,2.3222 l 0,4.7292 c -10e-6,1.0006 0.17934,1.7557 0.53805,2.2655 0.36813,0.5191 0.9817,0.7787 1.84071,0.7787 l 0.87787,0 0,0.6655 -1.9115,0"
         style="font-size:112px;font-style:normal;font-variant:normal;font-weight:normal;font-stretch:normal;text-align:start;line-height:125%;letter-spacing:0px;word-spacing:0px;writing-mode:lr-tb;text-anchor:start;fill:#ea5480;fill-opacity:1;stroke:none;font-family:Liberation Serif;-inkscape-font-specification:Liberation Serif"
         id="path3933"
         inkscape:connector-curvature="0" />
      <path
         inkscape:export-ydpi="300"
         inkscape:export-xdpi="300"
         inkscape:export-filename="/Users/lucacorsato/Documents/o{s}d_scritta.png"
         d="m 55.808852,1042.2231 c -1e-5,0.7221 -0.26903,1.2791 -0.80708,1.6708 -0.53806,0.3918 -1.29322,0.5876 -2.26549,0.5876 -1.02891,0 -1.83127,-0.1628 -2.40708,-0.4885 l 0,-1.0902 c 0.37286,0.1888 0.77168,0.3374 1.19646,0.446 0.4295,0.1085 0.84248,0.1628 1.23894,0.1628 0.61357,0 1.08554,-0.097 1.41593,-0.2902 0.33038,-0.1983 0.49557,-0.498 0.49558,-0.8992 -1e-5,-0.302 -0.13216,-0.5593 -0.39646,-0.7716 -0.2596,-0.2172 -0.76933,-0.472 -1.52921,-0.7646 -0.72213,-0.2691 -1.23658,-0.5027 -1.54336,-0.7009 -0.30207,-0.203 -0.52861,-0.4319 -0.67965,-0.6868 -0.14631,-0.2548 -0.21947,-0.5592 -0.21947,-0.9132 0,-0.6325 0.25723,-1.1304 0.77169,-1.4938 0.51445,-0.3682 1.22005,-0.5522 2.11681,-0.5523 0.83539,10e-5 1.65191,0.17 2.44956,0.5098 l -0.4177,0.9557 c -0.77877,-0.3209 -1.48437,-0.4814 -2.11682,-0.4814 -0.55693,0 -0.97699,0.087 -1.26017,0.262 -0.28319,0.1746 -0.42478,0.4153 -0.42478,0.7221 0,0.2077 0.0519,0.3847 0.15575,0.531 0.10855,0.1463 0.28082,0.2855 0.51681,0.4177 0.23599,0.1321 0.68909,0.3233 1.3593,0.5734 0.92035,0.3351 1.54099,0.6726 1.86194,1.0124 0.32566,0.3398 0.48849,0.767 0.4885,1.2814"
         id="path3935"
         inkscape:connector-curvature="0"
         style="font-size:56px;font-style:normal;font-variant:normal;font-weight:normal;font-stretch:normal;text-align:start;line-height:125%;letter-spacing:0px;word-spacing:0px;writing-mode:lr-tb;text-anchor:start;fill:#000000;fill-opacity:1;stroke:none;font-family:Open Sans;-inkscape-font-specification:Open Sans" />
      <path
         inkscape:export-ydpi="300"
         inkscape:export-xdpi="300"
         inkscape:export-filename="/Users/lucacorsato/Documents/o{s}d_scritta.png"
         d="m 60.991152,1044.4815 c -1.14691,0 -2.0531,-0.3492 -2.71858,-1.0478 -0.66077,-0.6985 -0.99116,-1.6684 -0.99115,-2.9097 -10e-6,-1.2507 0.30678,-2.2442 0.92035,-2.9805 0.61829,-0.7363 1.4466,-1.1044 2.48496,-1.1045 0.97226,10e-5 1.74158,0.321 2.30796,0.9629 0.56637,0.6372 0.84955,1.4796 0.84956,2.5274 l 0,0.7434 -5.34514,0 c 0.0236,0.9109 0.25251,1.6023 0.68673,2.0743 0.43894,0.472 1.05486,0.708 1.84779,0.708 0.83539,0 1.66135,-0.1747 2.47787,-0.5239 l 0,1.0478 c -0.41534,0.1793 -0.80944,0.3068 -1.1823,0.3823 -0.36815,0.08 -0.81416,0.1203 -1.33805,0.1203 m -0.31858,-7.0584 c -0.62302,0 -1.12095,0.203 -1.49381,0.6089 -0.36814,0.4059 -0.58525,0.9675 -0.65133,1.6849 l 4.05664,0 c -10e-6,-0.741 -0.1652,-1.3073 -0.49558,-1.6991 -0.33038,-0.3964 -0.80236,-0.5947 -1.41592,-0.5947"
         id="path3937"
         inkscape:connector-curvature="0"
         style="font-size:56px;font-style:normal;font-variant:normal;font-weight:normal;font-stretch:normal;text-align:start;line-height:125%;letter-spacing:0px;word-spacing:0px;writing-mode:lr-tb;text-anchor:start;fill:#000000;fill-opacity:1;stroke:none;font-family:Open Sans;-inkscape-font-specification:Open Sans" />
      <path
         inkscape:export-ydpi="300"
         inkscape:export-xdpi="300"
         inkscape:export-filename="/Users/lucacorsato/Documents/o{s}d_scritta.png"
         d="m 71.150442,1044.3399 0,-5.0194 c 0,-0.6325 -0.14396,-1.1045 -0.43186,-1.416 -0.28791,-0.3115 -0.73864,-0.4672 -1.35221,-0.4672 -0.8118,0 -1.40649,0.2195 -1.78407,0.6584 -0.37758,0.4389 -0.56637,1.1634 -0.56637,2.1734 l 0,4.0708 -1.17522,0 0,-7.7593 0.95575,0 0.19115,1.062 0.0566,0 c 0.2407,-0.3823 0.57817,-0.6773 1.01239,-0.885 0.43421,-0.2123 0.91799,-0.3185 1.45132,-0.3186 0.93451,10e-5 1.63776,0.2266 2.10974,0.6797 0.47197,0.4484 0.70796,1.1681 0.70796,2.1593 l 0,5.0619 -1.17522,0"
         id="path3939"
         inkscape:connector-curvature="0"
         style="font-size:56px;font-style:normal;font-variant:normal;font-weight:normal;font-stretch:normal;text-align:start;line-height:125%;letter-spacing:0px;word-spacing:0px;writing-mode:lr-tb;text-anchor:start;fill:#000000;fill-opacity:1;stroke:none;font-family:Open Sans;-inkscape-font-specification:Open Sans" />
      <path
         inkscape:export-ydpi="300"
         inkscape:export-xdpi="300"
         inkscape:export-filename="/Users/lucacorsato/Documents/o{s}d_scritta.png"
         d="m 79.738052,1042.2231 c 0,0.7221 -0.26903,1.2791 -0.80708,1.6708 -0.53806,0.3918 -1.29322,0.5876 -2.26548,0.5876 -1.02891,0 -1.83127,-0.1628 -2.40708,-0.4885 l 0,-1.0902 c 0.37286,0.1888 0.77168,0.3374 1.19646,0.446 0.42949,0.1085 0.84247,0.1628 1.23894,0.1628 0.61356,0 1.08554,-0.097 1.41592,-0.2902 0.33038,-0.1983 0.49557,-0.498 0.49558,-0.8992 -1e-5,-0.302 -0.13216,-0.5593 -0.39646,-0.7716 -0.25959,-0.2172 -0.76933,-0.472 -1.5292,-0.7646 -0.72213,-0.2691 -1.23659,-0.5027 -1.54337,-0.7009 -0.30206,-0.203 -0.52861,-0.4319 -0.67964,-0.6868 -0.14632,-0.2548 -0.21947,-0.5592 -0.21947,-0.9132 0,-0.6325 0.25722,-1.1304 0.77168,-1.4938 0.51445,-0.3682 1.22006,-0.5522 2.11681,-0.5523 0.8354,10e-5 1.65192,0.17 2.44956,0.5098 l -0.4177,0.9557 c -0.77877,-0.3209 -1.48437,-0.4814 -2.11681,-0.4814 -0.55694,0 -0.977,0.087 -1.26018,0.262 -0.28319,0.1746 -0.42478,0.4153 -0.42478,0.7221 0,0.2077 0.0519,0.3847 0.15575,0.531 0.10856,0.1463 0.28083,0.2855 0.51682,0.4177 0.23598,0.1321 0.68908,0.3233 1.35929,0.5734 0.92035,0.3351 1.541,0.6726 1.86195,1.0124 0.32565,0.3398 0.48849,0.767 0.48849,1.2814"
         id="path3941"
         inkscape:connector-curvature="0"
         style="font-size:56px;font-style:normal;font-variant:normal;font-weight:normal;font-stretch:normal;text-align:start;line-height:125%;letter-spacing:0px;word-spacing:0px;writing-mode:lr-tb;text-anchor:start;fill:#000000;fill-opacity:1;stroke:none;font-family:Open Sans;-inkscape-font-specification:Open Sans" />
      <path
         inkscape:export-ydpi="300"
         inkscape:export-xdpi="300"
         inkscape:export-filename="/Users/lucacorsato/Documents/o{s}d_scritta.png"
         d="m 88.339822,1040.4532 c 0,1.2649 -0.31859,2.2537 -0.95575,2.9664 -0.63717,0.7079 -1.51741,1.0619 -2.64071,1.0619 -0.69381,0 -1.30973,-0.1628 -1.84779,-0.4885 -0.53805,-0.3256 -0.95339,-0.7929 -1.24601,-1.4017 -0.29263,-0.6089 -0.43894,-1.3216 -0.43894,-2.1381 0,-1.2649 0.31622,-2.249 0.94867,-2.9522 0.63245,-0.708 1.51032,-1.0619 2.63363,-1.062 1.08554,10e-5 1.9469,0.3611 2.58407,1.0832 0.64188,0.7222 0.96283,1.6992 0.96283,2.931 m -5.9115,0 c 0,0.9912 0.19823,1.7463 0.59469,2.2655 0.39646,0.5192 0.97935,0.7788 1.74867,0.7788 0.76932,0 1.35221,-0.2573 1.74867,-0.7717 0.40118,-0.5192 0.60177,-1.2767 0.60177,-2.2726 0,-0.9864 -0.20059,-1.7345 -0.60177,-2.2442 -0.39646,-0.5145 -0.98407,-0.7717 -1.76283,-0.7717 -0.76932,0 -1.34985,0.2525 -1.74159,0.7575 -0.39174,0.505 -0.58761,1.2578 -0.58761,2.2584"
         id="path3943"
         inkscape:connector-curvature="0"
         style="font-size:56px;font-style:normal;font-variant:normal;font-weight:normal;font-stretch:normal;text-align:start;line-height:125%;letter-spacing:0px;word-spacing:0px;writing-mode:lr-tb;text-anchor:start;fill:#000000;fill-opacity:1;stroke:none;font-family:Open Sans;-inkscape-font-specification:Open Sans" />
      <path
         inkscape:export-ydpi="300"
         inkscape:export-xdpi="300"
         inkscape:export-filename="/Users/lucacorsato/Documents/o{s}d_scritta.png"
         d="m 93.932742,1036.439 c 0.34454,10e-5 0.65368,0.028 0.92744,0.085 l -0.16284,1.0903 c -0.32095,-0.071 -0.60413,-0.1062 -0.84955,-0.1062 -0.62774,0 -1.16579,0.2549 -1.61416,0.7646 -0.44366,0.5098 -0.66549,1.1446 -0.66549,1.9044 l 0,4.1629 -1.17522,0 0,-7.7593 0.96991,0 0.13451,1.4371 0.0566,0 c 0.2879,-0.505 0.63481,-0.8943 1.04071,-1.1681 0.40589,-0.2737 0.85191,-0.4106 1.33805,-0.4106"
         id="path3945"
         inkscape:connector-curvature="0"
         style="font-size:56px;font-style:normal;font-variant:normal;font-weight:normal;font-stretch:normal;text-align:start;line-height:125%;letter-spacing:0px;word-spacing:0px;writing-mode:lr-tb;text-anchor:start;fill:#000000;fill-opacity:1;stroke:none;font-family:Open Sans;-inkscape-font-specification:Open Sans" />
      <path
         inkscape:export-ydpi="300"
         inkscape:export-xdpi="300"
         inkscape:export-filename="/Users/lucacorsato/Documents/o{s}d_scritta.png"
         d="m 101.31681,1042.2231 c 0,0.7221 -0.26903,1.2791 -0.80708,1.6708 -0.538048,0.3918 -1.293208,0.5876 -2.265478,0.5876 -1.02891,0 -1.83127,-0.1628 -2.40708,-0.4885 l 0,-1.0902 c 0.37286,0.1888 0.77168,0.3374 1.19646,0.446 0.42949,0.1085 0.84247,0.1628 1.23894,0.1628 0.61356,0 1.08554,-0.097 1.41593,-0.2902 0.330368,-0.1983 0.495558,-0.498 0.495568,-0.8992 -1e-5,-0.302 -0.13216,-0.5593 -0.396458,-0.7716 -0.25959,-0.2172 -0.76933,-0.472 -1.5292,-0.7646 -0.72213,-0.2691 -1.23658,-0.5027 -1.54337,-0.7009 -0.30206,-0.203 -0.52861,-0.4319 -0.67964,-0.6868 -0.14632,-0.2548 -0.21947,-0.5592 -0.21947,-0.9132 0,-0.6325 0.25722,-1.1304 0.77168,-1.4938 0.51445,-0.3682 1.22006,-0.5522 2.11681,-0.5523 0.8354,10e-5 1.651918,0.17 2.449558,0.5098 l -0.4177,0.9557 c -0.778758,-0.3209 -1.484368,-0.4814 -2.116808,-0.4814 -0.55694,0 -0.97699,0.087 -1.26018,0.262 -0.28319,0.1746 -0.42478,0.4153 -0.42478,0.7221 0,0.2077 0.0519,0.3847 0.15575,0.531 0.10856,0.1463 0.28083,0.2855 0.51682,0.4177 0.23598,0.1321 0.68908,0.3233 1.35929,0.5734 0.92035,0.3351 1.540998,0.6726 1.861948,1.0124 0.32566,0.3398 0.48849,0.767 0.48849,1.2814"
         id="path3947"
         inkscape:connector-curvature="0"
         style="font-size:56px;font-style:normal;font-variant:normal;font-weight:normal;font-stretch:normal;text-align:start;line-height:125%;letter-spacing:0px;word-spacing:0px;writing-mode:lr-tb;text-anchor:start;fill:#000000;fill-opacity:1;stroke:none;font-family:Open Sans;-inkscape-font-specification:Open Sans" />
      <path
         inkscape:export-ydpi="300"
         inkscape:export-xdpi="300"
         inkscape:export-filename="/Users/lucacorsato/Documents/o{s}d_scritta.png"
         d="m 104.60885,1052.3622 0,-0.6655 0.87787,0 c 0.859,0 1.46785,-0.2596 1.82655,-0.7788 0.36814,-0.5097 0.55221,-1.2649 0.55222,-2.2655 l 0,-4.7292 c -10e-6,-0.9156 0.2407,-1.6896 0.72212,-2.3221 0.48141,-0.6419 1.14689,-1.0619 1.99646,-1.2602 l 0,-0.043 c -0.83069,-0.1793 -1.49145,-0.5946 -1.9823,-1.246 -0.49086,-0.6513 -0.73629,-1.4206 -0.73628,-2.3079 l 0,-4.6726 c -10e-6,-1.0006 -0.18408,-1.7557 -0.55222,-2.2655 -0.3587,-0.5191 -0.96755,-0.7787 -1.82655,-0.7787 l -0.87787,0 0,-0.6655 1.92566,0 c 1.22714,0 2.14749,0.3587 2.76107,1.0761 0.61356,0.7174 0.92034,1.7416 0.92035,3.0725 l 0,4.1629 c -1e-5,2.1899 1.01474,3.3038 3.04425,3.3416 l 0,0.6371 c -1.01948,0.038 -1.78408,0.3304 -2.29381,0.8779 -0.5003,0.5475 -0.75045,1.3782 -0.75044,2.492 l 0,4.177 c -1e-5,1.3121 -0.32095,2.3316 -0.96283,3.0584 -0.63246,0.7363 -1.53865,1.1045 -2.71859,1.1045 l -1.92566,0"
         style="font-size:112px;font-style:normal;font-variant:normal;font-weight:normal;font-stretch:normal;text-align:start;line-height:125%;letter-spacing:0px;word-spacing:0px;writing-mode:lr-tb;text-anchor:start;fill:#002fa7;fill-opacity:1;stroke:none;font-family:Liberation Serif;-inkscape-font-specification:Liberation Serif"
         id="path3949"
         inkscape:connector-curvature="0" />
      <path
         inkscape:export-ydpi="300"
         inkscape:export-xdpi="300"
         inkscape:export-filename="/Users/lucacorsato/Documents/o{s}d_scritta.png"
         d="m 119.5469,1044.4815 c -0.92979,0 -1.66136,-0.361 -2.19469,-1.0832 -0.52861,-0.7221 -0.79292,-1.7227 -0.79292,-3.0017 0,-1.298 0.26903,-2.308 0.80708,-3.0301 0.54277,-0.7269 1.28849,-1.0903 2.23717,-1.0903 0.99586,0 1.75575,0.387 2.27964,1.1611 l 0.0708,0 c -0.10856,-0.59 -0.16284,-1.1162 -0.16283,-1.5788 l 0,-2.5345 2.16637,0 0,11.0159 -1.65663,0 -0.41771,-1.0265 -0.092,0 c -0.49086,0.7787 -1.23894,1.1681 -2.24425,1.1681 m 0.75752,-1.7203 c 0.55221,0 0.95575,-0.1605 1.21062,-0.4814 0.25958,-0.321 0.40118,-0.8661 0.42478,-1.6354 l 0,-0.2337 c 0,-0.8495 -0.13216,-1.4584 -0.39646,-1.8265 -0.25959,-0.3682 -0.68437,-0.5522 -1.27433,-0.5522 -0.48142,0 -0.85665,0.2053 -1.12567,0.6159 -0.26431,0.4059 -0.39646,0.9982 -0.39646,1.777 0,0.7788 0.13451,1.364 0.40354,1.7557 0.26903,0.3871 0.65368,0.5806 1.15398,0.5806"
         style="font-size:56px;font-style:normal;font-variant:normal;font-weight:bold;font-stretch:normal;text-align:start;line-height:125%;letter-spacing:0px;word-spacing:0px;writing-mode:lr-tb;text-anchor:start;fill:#000000;fill-opacity:1;stroke:none;font-family:Open Sans;-inkscape-font-specification:Open Sans Bold"
         id="path3951"
         inkscape:connector-curvature="0" />
      <path
         inkscape:export-ydpi="300"
         inkscape:export-xdpi="300"
         inkscape:export-filename="/Users/lucacorsato/Documents/o{s}d_scritta.png"
         d="m 131.24248,1044.3399 -0.4177,-1.0761 -0.0566,0 c -0.36343,0.4578 -0.73865,0.7764 -1.12566,0.9558 -0.38231,0.1746 -0.8826,0.2619 -1.50089,0.2619 -0.75988,0 -1.35929,-0.2171 -1.79823,-0.6513 -0.43422,-0.4342 -0.65133,-1.0525 -0.65133,-1.8549 0,-0.8401 0.29263,-1.4584 0.87788,-1.8548 0.58997,-0.4012 1.47729,-0.623 2.66195,-0.6655 l 1.37345,-0.043 0,-0.3469 c -10e-6,-0.8024 -0.41063,-1.2036 -1.23186,-1.2036 -0.63245,0 -1.37581,0.1912 -2.23009,0.5735 l -0.71504,-1.4584 c 0.91091,-0.4767 1.92094,-0.7151 3.03009,-0.7151 1.06194,0 1.8761,0.2313 2.44247,0.6938 0.56637,0.4626 0.84955,1.1658 0.84956,2.1098 l 0,5.2743 -1.50796,0 m -0.63717,-3.6672 -0.8354,0.028 c -0.62773,0.019 -1.09499,0.1321 -1.40177,0.3398 -0.30679,0.2077 -0.46018,0.5239 -0.46018,0.9487 0,0.6088 0.34926,0.9132 1.04779,0.9132 0.50029,0 0.89911,-0.1439 1.19646,-0.4318 0.30206,-0.2879 0.45309,-0.6702 0.4531,-1.1469 l 0,-0.6514"
         style="font-size:56px;font-style:normal;font-variant:normal;font-weight:bold;font-stretch:normal;text-align:start;line-height:125%;letter-spacing:0px;word-spacing:0px;writing-mode:lr-tb;text-anchor:start;fill:#000000;fill-opacity:1;stroke:none;font-family:Open Sans;-inkscape-font-specification:Open Sans Bold"
         id="path3953"
         inkscape:connector-curvature="0" />
      <path
         inkscape:export-ydpi="300"
         inkscape:export-xdpi="300"
         inkscape:export-filename="/Users/lucacorsato/Documents/o{s}d_scritta.png"
         d="m 138.30088,1042.7612 c 0.37758,0 0.83068,-0.083 1.3593,-0.2478 l 0,1.6071 c -0.53806,0.2407 -1.19883,0.361 -1.98231,0.361 -0.86372,0 -1.4938,-0.2171 -1.89026,-0.6513 -0.39174,-0.4389 -0.58761,-1.095 -0.58761,-1.9681 l 0,-3.816 -1.03363,0 0,-0.9132 1.18938,-0.7222 0.62301,-1.6708 1.38053,0 0,1.685 2.21593,0 0,1.6212 -2.21593,0 0,3.816 c 0,0.3067 0.085,0.5333 0.25487,0.6796 0.17463,0.1463 0.40354,0.2195 0.68672,0.2195"
         style="font-size:56px;font-style:normal;font-variant:normal;font-weight:bold;font-stretch:normal;text-align:start;line-height:125%;letter-spacing:0px;word-spacing:0px;writing-mode:lr-tb;text-anchor:start;fill:#000000;fill-opacity:1;stroke:none;font-family:Open Sans;-inkscape-font-specification:Open Sans Bold"
         id="path3955"
         inkscape:connector-curvature="0" />
      <path
         inkscape:export-ydpi="300"
         inkscape:export-xdpi="300"
         inkscape:export-filename="/Users/lucacorsato/Documents/o{s}d_scritta.png"
         d="m 146.27965,1044.3399 -0.4177,-1.0761 -0.0566,0 c -0.36343,0.4578 -0.73865,0.7764 -1.12566,0.9558 -0.38231,0.1746 -0.8826,0.2619 -1.50089,0.2619 -0.75988,0 -1.35929,-0.2171 -1.79823,-0.6513 -0.43422,-0.4342 -0.65133,-1.0525 -0.65133,-1.8549 0,-0.8401 0.29263,-1.4584 0.87788,-1.8548 0.58997,-0.4012 1.47728,-0.623 2.66194,-0.6655 l 1.37346,-0.043 0,-0.3469 c -1e-5,-0.8024 -0.41063,-1.2036 -1.23186,-1.2036 -0.63245,0 -1.37582,0.1912 -2.23009,0.5735 l -0.71504,-1.4584 c 0.91091,-0.4767 1.92094,-0.7151 3.03008,-0.7151 1.06194,0 1.8761,0.2313 2.44248,0.6938 0.56637,0.4626 0.84955,1.1658 0.84956,2.1098 l 0,5.2743 -1.50796,0 m -0.63717,-3.6672 -0.8354,0.028 c -0.62773,0.019 -1.09499,0.1321 -1.40177,0.3398 -0.30679,0.2077 -0.46018,0.5239 -0.46018,0.9487 0,0.6088 0.34926,0.9132 1.04779,0.9132 0.50029,0 0.89911,-0.1439 1.19646,-0.4318 0.30206,-0.2879 0.45309,-0.6702 0.4531,-1.1469 l 0,-0.6514"
         style="font-size:56px;font-style:normal;font-variant:normal;font-weight:bold;font-stretch:normal;text-align:start;line-height:125%;letter-spacing:0px;word-spacing:0px;writing-mode:lr-tb;text-anchor:start;fill:#000000;fill-opacity:1;stroke:none;font-family:Open Sans;-inkscape-font-specification:Open Sans Bold"
         id="path3957"
         inkscape:connector-curvature="0" />
    </g>
  </g>
</svg>
