<?xml version="1.0" encoding="UTF-8" standalone="no"?>
<!-- Created with Inkscape (http://www.inkscape.org/) -->

<svg
   xmlns:osb="http://www.openswatchbook.org/uri/2009/osb"
   xmlns:dc="http://purl.org/dc/elements/1.1/"
   xmlns:cc="http://creativecommons.org/ns#"
   xmlns:rdf="http://www.w3.org/1999/02/22-rdf-syntax-ns#"
   xmlns:svg="http://www.w3.org/2000/svg"
   xmlns="http://www.w3.org/2000/svg"
   xmlns:xlink="http://www.w3.org/1999/xlink"
   xmlns:sodipodi="http://sodipodi.sourceforge.net/DTD/sodipodi-0.dtd"
   xmlns:inkscape="http://www.inkscape.org/namespaces/inkscape"
   width="36"
   height="36"
   id="svg2"
   version="1.1"
   inkscape:version="0.48.2 r9819"
   sodipodi:docname="o{s}d_logo.svg">
  <defs
     id="defs4">
    <linearGradient
       id="linearGradient4444"
       osb:paint="solid">
      <stop
         style="stop-color:#002fa7;stop-opacity:1;"
         offset="0"
         id="stop4446" />
    </linearGradient>
    <linearGradient
       inkscape:collect="always"
       xlink:href="#linearGradient4444"
       id="linearGradient4448"
       x1="1481.6096"
       y1="393.59521"
       x2="3401.6096"
       y2="393.59521"
       gradientUnits="userSpaceOnUse" />
    <linearGradient
       inkscape:collect="always"
       xlink:href="#linearGradient4444"
       id="linearGradient4452"
       gradientUnits="userSpaceOnUse"
       x1="1481.6096"
       y1="393.59521"
       x2="3401.6096"
       y2="393.59521"
       gradientTransform="translate(-1761.6116,2283.4524)" />
  </defs>
  <sodipodi:namedview
     id="base"
     pagecolor="#ffffff"
     bordercolor="#666666"
     borderopacity="1.0"
     inkscape:pageopacity="0.0"
     inkscape:pageshadow="2"
     inkscape:zoom="20.48"
     inkscape:cx="18.106316"
     inkscape:cy="19.422648"
     inkscape:document-units="px"
     inkscape:current-layer="layer10"
     showgrid="false"
     inkscape:window-width="1440"
     inkscape:window-height="852"
     inkscape:window-x="0"
     inkscape:window-y="0"
     inkscape:window-maximized="1" />
  <metadata
     id="metadata7">
    <rdf:RDF>
      <cc:Work
         rdf:about="">
        <dc:format>image/svg+xml</dc:format>
        <dc:type
           rdf:resource="http://purl.org/dc/dcmitype/StillImage" />
        <dc:title></dc:title>
      </cc:Work>
    </rdf:RDF>
  </metadata>
  <g
     inkscape:groupmode="layer"
     id="layer10"
     inkscape:label="didascalie"
     style="display:inline"
     transform="translate(0,-1016.3622)" />
  <g
     inkscape:groupmode="layer"
     id="layer2"
     inkscape:label="margine"
     style="display:inline"
     transform="translate(0,-1016.3622)" />
  <g
     inkscape:groupmode="layer"
     id="layer3"
     inkscape:label="sfondo"
     style="display:inline"
     transform="translate(0,-1016.3622)" />
  <g
     inkscape:groupmode="layer"
     id="layer4"
     inkscape:label="open"
     sodipodi:insensitive="true"
     style="display:none"
     transform="translate(0,-1016.3622)" />
  <g
     inkscape:groupmode="layer"
     id="layer5"
     inkscape:label="sensors"
     sodipodi:insensitive="true"
     style="display:none"
     transform="translate(0,-1016.3622)" />
  <g
     inkscape:groupmode="layer"
     id="layer6"
     inkscape:label="data"
     sodipodi:insensitive="true"
     style="display:none"
     transform="translate(0,-1016.3622)" />
  <g
     inkscape:groupmode="layer"
     id="layer7"
     inkscape:label="graffe"
     sodipodi:insensitive="true"
     style="display:none"
     transform="translate(0,-1016.3622)">
    <path
       inkscape:connector-curvature="0"
       id="path3004"
       style="font-size:32px;font-style:normal;font-variant:normal;font-weight:normal;font-stretch:normal;text-align:start;line-height:125%;letter-spacing:0px;word-spacing:0px;writing-mode:lr-tb;text-anchor:start;fill:#000000;fill-opacity:1;stroke:none;font-family:Liberation Serif;-inkscape-font-specification:Liberation Serif"
       d="m 209.18304,686.28632 c -1.3125,-1e-5 -2.32292,-0.40105 -3.03125,-1.20313 -0.69792,-0.80208 -1.04688,-1.93229 -1.04687,-3.39062 l 0,-4.60938 c -1e-5,-1.21874 -0.27605,-2.1302 -0.82813,-2.73437 -0.54167,-0.61458 -1.38542,-0.9427 -2.53125,-0.98438 l 0,-0.70312 c 2.23958,-0.0417 3.35937,-1.27083 3.35938,-3.6875 l 0,-4.59375 c -1e-5,-1.46873 0.33853,-2.59894 1.01562,-3.39063 0.67708,-0.79164 1.69791,-1.18748 3.0625,-1.1875 l 2.10938,0 0,0.73438 -0.96875,0 c -0.94793,2e-5 -1.62501,0.28648 -2.03125,0.85937 -0.39584,0.56252 -0.59376,1.39585 -0.59375,2.5 l 0,5.15625 c -1e-5,0.9896 -0.27084,1.84376 -0.8125,2.5625 -0.54167,0.70834 -1.27084,1.16147 -2.1875,1.35938 l 0,0.0469 c 0.92708,0.21876 1.65624,0.6823 2.1875,1.39063 0.54166,0.69792 0.81249,1.55209 0.8125,2.5625 l 0,5.21875 c -1e-5,1.10416 0.19791,1.93749 0.59375,2.5 0.40624,0.57291 1.08332,0.85937 2.03125,0.85937 l 0.96875,0 0,0.73438 -2.10938,0" />
    <path
       inkscape:connector-curvature="0"
       id="path3006"
       style="font-size:32px;font-style:normal;font-variant:normal;font-weight:normal;font-stretch:normal;text-align:start;line-height:125%;letter-spacing:0px;word-spacing:0px;writing-mode:lr-tb;text-anchor:start;fill:#000000;fill-opacity:1;stroke:none;font-family:Liberation Serif;-inkscape-font-specification:Liberation Serif"
       d="m 217.12054,686.28632 0,-0.73438 0.96875,0 c 0.94792,0 1.61979,-0.28646 2.01563,-0.85937 0.40624,-0.56251 0.60937,-1.39584 0.60937,-2.5 l 0,-5.21875 c 0,-1.01041 0.26562,-1.86458 0.79688,-2.5625 0.53124,-0.70833 1.26562,-1.17187 2.20312,-1.39063 l 0,-0.0469 c -0.91667,-0.19791 -1.64584,-0.65624 -2.1875,-1.375 -0.54167,-0.71874 -0.8125,-1.5677 -0.8125,-2.54688 l 0,-5.15625 c 0,-1.10415 -0.20313,-1.93748 -0.60937,-2.5 -0.39584,-0.57289 -1.06771,-0.85935 -2.01563,-0.85937 l -0.96875,0 0,-0.73438 2.125,0 c 1.35416,2e-5 2.36979,0.39586 3.04688,1.1875 0.67707,0.79169 1.01562,1.9219 1.01562,3.39063 l 0,4.59375 c 0,2.41667 1.11979,3.64584 3.35938,3.6875 l 0,0.70312 c -1.12501,0.0417 -1.96876,0.36459 -2.53125,0.96875 -0.55209,0.60417 -0.82813,1.52084 -0.82813,2.75 l 0,4.60938 c 0,1.44791 -0.35417,2.57291 -1.0625,3.375 -0.69792,0.81249 -1.69792,1.21874 -3,1.21875 l -2.125,0" />
  </g>
  <g
     inkscape:label="scritta"
     inkscape:groupmode="layer"
     id="layer1"
     style="display:inline"
     transform="translate(0,-1016.3622)" />
  <g
     inkscape:groupmode="layer"
     id="layer9"
     inkscape:label="rettangoli"
     style="display:inline"
     transform="translate(0,-1016.3622)">
    <rect
       inkscape:export-ydpi="300"
       inkscape:export-xdpi="300"
       inkscape:export-filename="/Users/lucacorsato/Documents/o{s}d.png"
       ry="0"
       y="1017.8256"
       x="26.532215"
       height="33.058811"
       width="7.4573016"
       id="rect4214"
       style="fill:#f9f9f9;fill-opacity:1;stroke:none;display:inline" />
    <rect
       inkscape:export-ydpi="300"
       inkscape:export-xdpi="300"
       inkscape:export-filename="/Users/lucacorsato/Documents/o{s}d.png"
       style="fill:#f2f2f2;fill-opacity:1;stroke:none;display:inline"
       id="rect4216"
       width="8.7205305"
       height="27.147583"
       x="17.822647"
       y="1020.7811"
       ry="0" />
    <rect
       inkscape:export-ydpi="300"
       inkscape:export-xdpi="300"
       inkscape:export-filename="/Users/lucacorsato/Documents/o{s}d.png"
       ry="0"
       y="1019.3033"
       x="9.150569"
       height="30.103191"
       width="8.7205305"
       id="rect4218"
       style="fill:#ececec;fill-opacity:1;stroke:none;display:inline" />
    <rect
       inkscape:export-ydpi="300"
       inkscape:export-xdpi="300"
       inkscape:export-filename="/Users/lucacorsato/Documents/o{s}d.png"
       style="fill:#e6e6e6;fill-opacity:1;stroke:none;display:inline"
       id="rect4220"
       width="7.7357216"
       height="33.058811"
       x="1.4777863"
       y="1017.8256"
       ry="0" />
  </g>
  <g
     inkscape:groupmode="layer"
     id="layer8"
     inkscape:label="crocette"
     style="display:inline"
     transform="translate(0,-1016.3622)">
    <path
       inkscape:export-ydpi="300"
       inkscape:export-xdpi="300"
       inkscape:export-filename="/Users/lucacorsato/Documents/o{s}d.png"
       inkscape:connector-curvature="0"
       id="path4222"
       d="m 33.989803,1016.5097 0,2.6613"
       style="fill:none;stroke:#002fa7;stroke-width:0.29500616;stroke-linecap:round;stroke-linejoin:miter;stroke-miterlimit:4;stroke-opacity:1;stroke-dasharray:none" />
    <path
       inkscape:export-ydpi="300"
       inkscape:export-xdpi="300"
       inkscape:export-filename="/Users/lucacorsato/Documents/o{s}d.png"
       style="fill:none;stroke:#002fa7;stroke-width:0.29500616;stroke-linecap:round;stroke-linejoin:miter;stroke-miterlimit:4;stroke-opacity:1;stroke-dasharray:none"
       d="m 32.659232,1017.8404 2.661157,0"
       id="path4224"
       inkscape:connector-curvature="0" />
    <path
       inkscape:export-ydpi="300"
       inkscape:export-xdpi="300"
       inkscape:export-filename="/Users/lucacorsato/Documents/o{s}d.png"
       transform="matrix(0.24746217,0,0,0.24746217,-2.7840732,830.07945)"
       d="m 151.08883,758.74713 c 0,1.37294 -1.11299,2.48592 -2.48592,2.48592 -1.37294,0 -2.48593,-1.11298 -2.48593,-2.48592 0,-1.37294 1.11299,-2.48592 2.48593,-2.48592 1.37293,0 2.48592,1.11298 2.48592,2.48592 z"
       sodipodi:ry="2.4859223"
       sodipodi:rx="2.4859223"
       sodipodi:cy="758.74713"
       sodipodi:cx="148.60291"
       id="path4226"
       style="fill:none;stroke:#002fa7;stroke-width:1;stroke-linecap:round;stroke-linejoin:round;stroke-miterlimit:4;stroke-opacity:1;stroke-dasharray:none;stroke-dashoffset:16.33108387"
       sodipodi:type="arc" />
    <path
       inkscape:export-ydpi="300"
       inkscape:export-xdpi="300"
       inkscape:export-filename="/Users/lucacorsato/Documents/o{s}d.png"
       style="fill:none;stroke:#ea5480;stroke-width:0.29500616;stroke-linecap:round;stroke-linejoin:miter;stroke-miterlimit:4;stroke-opacity:1;stroke-dasharray:none"
       d="m 1.4780891,1016.5097 0,2.6613"
       id="path4228"
       inkscape:connector-curvature="0" />
    <path
       inkscape:export-ydpi="300"
       inkscape:export-xdpi="300"
       inkscape:export-filename="/Users/lucacorsato/Documents/o{s}d.png"
       inkscape:connector-curvature="0"
       id="path4230"
       d="m 0.14750308,1017.8404 2.66115712,0"
       style="fill:none;stroke:#ea5480;stroke-width:0.29500616;stroke-linecap:round;stroke-linejoin:miter;stroke-miterlimit:4;stroke-opacity:1;stroke-dasharray:none" />
    <path
       inkscape:export-ydpi="300"
       inkscape:export-xdpi="300"
       inkscape:export-filename="/Users/lucacorsato/Documents/o{s}d.png"
       sodipodi:type="arc"
       style="fill:none;stroke:#ea5480;stroke-width:1;stroke-linecap:round;stroke-linejoin:round;stroke-miterlimit:4;stroke-opacity:1;stroke-dasharray:none;stroke-dashoffset:16.33108387"
       id="path4232"
       sodipodi:cx="148.60291"
       sodipodi:cy="758.74713"
       sodipodi:rx="2.4859223"
       sodipodi:ry="2.4859223"
       d="m 151.08883,758.74713 c 0,1.37294 -1.11299,2.48592 -2.48592,2.48592 -1.37294,0 -2.48593,-1.11298 -2.48593,-2.48592 0,-1.37294 1.11299,-2.48592 2.48593,-2.48592 1.37293,0 2.48592,1.11298 2.48592,2.48592 z"
       transform="matrix(0.24746217,0,0,0.24746217,-35.295786,830.07945)" />
    <path
       inkscape:export-ydpi="300"
       inkscape:export-xdpi="300"
       inkscape:export-filename="/Users/lucacorsato/Documents/o{s}d.png"
       style="fill:none;stroke:#002fa7;stroke-width:0.29500616;stroke-linecap:round;stroke-linejoin:miter;stroke-miterlimit:4;stroke-opacity:1;stroke-dasharray:none"
       d="m 33.989803,1049.5536 0,2.6611"
       id="path4234"
       inkscape:connector-curvature="0" />
    <path
       inkscape:export-ydpi="300"
       inkscape:export-xdpi="300"
       inkscape:export-filename="/Users/lucacorsato/Documents/o{s}d.png"
       inkscape:connector-curvature="0"
       id="path4236"
       d="m 32.659232,1050.8841 2.661157,0"
       style="fill:none;stroke:#002fa7;stroke-width:0.29500616;stroke-linecap:round;stroke-linejoin:miter;stroke-miterlimit:4;stroke-opacity:1;stroke-dasharray:none" />
    <path
       inkscape:export-ydpi="300"
       inkscape:export-xdpi="300"
       inkscape:export-filename="/Users/lucacorsato/Documents/o{s}d.png"
       sodipodi:type="arc"
       style="fill:none;stroke:#002fa7;stroke-width:1;stroke-linecap:round;stroke-linejoin:round;stroke-miterlimit:4;stroke-opacity:1;stroke-dasharray:none;stroke-dashoffset:16.33108387"
       id="path4238"
       sodipodi:cx="148.60291"
       sodipodi:cy="758.74713"
       sodipodi:rx="2.4859223"
       sodipodi:ry="2.4859223"
       d="m 151.08883,758.74713 c 0,1.37294 -1.11299,2.48592 -2.48592,2.48592 -1.37294,0 -2.48593,-1.11298 -2.48593,-2.48592 0,-1.37294 1.11299,-2.48592 2.48593,-2.48592 1.37293,0 2.48592,1.11298 2.48592,2.48592 z"
       transform="matrix(0.24746217,0,0,0.24746217,-2.7840732,863.12318)" />
    <path
       inkscape:export-ydpi="300"
       inkscape:export-xdpi="300"
       inkscape:export-filename="/Users/lucacorsato/Documents/o{s}d.png"
       inkscape:connector-curvature="0"
       id="path4240"
       d="m 1.4780891,1049.5536 0,2.6611"
       style="fill:none;stroke:#ea5480;stroke-width:0.29500616;stroke-linecap:round;stroke-linejoin:miter;stroke-miterlimit:4;stroke-opacity:1;stroke-dasharray:none" />
    <path
       inkscape:export-ydpi="300"
       inkscape:export-xdpi="300"
       inkscape:export-filename="/Users/lucacorsato/Documents/o{s}d.png"
       style="fill:none;stroke:#ea5480;stroke-width:0.29500616;stroke-linecap:round;stroke-linejoin:miter;stroke-miterlimit:4;stroke-opacity:1;stroke-dasharray:none"
       d="m 0.14750308,1050.8841 2.66115712,0"
       id="path4242"
       inkscape:connector-curvature="0" />
    <path
       inkscape:export-ydpi="300"
       inkscape:export-xdpi="300"
       inkscape:export-filename="/Users/lucacorsato/Documents/o{s}d.png"
       transform="matrix(0.24746217,0,0,0.24746217,-35.295786,863.12318)"
       d="m 151.08883,758.74713 c 0,1.37294 -1.11299,2.48592 -2.48592,2.48592 -1.37294,0 -2.48593,-1.11298 -2.48593,-2.48592 0,-1.37294 1.11299,-2.48592 2.48593,-2.48592 1.37293,0 2.48592,1.11298 2.48592,2.48592 z"
       sodipodi:ry="2.4859223"
       sodipodi:rx="2.4859223"
       sodipodi:cy="758.74713"
       sodipodi:cx="148.60291"
       id="path4244"
       style="fill:none;stroke:#ea5480;stroke-width:1;stroke-linecap:round;stroke-linejoin:round;stroke-miterlimit:4;stroke-opacity:1;stroke-dasharray:none;stroke-dashoffset:16.33108387"
       sodipodi:type="arc" />
  </g>
  <g
     inkscape:groupmode="layer"
     id="layer11"
     inkscape:label="logo"
     style="display:inline"
     transform="translate(0,-1016.3622)">
    <path
       inkscape:export-ydpi="300"
       inkscape:export-xdpi="300"
       inkscape:export-filename="/Users/lucacorsato/Documents/o{s}d.png"
       d="m 3.6971826,1034.3187 c 0,0.7898 0.1283996,1.3869 0.3853488,1.7912 0.2616592,0.4044 0.685078,0.6066 1.2702562,0.6066 0.5804083,0 0.9967021,-0.1998 1.2488513,-0.5994 0.2568893,-0.4044 0.3853489,-1.0038 0.3853489,-1.7984 0,-0.7897 -0.1283996,-1.3821 -0.3853489,-1.7769 -0.2569192,-0.3948 -0.677953,-0.5923 -1.2631162,-0.5923 -0.5804233,0 -0.9990871,0.1975 -1.2559913,0.5923 -0.2569042,0.3902 -0.3853488,0.9824 -0.3853488,1.7769 m 5.5163236,0 c -1.5e-5,1.2989 -0.342554,2.3145 -1.027617,3.0473 -0.685093,0.7326 -1.6389701,1.0989 -2.8616465,1.0989 -0.7659577,0 -1.4415257,-0.1665 -2.026689,-0.4995 -0.5851782,-0.3378 -1.0347569,-0.8207 -1.3487509,-1.4487 -0.3139941,-0.6279 -0.4709987,-1.3607 -0.4709987,-2.198 0,-1.3035 0.340169,-2.3169 1.020492,-3.04 0.680308,-0.7232 1.6365702,-1.0847 2.8687565,-1.0847 0.7659577,0 1.4415257,0.1665 2.026704,0.4995 0.5851632,0.333 1.0347419,0.8112 1.348751,1.4345 0.313994,0.6231 0.4709836,1.3534 0.4709986,2.1907"
       style="font-size:28px;font-style:normal;font-variant:normal;font-weight:bold;font-stretch:normal;text-align:start;line-height:125%;letter-spacing:0px;word-spacing:0px;writing-mode:lr-tb;text-anchor:start;fill:#1a1a1a;fill-opacity:1;stroke:none;display:inline;font-family:Open Sans;-inkscape-font-specification:Open Sans Bold"
       id="path4246"
       inkscape:connector-curvature="0" />
    <path
       inkscape:export-ydpi="300"
       inkscape:export-xdpi="300"
       inkscape:export-filename="/Users/lucacorsato/Documents/o{s}d.png"
       inkscape:connector-curvature="0"
       id="path4248"
       style="font-size:28px;font-style:normal;font-variant:normal;font-weight:normal;font-stretch:normal;text-align:start;line-height:125%;letter-spacing:0px;word-spacing:0px;writing-mode:lr-tb;text-anchor:start;fill:#4d4d4d;fill-opacity:1;stroke:none;display:inline;font-family:Open Sans;-inkscape-font-specification:Open Sans"
       d="m 20.619863,1036.1885 c 0,0.7278 -0.271184,1.2892 -0.813523,1.684 -0.542353,0.395 -1.303556,0.5924 -2.283608,0.5924 -1.037127,0 -1.84591,-0.1641 -2.426318,-0.4925 l 0,-1.0989 c 0.375839,0.1904 0.777853,0.3402 1.206027,0.4496 0.432928,0.1095 0.849207,0.1641 1.248851,0.1641 0.618463,0 1.094217,-0.098 1.427246,-0.2925 0.333014,-0.1998 0.499528,-0.5019 0.499528,-0.9063 0,-0.3045 -0.1332,-0.5639 -0.399629,-0.7779 -0.261659,-0.2189 -0.775467,-0.4758 -1.541425,-0.7707 -0.727903,-0.2712 -1.246466,-0.5067 -1.555706,-0.7065 -0.304484,-0.2046 -0.532828,-0.4353 -0.685077,-0.6923 -0.14745,-0.2568 -0.22122,-0.5637 -0.22122,-0.9205 0,-0.6375 0.259274,-1.1394 0.777853,-1.5057 0.518563,-0.3711 1.229816,-0.5567 2.133729,-0.5567 0.842082,0 1.66513,0.1713 2.469142,0.5138 l -0.421034,0.9634 c -0.784992,-0.3235 -1.496245,-0.4852 -2.133743,-0.4852 -0.561389,0 -0.984792,0.088 -1.270241,0.264 -0.285465,0.1761 -0.428189,0.4186 -0.428189,0.7279 0,0.2093 0.05235,0.3878 0.157004,0.5352 0.10935,0.147 0.283065,0.2879 0.520949,0.4211 0.237869,0.1335 0.694588,0.3258 1.370156,0.5779 0.927717,0.3378 1.55332,0.678 1.876839,1.0206 0.328259,0.3425 0.492389,0.7731 0.492389,1.2917" />
    <path
       inkscape:export-ydpi="300"
       inkscape:export-xdpi="300"
       inkscape:export-filename="/Users/lucacorsato/Documents/o{s}d.png"
       inkscape:connector-curvature="0"
       id="path4250"
       style="font-size:28px;font-style:normal;font-variant:normal;font-weight:bold;font-stretch:normal;text-align:start;line-height:125%;letter-spacing:0px;word-spacing:0px;writing-mode:lr-tb;text-anchor:start;fill:#808080;fill-opacity:1;stroke:none;display:inline;font-family:Open Sans;-inkscape-font-specification:Open Sans Bold"
       d="m 29.543651,1038.4649 c -0.937227,0 -1.67464,-0.3639 -2.212238,-1.0919 -0.532844,-0.7278 -0.799258,-1.7364 -0.799258,-3.0258 0,-1.3083 0.271169,-2.3263 0.813523,-3.0543 0.547123,-0.7326 1.298801,-1.0989 2.255063,-1.0989 1.003827,0 1.769785,0.39 2.297873,1.1703 l 0.0714,0 c -0.10935,-0.5947 -0.164145,-1.1251 -0.16413,-1.5913 l 0,-2.5548 2.183694,0 0,11.104 -1.669885,0 -0.421034,-1.0348 -0.0927,0 c -0.494788,0.7851 -1.248851,1.1775 -2.262188,1.1775 m 0.763573,-1.7342 c 0.556633,0 0.963387,-0.1617 1.220291,-0.4851 0.261674,-0.3235 0.404399,-0.8731 0.428174,-1.6486 l 0,-0.2354 c 0,-0.8563 -0.1332,-1.4701 -0.399629,-1.8412 -0.261659,-0.3711 -0.689833,-0.5567 -1.284506,-0.5567 -0.485279,0 -0.863502,0.207 -1.134672,0.6209 -0.266429,0.4092 -0.399628,1.0062 -0.399628,1.7913 0,0.7849 0.135599,1.3749 0.406768,1.7697 0.27117,0.3901 0.658903,0.5851 1.163202,0.5851" />
    <path
       inkscape:export-ydpi="300"
       inkscape:export-xdpi="300"
       inkscape:export-filename="/Users/lucacorsato/Documents/o{s}d.png"
       d="m 15.944407,1046.451 c -1.198887,0 -2.12185,-0.3663 -2.768858,-1.099 -0.637513,-0.7328 -0.956262,-1.7651 -0.956262,-3.0972 l 0,-4.2104 c 0,-1.1131 -0.252149,-1.9458 -0.756448,-2.4976 -0.494773,-0.5615 -1.265486,-0.8612 -2.3121377,-0.8991 l 0,-0.6423 c 2.0457237,-0.037 3.0685857,-1.1609 3.0685857,-3.3684 l 0,-4.1961 c 0,-1.3416 0.309239,-2.3739 0.927717,-3.0972 0.618464,-0.7231 1.550936,-1.0846 2.797403,-1.0846 l 1.926789,0 0,0.6708 -0.884893,0 c -0.865872,0 -1.48435,0.2617 -1.855419,0.7849 -0.361589,0.5139 -0.542369,1.2752 -0.542354,2.2836 l 0,4.71 c -1.5e-5,0.9039 -0.247409,1.6842 -0.742183,2.3407 -0.494773,0.647 -1.160831,1.0608 -1.998144,1.2417 l 0,0.043 c 0.846838,0.1998 1.512881,0.6233 1.998144,1.2702 0.494774,0.6375 0.742168,1.4177 0.742183,2.3408 l 0,4.767 c -1.5e-5,1.0086 0.180765,1.7698 0.542354,2.2836 0.371069,0.5233 0.989547,0.7849 1.855419,0.7849 l 0.884893,0 0,0.6708 -1.926789,0"
       style="font-size:56px;font-style:normal;font-variant:normal;font-weight:normal;font-stretch:normal;text-align:start;line-height:125%;letter-spacing:0px;word-spacing:0px;writing-mode:lr-tb;text-anchor:start;fill:#333333;fill-opacity:1;stroke:none;display:inline;font-family:Liberation Serif;-inkscape-font-specification:Liberation Serif"
       id="path4252"
       inkscape:connector-curvature="0" />
    <path
       inkscape:export-ydpi="300"
       inkscape:export-xdpi="300"
       inkscape:export-filename="/Users/lucacorsato/Documents/o{s}d.png"
       d="m 17.822671,1046.451 0,-0.6708 0.884892,0 c 0.865858,0 1.479581,-0.2617 1.841155,-0.7851 0.371084,-0.5137 0.556618,-1.275 0.556618,-2.2836 l 0,-4.767 c 0,-0.9229 0.24264,-1.7031 0.727903,-2.3407 0.485264,-0.647 1.156062,-1.0704 2.012424,-1.2702 l 0,-0.043 c -0.837327,-0.1808 -1.50337,-0.5994 -1.998159,-1.256 -0.494788,-0.6565 -0.742168,-1.432 -0.742168,-2.3265 l 0,-4.7098 c 0,-1.0086 -0.185534,-1.7698 -0.556618,-2.2836 -0.361574,-0.5233 -0.975297,-0.7849 -1.841155,-0.7849 l -0.884892,0 0,-0.671 1.941054,0 c 1.236942,2e-4 2.164659,0.3617 2.783137,1.0848 0.618478,0.7232 0.927702,1.7556 0.927717,3.0971 l 0,4.1962 c -1.5e-5,2.2074 1.022847,3.3301 3.068586,3.3682 l 0,0.6423 c -1.027632,0.038 -1.798345,0.333 -2.312138,0.8849 -0.504314,0.5518 -0.756463,1.3891 -0.756448,2.5119 l 0,4.2105 c -1.5e-5,1.3225 -0.323519,2.3502 -0.970542,3.0828 -0.637498,0.7422 -1.550935,1.1132 -2.740312,1.1132 l -1.941054,0"
       style="font-size:56px;font-style:normal;font-variant:normal;font-weight:normal;font-stretch:normal;text-align:start;line-height:125%;letter-spacing:0px;word-spacing:0px;writing-mode:lr-tb;text-anchor:start;fill:#666666;fill-opacity:1;stroke:none;display:inline;font-family:Liberation Serif;-inkscape-font-specification:Liberation Serif"
       id="path4254"
       inkscape:connector-curvature="0" />
  </g>
</svg>
