<?xml version="1.0" encoding="UTF-8" standalone="no"?>
<!-- Created with Inkscape (http://www.inkscape.org/) -->

<svg
   xmlns:osb="http://www.openswatchbook.org/uri/2009/osb"
   xmlns:dc="http://purl.org/dc/elements/1.1/"
   xmlns:cc="http://creativecommons.org/ns#"
   xmlns:rdf="http://www.w3.org/1999/02/22-rdf-syntax-ns#"
   xmlns:svg="http://www.w3.org/2000/svg"
   xmlns="http://www.w3.org/2000/svg"
   xmlns:xlink="http://www.w3.org/1999/xlink"
   xmlns:sodipodi="http://sodipodi.sourceforge.net/DTD/sodipodi-0.dtd"
   xmlns:inkscape="http://www.inkscape.org/namespaces/inkscape"
   width="744.09448819"
   height="1052.3622047"
   id="svg2"
   version="1.1"
   inkscape:version="0.48.2 r9819"
   sodipodi:docname="o{s}d_simple.svg">
  <defs
     id="defs4">
    <linearGradient
       id="linearGradient4444"
       osb:paint="solid">
      <stop
         style="stop-color:#002fa7;stop-opacity:1;"
         offset="0"
         id="stop4446" />
    </linearGradient>
    <linearGradient
       inkscape:collect="always"
       xlink:href="#linearGradient4444"
       id="linearGradient4448"
       x1="1481.6096"
       y1="393.59521"
       x2="3401.6096"
       y2="393.59521"
       gradientUnits="userSpaceOnUse" />
    <linearGradient
       inkscape:collect="always"
       xlink:href="#linearGradient4444"
       id="linearGradient4452"
       gradientUnits="userSpaceOnUse"
       x1="1481.6096"
       y1="393.59521"
       x2="3401.6096"
       y2="393.59521"
       gradientTransform="translate(-1761.6116,2283.4524)" />
  </defs>
  <sodipodi:namedview
     id="base"
     pagecolor="#ffffff"
     bordercolor="#666666"
     borderopacity="1.0"
     inkscape:pageopacity="0.0"
     inkscape:pageshadow="2"
     inkscape:zoom="0.64"
     inkscape:cx="677.72028"
     inkscape:cy="379.22928"
     inkscape:document-units="px"
     inkscape:current-layer="layer10"
     showgrid="false"
     inkscape:window-width="1440"
     inkscape:window-height="852"
     inkscape:window-x="0"
     inkscape:window-y="0"
     inkscape:window-maximized="1" />
  <metadata
     id="metadata7">
    <rdf:RDF>
      <cc:Work
         rdf:about="">
        <dc:format>image/svg+xml</dc:format>
        <dc:type
           rdf:resource="http://purl.org/dc/dcmitype/StillImage" />
        <dc:title></dc:title>
      </cc:Work>
    </rdf:RDF>
  </metadata>
  <g
     inkscape:groupmode="layer"
     id="layer10"
     inkscape:label="didascalie"
     style="display:inline" />
  <g
     inkscape:groupmode="layer"
     id="layer2"
     inkscape:label="margine"
     style="display:inline" />
  <g
     inkscape:groupmode="layer"
     id="layer3"
     inkscape:label="sfondo"
     style="display:inline" />
  <g
     inkscape:groupmode="layer"
     id="layer4"
     inkscape:label="open"
     sodipodi:insensitive="true"
     style="display:none" />
  <g
     inkscape:groupmode="layer"
     id="layer5"
     inkscape:label="sensors"
     sodipodi:insensitive="true"
     style="display:none" />
  <g
     inkscape:groupmode="layer"
     id="layer6"
     inkscape:label="data"
     sodipodi:insensitive="true"
     style="display:none" />
  <g
     inkscape:groupmode="layer"
     id="layer7"
     inkscape:label="graffe"
     sodipodi:insensitive="true"
     style="display:none">
    <path
       inkscape:connector-curvature="0"
       id="path3004"
       style="font-size:32px;font-style:normal;font-variant:normal;font-weight:normal;font-stretch:normal;text-align:start;line-height:125%;letter-spacing:0px;word-spacing:0px;writing-mode:lr-tb;text-anchor:start;fill:#000000;fill-opacity:1;stroke:none;font-family:Liberation Serif;-inkscape-font-specification:Liberation Serif"
       d="m 209.18304,686.28632 c -1.3125,-1e-5 -2.32292,-0.40105 -3.03125,-1.20313 -0.69792,-0.80208 -1.04688,-1.93229 -1.04687,-3.39062 l 0,-4.60938 c -1e-5,-1.21874 -0.27605,-2.1302 -0.82813,-2.73437 -0.54167,-0.61458 -1.38542,-0.9427 -2.53125,-0.98438 l 0,-0.70312 c 2.23958,-0.0417 3.35937,-1.27083 3.35938,-3.6875 l 0,-4.59375 c -1e-5,-1.46873 0.33853,-2.59894 1.01562,-3.39063 0.67708,-0.79164 1.69791,-1.18748 3.0625,-1.1875 l 2.10938,0 0,0.73438 -0.96875,0 c -0.94793,2e-5 -1.62501,0.28648 -2.03125,0.85937 -0.39584,0.56252 -0.59376,1.39585 -0.59375,2.5 l 0,5.15625 c -1e-5,0.9896 -0.27084,1.84376 -0.8125,2.5625 -0.54167,0.70834 -1.27084,1.16147 -2.1875,1.35938 l 0,0.0469 c 0.92708,0.21876 1.65624,0.6823 2.1875,1.39063 0.54166,0.69792 0.81249,1.55209 0.8125,2.5625 l 0,5.21875 c -1e-5,1.10416 0.19791,1.93749 0.59375,2.5 0.40624,0.57291 1.08332,0.85937 2.03125,0.85937 l 0.96875,0 0,0.73438 -2.10938,0" />
    <path
       inkscape:connector-curvature="0"
       id="path3006"
       style="font-size:32px;font-style:normal;font-variant:normal;font-weight:normal;font-stretch:normal;text-align:start;line-height:125%;letter-spacing:0px;word-spacing:0px;writing-mode:lr-tb;text-anchor:start;fill:#000000;fill-opacity:1;stroke:none;font-family:Liberation Serif;-inkscape-font-specification:Liberation Serif"
       d="m 217.12054,686.28632 0,-0.73438 0.96875,0 c 0.94792,0 1.61979,-0.28646 2.01563,-0.85937 0.40624,-0.56251 0.60937,-1.39584 0.60937,-2.5 l 0,-5.21875 c 0,-1.01041 0.26562,-1.86458 0.79688,-2.5625 0.53124,-0.70833 1.26562,-1.17187 2.20312,-1.39063 l 0,-0.0469 c -0.91667,-0.19791 -1.64584,-0.65624 -2.1875,-1.375 -0.54167,-0.71874 -0.8125,-1.5677 -0.8125,-2.54688 l 0,-5.15625 c 0,-1.10415 -0.20313,-1.93748 -0.60937,-2.5 -0.39584,-0.57289 -1.06771,-0.85935 -2.01563,-0.85937 l -0.96875,0 0,-0.73438 2.125,0 c 1.35416,2e-5 2.36979,0.39586 3.04688,1.1875 0.67707,0.79169 1.01562,1.9219 1.01562,3.39063 l 0,4.59375 c 0,2.41667 1.11979,3.64584 3.35938,3.6875 l 0,0.70312 c -1.12501,0.0417 -1.96876,0.36459 -2.53125,0.96875 -0.55209,0.60417 -0.82813,1.52084 -0.82813,2.75 l 0,4.60938 c 0,1.44791 -0.35417,2.57291 -1.0625,3.375 -0.69792,0.81249 -1.69792,1.21874 -3,1.21875 l -2.125,0" />
  </g>
  <g
     inkscape:label="scritta"
     inkscape:groupmode="layer"
     id="layer1"
     style="display:inline" />
  <g
     inkscape:groupmode="layer"
     id="layer9"
     inkscape:label="rettangoli"
     style="display:inline" />
  <g
     inkscape:groupmode="layer"
     id="layer8"
     inkscape:label="crocette"
     style="display:inline" />
  <g
     inkscape:groupmode="layer"
     id="layer11"
     inkscape:label="logo"
     style="display:inline">
    <path
       inkscape:connector-curvature="0"
       id="path4292"
       style="font-size:28px;font-style:normal;font-variant:normal;font-weight:bold;font-stretch:normal;text-align:start;line-height:125%;letter-spacing:0px;word-spacing:0px;writing-mode:lr-tb;text-anchor:start;fill:#1a1a1a;fill-opacity:1;stroke:none;display:inline;font-family:Open Sans;-inkscape-font-specification:Open Sans Bold"
       d="m 509.30457,804.5229 c -2e-5,2.93829 0.4778,5.15952 1.43353,6.66391 0.97341,1.50414 2.54864,2.25652 4.72563,2.25652 2.15928,0 3.70799,-0.74341 4.64607,-2.22992 0.95575,-1.50458 1.43364,-3.73457 1.43365,-6.69051 -10e-6,-2.9381 -0.4779,-5.1415 -1.43365,-6.61054 -0.95582,-1.46883 -2.52217,-2.20356 -4.6991,-2.20356 -2.15933,0 -3.71682,0.73473 -4.6726,2.20356 -0.95573,1.45136 -1.43355,3.65476 -1.43353,6.61054 m 20.52198,0 c -4e-5,4.83182 -1.27432,8.61064 -3.82297,11.33628 -2.54877,2.72583 -6.09725,4.08841 -10.64599,4.08841 -2.84947,0 -5.36283,-0.61924 -7.53978,-1.85815 -2.17698,-1.25689 -3.84946,-3.05317 -5.0178,-5.38952 -1.16808,-2.33617 -1.75214,-5.06193 -1.75214,-8.17702 0,-4.84933 1.26539,-8.61921 3.79641,-11.30961 2.53103,-2.69024 6.08859,-4.03543 10.67252,-4.03543 2.84965,0 5.36276,0.61942 7.53998,1.85843 2.17693,1.23904 3.84944,3.01767 5.01762,5.33642 1.16805,2.31845 1.75211,5.03523 1.75215,8.15019"
       inkscape:export-filename="/Users/lucacorsato/Documents/o{s}d/o{s}d_semplice.png"
       inkscape:export-xdpi="300"
       inkscape:export-ydpi="300" />
    <path
       d="m 572.26107,811.47877 c -2e-5,2.70778 -1.0087,4.7964 -3.02642,6.26547 -2.01773,1.46922 -4.84952,2.20335 -8.49552,2.20335 -3.85854,0 -6.86725,-0.61028 -9.02654,-1.83171 l 0,-4.08852 c 1.39812,0.70791 2.89373,1.2655 4.4866,1.67268 1.61062,0.40689 3.15931,0.6104 4.64609,0.6104 2.30083,0 4.07085,-0.36273 5.30971,-1.08833 1.23887,-0.74338 1.85825,-1.8673 1.85827,-3.37162 -2e-5,-1.13271 -0.49557,-2.09745 -1.48654,-2.89407 -0.97346,-0.8139 -2.88505,-1.76976 -5.73455,-2.86705 -2.70793,-1.00876 -4.63717,-1.88503 -5.78759,-2.62833 -1.1327,-0.7609 -1.98233,-1.61944 -2.5487,-2.57525 -0.54868,-0.95584 -0.82308,-2.09737 -0.82306,-3.42472 -2e-5,-2.37167 0.9646,-4.23886 2.8939,-5.60171 1.92925,-1.38073 4.57523,-2.07081 7.93799,-2.07081 3.13273,0 6.19475,0.63705 9.18577,1.91146 l -1.5664,3.58409 c -2.92023,-1.20353 -5.56629,-1.80523 -7.93798,-1.80543 -2.08858,2e-4 -3.66377,0.32765 -4.72571,0.9824 -1.06195,0.65487 -1.5929,1.55756 -1.5929,2.70786 0,0.77896 0.19482,1.44262 0.58405,1.9912 0.40711,0.54878 1.05311,1.07092 1.93809,1.56653 0.88502,0.49558 2.58412,1.21219 5.09743,2.15035 3.45123,1.2565 5.77872,2.52208 6.98225,3.79647 1.22116,1.27417 1.83174,2.876 1.83176,4.80529"
       style="font-size:28px;font-style:normal;font-variant:normal;font-weight:normal;font-stretch:normal;text-align:start;line-height:125%;letter-spacing:0px;word-spacing:0px;writing-mode:lr-tb;text-anchor:start;fill:#4d4d4d;fill-opacity:1;stroke:none;display:inline;font-family:Open Sans;-inkscape-font-specification:Open Sans"
       id="path4294"
       inkscape:connector-curvature="0"
       inkscape:export-filename="/Users/lucacorsato/Documents/o{s}d/o{s}d_semplice.png"
       inkscape:export-xdpi="300"
       inkscape:export-ydpi="300" />
    <path
       d="m 605.45991,819.94759 c -3.4868,0 -6.2301,-1.35397 -8.23015,-4.06188 -1.98234,-2.70791 -2.97339,-6.46011 -2.97339,-11.25664 0,-4.86718 1.0087,-8.65476 3.02648,-11.36261 2.03538,-2.72572 4.83179,-4.0886 8.3894,-4.0886 3.73445,0 6.58412,1.45137 8.5486,4.35394 l 0.26557,0 c -0.4071,-2.21229 -0.61058,-4.18588 -0.61054,-5.9202 l 0,-9.50457 8.12381,0 0,41.30973 -6.21243,0 -1.56641,-3.84949 -0.34497,0 c -1.84084,2.92025 -4.64606,4.38032 -8.41597,4.38032 m 2.84065,-6.45121 c 2.07077,0 3.58407,-0.60175 4.53986,-1.80508 0.97332,-1.20366 1.50428,-3.24809 1.59295,-6.13303 l 0,-0.87606 c -2e-5,-3.18572 -0.49558,-5.46885 -1.48681,-6.8496 -0.97345,-1.38035 -2.56636,-2.07082 -4.77867,-2.07082 -1.80546,0 -3.21243,0.77004 -4.22127,2.30995 -0.99117,1.52201 -1.48675,3.74329 -1.48674,6.66347 -2e-5,2.92047 0.50445,5.11508 1.51326,6.58416 1.00886,1.45141 2.45123,2.17701 4.3274,2.17701"
       style="font-size:28px;font-style:normal;font-variant:normal;font-weight:bold;font-stretch:normal;text-align:start;line-height:125%;letter-spacing:0px;word-spacing:0px;writing-mode:lr-tb;text-anchor:start;fill:#808080;fill-opacity:1;stroke:none;display:inline;font-family:Open Sans;-inkscape-font-specification:Open Sans Bold"
       id="path4296"
       inkscape:connector-curvature="0"
       inkscape:export-filename="/Users/lucacorsato/Documents/o{s}d/o{s}d_semplice.png"
       inkscape:export-xdpi="300"
       inkscape:export-ydpi="300" />
    <path
       inkscape:connector-curvature="0"
       id="path4298"
       style="font-size:56px;font-style:normal;font-variant:normal;font-weight:normal;font-stretch:normal;text-align:start;line-height:125%;letter-spacing:0px;word-spacing:0px;writing-mode:lr-tb;text-anchor:start;fill:#ea5480;fill-opacity:1;stroke:none;display:inline;font-family:Liberation Serif;-inkscape-font-specification:Liberation Serif"
       d="m 554.86725,849.65798 c -4.46012,-2.3e-4 -7.89383,-1.363 -10.30077,-4.08868 -2.37181,-2.72584 -3.55762,-6.56627 -3.5576,-11.52202 l 0,-15.66372 c -2e-5,-4.14149 -0.93808,-7.23907 -2.81404,-9.29216 -1.84084,-2.08845 -4.70801,-3.20345 -8.60194,-3.34498 l 0,-2.38933 c 7.61074,-0.14187 11.41596,-4.31862 11.41598,-12.53097 l 0,-15.61075 c -2e-5,-4.99106 1.15041,-8.83157 3.45126,-11.52199 2.301,-2.69018 5.76987,-4.0354 10.40711,-4.0354 l 7.16825,0 0,2.49571 -3.2922,0 c -3.22129,0 -5.52208,0.97347 -6.9026,2.9202 -1.34507,1.91164 -2.01762,4.74336 -2.0176,8.49559 l 0,17.52199 c -2e-5,3.363 -0.92044,6.26558 -2.76117,8.7081 -1.84063,2.40699 -4.31858,3.94674 -7.43365,4.6195 l 0,0.15919 c 3.15047,0.74328 5.6284,2.31848 7.43365,4.72566 1.84073,2.37148 2.76115,5.2742 2.76117,8.70796 l 0,17.73445 c -2e-5,3.75215 0.67253,6.58401 2.0176,8.49567 1.38052,1.9466 3.68131,2.92014 6.9026,2.92014 l 3.2922,0 0,2.49561 -7.16825,0"
       inkscape:export-filename="/Users/lucacorsato/Documents/o{s}d/o{s}d_semplice.png"
       inkscape:export-xdpi="300"
       inkscape:export-ydpi="300" />
    <path
       inkscape:connector-curvature="0"
       id="path4300"
       style="font-size:56px;font-style:normal;font-variant:normal;font-weight:normal;font-stretch:normal;text-align:start;line-height:125%;letter-spacing:0px;word-spacing:0px;writing-mode:lr-tb;text-anchor:start;fill:#002fa7;fill-opacity:1;stroke:none;display:inline;font-family:Liberation Serif;-inkscape-font-specification:Liberation Serif"
       d="m 561.85493,849.65798 0,-2.49584 3.29196,0 c 3.22122,0 5.50433,-0.97354 6.84957,-2.92014 1.38042,-1.91166 2.07083,-4.74352 2.07085,-8.49567 l 0,-17.73445 c -2e-5,-3.43364 0.90246,-6.33628 2.70792,-8.70796 1.80522,-2.40718 4.3008,-3.98238 7.48668,-4.72566 l 0,-0.15919 c -3.11506,-0.67256 -5.59304,-2.23013 -7.4336,-4.67245 -1.84083,-2.44259 -2.76102,-5.32745 -2.761,-8.65515 l 0,-17.52199 c -2e-5,-3.75223 -0.69043,-6.58395 -2.07085,-8.49559 -1.34524,-1.94673 -3.62835,-2.9202 -6.84957,-2.9202 l -3.29196,0 0,-2.49571 7.22112,0 c 4.60177,2.1e-4 8.05324,1.34543 10.35406,4.0356 2.30075,2.69022 3.45114,6.53092 3.45118,11.52179 l 0,15.61075 c -4e-5,8.21235 3.80548,12.3893 11.416,12.53097 l 0,2.38933 c -3.82299,0.14174 -6.69034,1.23882 -8.60166,3.29196 -1.87624,2.05317 -2.81438,5.1682 -2.81434,9.34518 l 0,15.66372 c -4e-5,4.92039 -1.2035,8.74338 -3.61044,11.46894 -2.37178,2.76104 -5.76991,4.14176 -10.1948,4.14176 l -7.22112,0"
       inkscape:export-filename="/Users/lucacorsato/Documents/o{s}d/o{s}d_semplice.png"
       inkscape:export-xdpi="300"
       inkscape:export-ydpi="300" />
  </g>
</svg>
