<?xml version="1.0" encoding="UTF-8" standalone="no"?>
<!-- Created with Inkscape (http://www.inkscape.org/) -->

<svg
   xmlns:osb="http://www.openswatchbook.org/uri/2009/osb"
   xmlns:dc="http://purl.org/dc/elements/1.1/"
   xmlns:cc="http://creativecommons.org/ns#"
   xmlns:rdf="http://www.w3.org/1999/02/22-rdf-syntax-ns#"
   xmlns:svg="http://www.w3.org/2000/svg"
   xmlns="http://www.w3.org/2000/svg"
   xmlns:xlink="http://www.w3.org/1999/xlink"
   xmlns:sodipodi="http://sodipodi.sourceforge.net/DTD/sodipodi-0.dtd"
   xmlns:inkscape="http://www.inkscape.org/namespaces/inkscape"
   width="36"
   height="36"
   id="svg2"
   version="1.1"
   inkscape:version="0.48.2 r9819"
   sodipodi:docname="o{s}d_logo.svg">
  <defs
     id="defs4">
    <linearGradient
       id="linearGradient4444"
       osb:paint="solid">
      <stop
         style="stop-color:#002fa7;stop-opacity:1;"
         offset="0"
         id="stop4446" />
    </linearGradient>
    <linearGradient
       inkscape:collect="always"
       xlink:href="#linearGradient4444"
       id="linearGradient4448"
       x1="1481.6096"
       y1="393.59521"
       x2="3401.6096"
       y2="393.59521"
       gradientUnits="userSpaceOnUse" />
    <linearGradient
       inkscape:collect="always"
       xlink:href="#linearGradient4444"
       id="linearGradient4452"
       gradientUnits="userSpaceOnUse"
       x1="1481.6096"
       y1="393.59521"
       x2="3401.6096"
       y2="393.59521"
       gradientTransform="translate(-1761.6116,2283.4524)" />
  </defs>
  <sodipodi:namedview
     id="base"
     pagecolor="#ffffff"
     bordercolor="#666666"
     borderopacity="1.0"
     inkscape:pageopacity="0.0"
     inkscape:pageshadow="2"
     inkscape:zoom="3.6203867"
     inkscape:cx="12.742026"
     inkscape:cy="50.938558"
     inkscape:document-units="px"
     inkscape:current-layer="layer10"
     showgrid="false"
     inkscape:window-width="1440"
     inkscape:window-height="852"
     inkscape:window-x="0"
     inkscape:window-y="0"
     inkscape:window-maximized="1" />
  <metadata
     id="metadata7">
    <rdf:RDF>
      <cc:Work
         rdf:about="">
        <dc:format>image/svg+xml</dc:format>
        <dc:type
           rdf:resource="http://purl.org/dc/dcmitype/StillImage" />
        <dc:title></dc:title>
      </cc:Work>
    </rdf:RDF>
  </metadata>
  <g
     inkscape:groupmode="layer"
     id="layer10"
     inkscape:label="didascalie"
     style="display:inline"
     transform="translate(0,-1016.3622)" />
  <g
     inkscape:groupmode="layer"
     id="layer2"
     inkscape:label="margine"
     style="display:inline"
     transform="translate(0,-1016.3622)" />
  <g
     inkscape:groupmode="layer"
     id="layer3"
     inkscape:label="sfondo"
     style="display:inline"
     transform="translate(0,-1016.3622)" />
  <g
     inkscape:groupmode="layer"
     id="layer4"
     inkscape:label="open"
     sodipodi:insensitive="true"
     style="display:none"
     transform="translate(0,-1016.3622)" />
  <g
     inkscape:groupmode="layer"
     id="layer5"
     inkscape:label="sensors"
     sodipodi:insensitive="true"
     style="display:none"
     transform="translate(0,-1016.3622)" />
  <g
     inkscape:groupmode="layer"
     id="layer6"
     inkscape:label="data"
     sodipodi:insensitive="true"
     style="display:none"
     transform="translate(0,-1016.3622)" />
  <g
     inkscape:groupmode="layer"
     id="layer7"
     inkscape:label="graffe"
     sodipodi:insensitive="true"
     style="display:none"
     transform="translate(0,-1016.3622)">
    <path
       inkscape:connector-curvature="0"
       id="path3004"
       style="font-size:32px;font-style:normal;font-variant:normal;font-weight:normal;font-stretch:normal;text-align:start;line-height:125%;letter-spacing:0px;word-spacing:0px;writing-mode:lr-tb;text-anchor:start;fill:#000000;fill-opacity:1;stroke:none;font-family:Liberation Serif;-inkscape-font-specification:Liberation Serif"
       d="m 209.18304,686.28632 c -1.3125,-1e-5 -2.32292,-0.40105 -3.03125,-1.20313 -0.69792,-0.80208 -1.04688,-1.93229 -1.04687,-3.39062 l 0,-4.60938 c -1e-5,-1.21874 -0.27605,-2.1302 -0.82813,-2.73437 -0.54167,-0.61458 -1.38542,-0.9427 -2.53125,-0.98438 l 0,-0.70312 c 2.23958,-0.0417 3.35937,-1.27083 3.35938,-3.6875 l 0,-4.59375 c -1e-5,-1.46873 0.33853,-2.59894 1.01562,-3.39063 0.67708,-0.79164 1.69791,-1.18748 3.0625,-1.1875 l 2.10938,0 0,0.73438 -0.96875,0 c -0.94793,2e-5 -1.62501,0.28648 -2.03125,0.85937 -0.39584,0.56252 -0.59376,1.39585 -0.59375,2.5 l 0,5.15625 c -1e-5,0.9896 -0.27084,1.84376 -0.8125,2.5625 -0.54167,0.70834 -1.27084,1.16147 -2.1875,1.35938 l 0,0.0469 c 0.92708,0.21876 1.65624,0.6823 2.1875,1.39063 0.54166,0.69792 0.81249,1.55209 0.8125,2.5625 l 0,5.21875 c -1e-5,1.10416 0.19791,1.93749 0.59375,2.5 0.40624,0.57291 1.08332,0.85937 2.03125,0.85937 l 0.96875,0 0,0.73438 -2.10938,0" />
    <path
       inkscape:connector-curvature="0"
       id="path3006"
       style="font-size:32px;font-style:normal;font-variant:normal;font-weight:normal;font-stretch:normal;text-align:start;line-height:125%;letter-spacing:0px;word-spacing:0px;writing-mode:lr-tb;text-anchor:start;fill:#000000;fill-opacity:1;stroke:none;font-family:Liberation Serif;-inkscape-font-specification:Liberation Serif"
       d="m 217.12054,686.28632 0,-0.73438 0.96875,0 c 0.94792,0 1.61979,-0.28646 2.01563,-0.85937 0.40624,-0.56251 0.60937,-1.39584 0.60937,-2.5 l 0,-5.21875 c 0,-1.01041 0.26562,-1.86458 0.79688,-2.5625 0.53124,-0.70833 1.26562,-1.17187 2.20312,-1.39063 l 0,-0.0469 c -0.91667,-0.19791 -1.64584,-0.65624 -2.1875,-1.375 -0.54167,-0.71874 -0.8125,-1.5677 -0.8125,-2.54688 l 0,-5.15625 c 0,-1.10415 -0.20313,-1.93748 -0.60937,-2.5 -0.39584,-0.57289 -1.06771,-0.85935 -2.01563,-0.85937 l -0.96875,0 0,-0.73438 2.125,0 c 1.35416,2e-5 2.36979,0.39586 3.04688,1.1875 0.67707,0.79169 1.01562,1.9219 1.01562,3.39063 l 0,4.59375 c 0,2.41667 1.11979,3.64584 3.35938,3.6875 l 0,0.70312 c -1.12501,0.0417 -1.96876,0.36459 -2.53125,0.96875 -0.55209,0.60417 -0.82813,1.52084 -0.82813,2.75 l 0,4.60938 c 0,1.44791 -0.35417,2.57291 -1.0625,3.375 -0.69792,0.81249 -1.69792,1.21874 -3,1.21875 l -2.125,0" />
  </g>
  <g
     inkscape:label="scritta"
     inkscape:groupmode="layer"
     id="layer1"
     style="display:inline"
     transform="translate(0,-1016.3622)" />
  <g
     inkscape:groupmode="layer"
     id="layer9"
     inkscape:label="rettangoli"
     style="display:inline"
     transform="translate(0,-1016.3622)">
    <rect
       inkscape:export-ydpi="300"
       inkscape:export-xdpi="300"
       inkscape:export-filename="/Users/lucacorsato/Documents/o{s}d.png"
       ry="0"
       y="1017.8256"
       x="26.532249"
       height="33.058857"
       width="7.4573116"
       id="rect4214"
       style="fill:#f9f9f9;fill-opacity:1;stroke:none;display:inline" />
    <rect
       inkscape:export-ydpi="300"
       inkscape:export-xdpi="300"
       inkscape:export-filename="/Users/lucacorsato/Documents/o{s}d.png"
       style="fill:#f2f2f2;fill-opacity:1;stroke:none;display:inline"
       id="rect4216"
       width="8.7205429"
       height="27.147621"
       x="17.82267"
       y="1020.7811"
       ry="0" />
    <rect
       inkscape:export-ydpi="300"
       inkscape:export-xdpi="300"
       inkscape:export-filename="/Users/lucacorsato/Documents/o{s}d.png"
       ry="0"
       y="1019.3032"
       x="9.1505814"
       height="30.103233"
       width="8.7205429"
       id="rect4218"
       style="fill:#ececec;fill-opacity:1;stroke:none;display:inline" />
    <rect
       inkscape:export-ydpi="300"
       inkscape:export-xdpi="300"
       inkscape:export-filename="/Users/lucacorsato/Documents/o{s}d.png"
       style="fill:#e6e6e6;fill-opacity:1;stroke:none;display:inline"
       id="rect4220"
       width="7.7357326"
       height="33.058857"
       x="1.4777883"
       y="1017.8256"
       ry="0" />
  </g>
  <g
     inkscape:groupmode="layer"
     id="layer8"
     inkscape:label="crocette"
     style="display:inline"
     transform="translate(0,-1016.3622)">
    <path
       inkscape:export-ydpi="300"
       inkscape:export-xdpi="300"
       inkscape:export-filename="/Users/lucacorsato/Documents/o{s}d.png"
       inkscape:connector-curvature="0"
       id="path4222"
       d="m 33.98985,1016.5097 0,2.6613"
       style="fill:none;stroke:#002fa7;stroke-width:0.29500654;stroke-linecap:round;stroke-linejoin:miter;stroke-miterlimit:4;stroke-opacity:1;stroke-dasharray:none" />
    <path
       inkscape:export-ydpi="300"
       inkscape:export-xdpi="300"
       inkscape:export-filename="/Users/lucacorsato/Documents/o{s}d.png"
       style="fill:none;stroke:#002fa7;stroke-width:0.29500654;stroke-linecap:round;stroke-linejoin:miter;stroke-miterlimit:4;stroke-opacity:1;stroke-dasharray:none"
       d="m 32.659277,1017.8403 2.66116,0"
       id="path4224"
       inkscape:connector-curvature="0" />
    <path
       inkscape:export-ydpi="300"
       inkscape:export-xdpi="300"
       inkscape:export-filename="/Users/lucacorsato/Documents/o{s}d.png"
       transform="matrix(0.24746251,0,0,0.24746251,-2.784077,830.07913)"
       d="m 151.08883,758.74713 c 0,1.37294 -1.11299,2.48592 -2.48592,2.48592 -1.37294,0 -2.48593,-1.11298 -2.48593,-2.48592 0,-1.37294 1.11299,-2.48592 2.48593,-2.48592 1.37293,0 2.48592,1.11298 2.48592,2.48592 z"
       sodipodi:ry="2.4859223"
       sodipodi:rx="2.4859223"
       sodipodi:cy="758.74713"
       sodipodi:cx="148.60291"
       id="path4226"
       style="fill:none;stroke:#002fa7;stroke-width:1;stroke-linecap:round;stroke-linejoin:round;stroke-miterlimit:4;stroke-opacity:1;stroke-dasharray:none;stroke-dashoffset:16.33108387"
       sodipodi:type="arc" />
    <path
       inkscape:export-ydpi="300"
       inkscape:export-xdpi="300"
       inkscape:export-filename="/Users/lucacorsato/Documents/o{s}d.png"
       style="fill:none;stroke:#ea5480;stroke-width:0.29500654;stroke-linecap:round;stroke-linejoin:miter;stroke-miterlimit:4;stroke-opacity:1;stroke-dasharray:none"
       d="m 1.4780911,1016.5097 0,2.6613"
       id="path4228"
       inkscape:connector-curvature="0" />
    <path
       inkscape:export-ydpi="300"
       inkscape:export-xdpi="300"
       inkscape:export-filename="/Users/lucacorsato/Documents/o{s}d.png"
       inkscape:connector-curvature="0"
       id="path4230"
       d="m 0.14750329,1017.8403 2.66116071,0"
       style="fill:none;stroke:#ea5480;stroke-width:0.29500654;stroke-linecap:round;stroke-linejoin:miter;stroke-miterlimit:4;stroke-opacity:1;stroke-dasharray:none" />
    <path
       inkscape:export-ydpi="300"
       inkscape:export-xdpi="300"
       inkscape:export-filename="/Users/lucacorsato/Documents/o{s}d.png"
       sodipodi:type="arc"
       style="fill:none;stroke:#ea5480;stroke-width:1;stroke-linecap:round;stroke-linejoin:round;stroke-miterlimit:4;stroke-opacity:1;stroke-dasharray:none;stroke-dashoffset:16.33108387"
       id="path4232"
       sodipodi:cx="148.60291"
       sodipodi:cy="758.74713"
       sodipodi:rx="2.4859223"
       sodipodi:ry="2.4859223"
       d="m 151.08883,758.74713 c 0,1.37294 -1.11299,2.48592 -2.48592,2.48592 -1.37294,0 -2.48593,-1.11298 -2.48593,-2.48592 0,-1.37294 1.11299,-2.48592 2.48593,-2.48592 1.37293,0 2.48592,1.11298 2.48592,2.48592 z"
       transform="matrix(0.24746251,0,0,0.24746251,-35.295834,830.07913)" />
    <path
       inkscape:export-ydpi="300"
       inkscape:export-xdpi="300"
       inkscape:export-filename="/Users/lucacorsato/Documents/o{s}d.png"
       style="fill:none;stroke:#002fa7;stroke-width:0.29500654;stroke-linecap:round;stroke-linejoin:miter;stroke-miterlimit:4;stroke-opacity:1;stroke-dasharray:none"
       d="m 33.98985,1049.5536 0,2.6611"
       id="path4234"
       inkscape:connector-curvature="0" />
    <path
       inkscape:export-ydpi="300"
       inkscape:export-xdpi="300"
       inkscape:export-filename="/Users/lucacorsato/Documents/o{s}d.png"
       inkscape:connector-curvature="0"
       id="path4236"
       d="m 32.659277,1050.8841 2.66116,0"
       style="fill:none;stroke:#002fa7;stroke-width:0.29500654;stroke-linecap:round;stroke-linejoin:miter;stroke-miterlimit:4;stroke-opacity:1;stroke-dasharray:none" />
    <path
       inkscape:export-ydpi="300"
       inkscape:export-xdpi="300"
       inkscape:export-filename="/Users/lucacorsato/Documents/o{s}d.png"
       sodipodi:type="arc"
       style="fill:none;stroke:#002fa7;stroke-width:1;stroke-linecap:round;stroke-linejoin:round;stroke-miterlimit:4;stroke-opacity:1;stroke-dasharray:none;stroke-dashoffset:16.33108387"
       id="path4238"
       sodipodi:cx="148.60291"
       sodipodi:cy="758.74713"
       sodipodi:rx="2.4859223"
       sodipodi:ry="2.4859223"
       d="m 151.08883,758.74713 c 0,1.37294 -1.11299,2.48592 -2.48592,2.48592 -1.37294,0 -2.48593,-1.11298 -2.48593,-2.48592 0,-1.37294 1.11299,-2.48592 2.48593,-2.48592 1.37293,0 2.48592,1.11298 2.48592,2.48592 z"
       transform="matrix(0.24746251,0,0,0.24746251,-2.784077,863.1229)" />
    <path
       inkscape:export-ydpi="300"
       inkscape:export-xdpi="300"
       inkscape:export-filename="/Users/lucacorsato/Documents/o{s}d.png"
       inkscape:connector-curvature="0"
       id="path4240"
       d="m 1.4780911,1049.5536 0,2.6611"
       style="fill:none;stroke:#ea5480;stroke-width:0.29500654;stroke-linecap:round;stroke-linejoin:miter;stroke-miterlimit:4;stroke-opacity:1;stroke-dasharray:none" />
    <path
       inkscape:export-ydpi="300"
       inkscape:export-xdpi="300"
       inkscape:export-filename="/Users/lucacorsato/Documents/o{s}d.png"
       style="fill:none;stroke:#ea5480;stroke-width:0.29500654;stroke-linecap:round;stroke-linejoin:miter;stroke-miterlimit:4;stroke-opacity:1;stroke-dasharray:none"
       d="m 0.14750329,1050.8841 2.66116071,0"
       id="path4242"
       inkscape:connector-curvature="0" />
    <path
       inkscape:export-ydpi="300"
       inkscape:export-xdpi="300"
       inkscape:export-filename="/Users/lucacorsato/Documents/o{s}d.png"
       transform="matrix(0.24746251,0,0,0.24746251,-35.295834,863.1229)"
       d="m 151.08883,758.74713 c 0,1.37294 -1.11299,2.48592 -2.48592,2.48592 -1.37294,0 -2.48593,-1.11298 -2.48593,-2.48592 0,-1.37294 1.11299,-2.48592 2.48593,-2.48592 1.37293,0 2.48592,1.11298 2.48592,2.48592 z"
       sodipodi:ry="2.4859223"
       sodipodi:rx="2.4859223"
       sodipodi:cy="758.74713"
       sodipodi:cx="148.60291"
       id="path4244"
       style="fill:none;stroke:#ea5480;stroke-width:1;stroke-linecap:round;stroke-linejoin:round;stroke-miterlimit:4;stroke-opacity:1;stroke-dasharray:none;stroke-dashoffset:16.33108387"
       sodipodi:type="arc" />
  </g>
  <g
     inkscape:groupmode="layer"
     id="layer11"
     inkscape:label="logo"
     style="display:inline"
     transform="translate(0,-1016.3622)">
    <path
       inkscape:export-ydpi="300"
       inkscape:export-xdpi="300"
       inkscape:export-filename="/Users/lucacorsato/Documents/o{s}d.png"
       d="m 3.6971877,1034.3187 c 0,0.7898 0.1283997,1.3869 0.3853493,1.7912 0.2616595,0.4044 0.6850789,0.6066 1.2702579,0.6066 0.5804091,0 0.9967035,-0.1998 1.248853,-0.5994 0.2568897,-0.4045 0.3853495,-1.0039 0.3853495,-1.7984 0,-0.7897 -0.1283998,-1.3821 -0.3853495,-1.777 -0.2569195,-0.3947 -0.6779539,-0.5922 -1.2631179,-0.5922 -0.5804241,0 -0.9990884,0.1975 -1.255993,0.5922 -0.2569046,0.3903 -0.3853493,0.9825 -0.3853493,1.777 m 5.5163314,0 c -1.52e-5,1.2989 -0.3425551,2.3144 -1.0276188,3.0472 -0.6850935,0.7327 -1.6389722,1.099 -2.8616503,1.099 -0.7659588,0 -1.4415277,-0.1665 -2.0266918,-0.4995 -0.585179,-0.3378 -1.0347583,-0.8207 -1.3487527,-1.4487 -0.3139946,-0.6279 -0.4709993,-1.3607 -0.4709993,-2.198 0,-1.3036 0.3401694,-2.317 1.0204933,-3.04 0.6803089,-0.7233 1.6365724,-1.0847 2.8687605,-1.0847 0.7659587,0 1.4415276,0.1665 2.0267068,0.4995 0.5851636,0.333 1.0347434,0.8112 1.3487525,1.4344 0.3139946,0.6232 0.4709846,1.3534 0.4709998,2.1908"
       style="font-size:28px;font-style:normal;font-variant:normal;font-weight:bold;font-stretch:normal;text-align:start;line-height:125%;letter-spacing:0px;word-spacing:0px;writing-mode:lr-tb;text-anchor:start;fill:#1a1a1a;fill-opacity:1;stroke:none;display:inline;font-family:Open Sans;-inkscape-font-specification:Open Sans Bold"
       id="path4246"
       inkscape:connector-curvature="0" />
    <path
       inkscape:export-ydpi="300"
       inkscape:export-xdpi="300"
       inkscape:export-filename="/Users/lucacorsato/Documents/o{s}d.png"
       inkscape:connector-curvature="0"
       id="path4248"
       style="font-size:28px;font-style:normal;font-variant:normal;font-weight:normal;font-stretch:normal;text-align:start;line-height:125%;letter-spacing:0px;word-spacing:0px;writing-mode:lr-tb;text-anchor:start;fill:#4d4d4d;fill-opacity:1;stroke:none;display:inline;font-family:Open Sans;-inkscape-font-specification:Open Sans"
       d="m 20.619891,1036.1885 c 0,0.7278 -0.271184,1.2892 -0.813524,1.6839 -0.542354,0.3951 -1.303558,0.5925 -2.283611,0.5925 -1.037129,0 -1.845912,-0.1641 -2.426321,-0.4926 l 0,-1.0989 c 0.375839,0.1905 0.777854,0.3402 1.206028,0.4497 0.432929,0.1094 0.849208,0.1641 1.248853,0.1641 0.618464,0 1.094218,-0.098 1.427248,-0.2925 0.333014,-0.1998 0.499528,-0.502 0.499528,-0.9063 0,-0.3045 -0.1332,-0.5639 -0.399629,-0.7779 -0.261659,-0.2189 -0.775468,-0.4758 -1.541427,-0.7708 -0.727904,-0.2711 -1.246467,-0.5067 -1.555708,-0.7065 -0.304484,-0.2045 -0.532829,-0.4352 -0.685078,-0.6923 -0.14745,-0.2567 -0.221221,-0.5636 -0.221221,-0.9205 0,-0.6374 0.259275,-1.1394 0.777855,-1.5057 0.518564,-0.371 1.229817,-0.5566 2.133732,-0.5566 0.842082,0 1.665132,0.1712 2.469145,0.5138 l -0.421034,0.9633 c -0.784993,-0.3234 -1.496248,-0.4851 -2.133747,-0.4851 -0.561389,0 -0.984793,0.088 -1.270242,0.2639 -0.285465,0.1762 -0.42819,0.4187 -0.42819,0.7279 0,0.2094 0.05235,0.3879 0.157004,0.5353 0.10935,0.1469 0.283066,0.2879 0.52095,0.4211 0.237869,0.1335 0.694589,0.3258 1.370158,0.5779 0.927718,0.3377 1.553322,0.6779 1.876842,1.0206 0.328259,0.3424 0.492389,0.7731 0.492389,1.2917" />
    <path
       inkscape:export-ydpi="300"
       inkscape:export-xdpi="300"
       inkscape:export-filename="/Users/lucacorsato/Documents/o{s}d.png"
       inkscape:connector-curvature="0"
       id="path4250"
       style="font-size:28px;font-style:normal;font-variant:normal;font-weight:bold;font-stretch:normal;text-align:start;line-height:125%;letter-spacing:0px;word-spacing:0px;writing-mode:lr-tb;text-anchor:start;fill:#808080;fill-opacity:1;stroke:none;display:inline;font-family:Open Sans;-inkscape-font-specification:Open Sans Bold"
       d="m 29.543691,1038.4649 c -0.937228,0 -1.674642,-0.3639 -2.212241,-1.092 -0.532845,-0.7277 -0.799259,-1.7363 -0.799259,-3.0258 0,-1.3082 0.27117,-2.3263 0.813524,-3.0542 0.547124,-0.7326 1.298803,-1.0989 2.255067,-1.0989 1.003828,0 1.769787,0.39 2.297876,1.1703 l 0.0714,0 c -0.109351,-0.5947 -0.164145,-1.1251 -0.16413,-1.5913 l 0,-2.5548 2.183697,0 0,11.104 -1.669888,0 -0.421034,-1.0348 -0.0927,0 c -0.494789,0.7851 -1.248853,1.1775 -2.262191,1.1775 m 0.763573,-1.7342 c 0.556634,0 0.963389,-0.1617 1.220293,-0.4851 0.261675,-0.3235 0.4044,-0.8732 0.428175,-1.6486 l 0,-0.2355 c 0,-0.8562 -0.1332,-1.47 -0.39963,-1.8412 -0.261659,-0.371 -0.689834,-0.5566 -1.284507,-0.5566 -0.485281,0 -0.863504,0.207 -1.134674,0.6209 -0.266429,0.4091 -0.399629,1.0062 -0.399629,1.7913 0,0.7848 0.135599,1.3749 0.406769,1.7696 0.27117,0.3902 0.658904,0.5852 1.163203,0.5852" />
    <path
       inkscape:export-ydpi="300"
       inkscape:export-xdpi="300"
       inkscape:export-filename="/Users/lucacorsato/Documents/o{s}d.png"
       d="m 15.944429,1046.451 c -1.198889,0 -2.121853,-0.3663 -2.768862,-1.099 -0.637514,-0.7328 -0.956263,-1.7651 -0.956263,-3.0972 l 0,-4.2105 c 0,-1.1131 -0.25215,-1.9458 -0.756449,-2.4975 -0.494774,-0.5616 -1.265488,-0.8613 -2.3121414,-0.8991 l 0,-0.6424 c 2.0457264,-0.037 3.0685904,-1.1608 3.0685904,-3.3683 l 0,-4.1962 c 0,-1.3415 0.309239,-2.3738 0.927718,-3.0971 0.618465,-0.7232 1.550938,-1.0846 2.797407,-1.0846 l 1.926791,0 0,0.6708 -0.884894,0 c -0.865873,0 -1.484352,0.2617 -1.855421,0.7848 -0.36159,0.5139 -0.54237,1.2753 -0.542355,2.2837 l 0,4.71 c -1.5e-5,0.9038 -0.247409,1.6841 -0.742184,2.3407 -0.494773,0.647 -1.160833,1.0608 -1.998147,1.2417 l 0,0.043 c 0.846839,0.1998 1.512883,0.6233 1.998147,1.2702 0.494775,0.6375 0.742169,1.4177 0.742184,2.3408 l 0,4.767 c -1.5e-5,1.0086 0.180765,1.7698 0.542355,2.2836 0.371069,0.5233 0.989548,0.7849 1.855421,0.7849 l 0.884894,0 0,0.6708 -1.926791,0"
       style="font-size:56px;font-style:normal;font-variant:normal;font-weight:normal;font-stretch:normal;text-align:start;line-height:125%;letter-spacing:0px;word-spacing:0px;writing-mode:lr-tb;text-anchor:start;fill:#333333;fill-opacity:1;stroke:none;display:inline;font-family:Liberation Serif;-inkscape-font-specification:Liberation Serif"
       id="path4252"
       inkscape:connector-curvature="0" />
    <path
       inkscape:export-ydpi="300"
       inkscape:export-xdpi="300"
       inkscape:export-filename="/Users/lucacorsato/Documents/o{s}d.png"
       d="m 17.822696,1046.451 0,-0.6708 0.884893,0 c 0.865859,0 1.479583,-0.2617 1.841157,-0.7851 0.371085,-0.5137 0.556619,-1.275 0.556619,-2.2836 l 0,-4.7671 c 0,-0.9228 0.24264,-1.703 0.727904,-2.3407 0.485264,-0.6469 1.156063,-1.0703 2.012427,-1.2701 l 0,-0.043 c -0.837329,-0.1808 -1.503373,-0.5994 -1.998162,-1.2559 -0.494789,-0.6566 -0.742169,-1.4321 -0.742169,-2.3265 l 0,-4.7099 c 0,-1.0086 -0.185534,-1.7698 -0.556619,-2.2836 -0.361574,-0.5233 -0.975298,-0.7849 -1.841157,-0.7849 l -0.884893,0 0,-0.671 1.941056,0 c 1.236944,2e-4 2.164662,0.3617 2.783141,1.0849 0.618479,0.7231 0.927703,1.7555 0.927718,3.097 l 0,4.1962 c -1.5e-5,2.2074 1.022849,3.3302 3.068591,3.3682 l 0,0.6424 c -1.027634,0.038 -1.798348,0.333 -2.312142,0.8848 -0.504314,0.5518 -0.756464,1.3891 -0.756449,2.5119 l 0,4.2106 c -1.5e-5,1.3225 -0.32352,2.3501 -0.970543,3.0827 -0.637499,0.7423 -1.550937,1.1133 -2.740316,1.1133 l -1.941056,0"
       style="font-size:56px;font-style:normal;font-variant:normal;font-weight:normal;font-stretch:normal;text-align:start;line-height:125%;letter-spacing:0px;word-spacing:0px;writing-mode:lr-tb;text-anchor:start;fill:#666666;fill-opacity:1;stroke:none;display:inline;font-family:Liberation Serif;-inkscape-font-specification:Liberation Serif"
       id="path4254"
       inkscape:connector-curvature="0" />
  </g>
</svg>
