<?xml version="1.0" encoding="UTF-8" standalone="no"?>
<!-- Created with Inkscape (http://www.inkscape.org/) -->

<svg
   xmlns:osb="http://www.openswatchbook.org/uri/2009/osb"
   xmlns:dc="http://purl.org/dc/elements/1.1/"
   xmlns:cc="http://creativecommons.org/ns#"
   xmlns:rdf="http://www.w3.org/1999/02/22-rdf-syntax-ns#"
   xmlns:svg="http://www.w3.org/2000/svg"
   xmlns="http://www.w3.org/2000/svg"
   xmlns:xlink="http://www.w3.org/1999/xlink"
   xmlns:sodipodi="http://sodipodi.sourceforge.net/DTD/sodipodi-0.dtd"
   xmlns:inkscape="http://www.inkscape.org/namespaces/inkscape"
   width="121"
   height="90"
   id="svg2"
   version="1.1"
   inkscape:version="0.48.2 r9819"
   sodipodi:docname="o{s}d_simple.svg">
  <defs
     id="defs4">
    <linearGradient
       id="linearGradient4444"
       osb:paint="solid">
      <stop
         style="stop-color:#002fa7;stop-opacity:1;"
         offset="0"
         id="stop4446" />
    </linearGradient>
    <linearGradient
       inkscape:collect="always"
       xlink:href="#linearGradient4444"
       id="linearGradient4448"
       x1="1481.6096"
       y1="393.59521"
       x2="3401.6096"
       y2="393.59521"
       gradientUnits="userSpaceOnUse" />
    <linearGradient
       inkscape:collect="always"
       xlink:href="#linearGradient4444"
       id="linearGradient4452"
       gradientUnits="userSpaceOnUse"
       x1="1481.6096"
       y1="393.59521"
       x2="3401.6096"
       y2="393.59521"
       gradientTransform="translate(-1761.6116,2283.4524)" />
  </defs>
  <sodipodi:namedview
     id="base"
     pagecolor="#ffffff"
     bordercolor="#666666"
     borderopacity="1.0"
     inkscape:pageopacity="0.0"
     inkscape:pageshadow="2"
     inkscape:zoom="0.64"
     inkscape:cx="677.72028"
     inkscape:cy="379.22928"
     inkscape:document-units="px"
     inkscape:current-layer="layer10"
     showgrid="false"
     inkscape:window-width="1440"
     inkscape:window-height="852"
     inkscape:window-x="0"
     inkscape:window-y="0"
     inkscape:window-maximized="1" />
  <metadata
     id="metadata7">
    <rdf:RDF>
      <cc:Work
         rdf:about="">
        <dc:format>image/svg+xml</dc:format>
        <dc:type
           rdf:resource="http://purl.org/dc/dcmitype/StillImage" />
        <dc:title></dc:title>
      </cc:Work>
    </rdf:RDF>
  </metadata>
  <g
     inkscape:groupmode="layer"
     id="layer10"
     inkscape:label="didascalie"
     style="display:inline"
     transform="translate(0,-962.36218)" />
  <g
     inkscape:groupmode="layer"
     id="layer2"
     inkscape:label="margine"
     style="display:inline"
     transform="translate(0,-962.36218)" />
  <g
     inkscape:groupmode="layer"
     id="layer3"
     inkscape:label="sfondo"
     style="display:inline"
     transform="translate(0,-962.36218)" />
  <g
     inkscape:groupmode="layer"
     id="layer4"
     inkscape:label="open"
     sodipodi:insensitive="true"
     style="display:none"
     transform="translate(0,-962.36218)" />
  <g
     inkscape:groupmode="layer"
     id="layer5"
     inkscape:label="sensors"
     sodipodi:insensitive="true"
     style="display:none"
     transform="translate(0,-962.36218)" />
  <g
     inkscape:groupmode="layer"
     id="layer6"
     inkscape:label="data"
     sodipodi:insensitive="true"
     style="display:none"
     transform="translate(0,-962.36218)" />
  <g
     inkscape:groupmode="layer"
     id="layer7"
     inkscape:label="graffe"
     sodipodi:insensitive="true"
     style="display:none"
     transform="translate(0,-962.36218)">
    <path
       inkscape:connector-curvature="0"
       id="path3004"
       style="font-size:32px;font-style:normal;font-variant:normal;font-weight:normal;font-stretch:normal;text-align:start;line-height:125%;letter-spacing:0px;word-spacing:0px;writing-mode:lr-tb;text-anchor:start;fill:#000000;fill-opacity:1;stroke:none;font-family:Liberation Serif;-inkscape-font-specification:Liberation Serif"
       d="m 209.18304,686.28632 c -1.3125,-1e-5 -2.32292,-0.40105 -3.03125,-1.20313 -0.69792,-0.80208 -1.04688,-1.93229 -1.04687,-3.39062 l 0,-4.60938 c -1e-5,-1.21874 -0.27605,-2.1302 -0.82813,-2.73437 -0.54167,-0.61458 -1.38542,-0.9427 -2.53125,-0.98438 l 0,-0.70312 c 2.23958,-0.0417 3.35937,-1.27083 3.35938,-3.6875 l 0,-4.59375 c -1e-5,-1.46873 0.33853,-2.59894 1.01562,-3.39063 0.67708,-0.79164 1.69791,-1.18748 3.0625,-1.1875 l 2.10938,0 0,0.73438 -0.96875,0 c -0.94793,2e-5 -1.62501,0.28648 -2.03125,0.85937 -0.39584,0.56252 -0.59376,1.39585 -0.59375,2.5 l 0,5.15625 c -1e-5,0.9896 -0.27084,1.84376 -0.8125,2.5625 -0.54167,0.70834 -1.27084,1.16147 -2.1875,1.35938 l 0,0.0469 c 0.92708,0.21876 1.65624,0.6823 2.1875,1.39063 0.54166,0.69792 0.81249,1.55209 0.8125,2.5625 l 0,5.21875 c -1e-5,1.10416 0.19791,1.93749 0.59375,2.5 0.40624,0.57291 1.08332,0.85937 2.03125,0.85937 l 0.96875,0 0,0.73438 -2.10938,0" />
    <path
       inkscape:connector-curvature="0"
       id="path3006"
       style="font-size:32px;font-style:normal;font-variant:normal;font-weight:normal;font-stretch:normal;text-align:start;line-height:125%;letter-spacing:0px;word-spacing:0px;writing-mode:lr-tb;text-anchor:start;fill:#000000;fill-opacity:1;stroke:none;font-family:Liberation Serif;-inkscape-font-specification:Liberation Serif"
       d="m 217.12054,686.28632 0,-0.73438 0.96875,0 c 0.94792,0 1.61979,-0.28646 2.01563,-0.85937 0.40624,-0.56251 0.60937,-1.39584 0.60937,-2.5 l 0,-5.21875 c 0,-1.01041 0.26562,-1.86458 0.79688,-2.5625 0.53124,-0.70833 1.26562,-1.17187 2.20312,-1.39063 l 0,-0.0469 c -0.91667,-0.19791 -1.64584,-0.65624 -2.1875,-1.375 -0.54167,-0.71874 -0.8125,-1.5677 -0.8125,-2.54688 l 0,-5.15625 c 0,-1.10415 -0.20313,-1.93748 -0.60937,-2.5 -0.39584,-0.57289 -1.06771,-0.85935 -2.01563,-0.85937 l -0.96875,0 0,-0.73438 2.125,0 c 1.35416,2e-5 2.36979,0.39586 3.04688,1.1875 0.67707,0.79169 1.01562,1.9219 1.01562,3.39063 l 0,4.59375 c 0,2.41667 1.11979,3.64584 3.35938,3.6875 l 0,0.70312 c -1.12501,0.0417 -1.96876,0.36459 -2.53125,0.96875 -0.55209,0.60417 -0.82813,1.52084 -0.82813,2.75 l 0,4.60938 c 0,1.44791 -0.35417,2.57291 -1.0625,3.375 -0.69792,0.81249 -1.69792,1.21874 -3,1.21875 l -2.125,0" />
  </g>
  <g
     inkscape:label="scritta"
     inkscape:groupmode="layer"
     id="layer1"
     style="display:inline"
     transform="translate(0,-962.36218)" />
  <g
     inkscape:groupmode="layer"
     id="layer9"
     inkscape:label="rettangoli"
     style="display:inline"
     transform="translate(0,-962.36218)" />
  <g
     inkscape:groupmode="layer"
     id="layer8"
     inkscape:label="crocette"
     style="display:inline"
     transform="translate(0,-962.36218)" />
  <g
     inkscape:groupmode="layer"
     id="layer11"
     inkscape:label="logo"
     style="display:inline"
     transform="translate(0,-962.36218)">
    <path
       inkscape:connector-curvature="0"
       id="path4292"
       style="font-size:28px;font-style:normal;font-variant:normal;font-weight:bold;font-stretch:normal;text-align:start;line-height:125%;letter-spacing:0px;word-spacing:0px;writing-mode:lr-tb;text-anchor:start;fill:#1a1a1a;fill-opacity:1;stroke:none;display:inline;font-family:Open Sans;-inkscape-font-specification:Open Sans Bold"
       d="m 8.2567,1007.2271 c -2e-5,2.9383 0.4778,5.1595 1.43353,6.6639 0.97341,1.5042 2.54864,2.2565 4.72563,2.2565 2.15928,0 3.70799,-0.7434 4.64607,-2.2299 0.95575,-1.5046 1.43364,-3.7346 1.43365,-6.6905 -10e-6,-2.9381 -0.4779,-5.1415 -1.43365,-6.6105 -0.95582,-1.46887 -2.52217,-2.2036 -4.6991,-2.2036 -2.15933,0 -3.71682,0.73473 -4.6726,2.2036 -0.95573,1.4513 -1.43355,3.6547 -1.43353,6.6105 m 20.52198,0 c -4e-5,4.8318 -1.27432,8.6106 -3.82297,11.3363 -2.54877,2.7258 -6.09725,4.0884 -10.64599,4.0884 -2.84947,0 -5.36283,-0.6192 -7.53978,-1.8582 -2.17698,-1.2569 -3.84946,-3.0531 -5.0178,-5.3895 C 0.58406,1013.0679 0,1010.3422 0,1007.2271 c 0,-4.8493 1.26539,-8.61921 3.79641,-11.30961 2.53103,-2.69024 6.08859,-4.03543 10.67252,-4.03543 2.84965,0 5.36276,0.61942 7.53998,1.85843 2.17693,1.23904 3.84944,3.01767 5.01762,5.33642 1.16805,2.31849 1.75211,5.03519 1.75215,8.15019"
       inkscape:export-filename="/Users/lucacorsato/Documents/o{s}d/o{s}d_semplice.png"
       inkscape:export-xdpi="300"
       inkscape:export-ydpi="300" />
    <path
       d="m 71.2132,1014.183 c -2e-5,2.7078 -1.0087,4.7964 -3.02642,6.2654 -2.01773,1.4693 -4.84952,2.2034 -8.49552,2.2034 -3.85854,0 -6.86725,-0.6103 -9.02654,-1.8317 l 0,-4.0885 c 1.39812,0.7079 2.89373,1.2655 4.4866,1.6726 1.61062,0.4069 3.15931,0.6104 4.64609,0.6104 2.30083,0 4.07085,-0.3627 5.30971,-1.0883 1.23887,-0.7434 1.85825,-1.8673 1.85827,-3.3716 -2e-5,-1.1327 -0.49557,-2.0975 -1.48654,-2.8941 -0.97346,-0.8139 -2.88505,-1.7697 -5.73455,-2.867 -2.70793,-1.0088 -4.63717,-1.8851 -5.78759,-2.6284 -1.1327,-0.7609 -1.98233,-1.6194 -2.5487,-2.5752 -0.54868,-0.9558 -0.82308,-2.0974 -0.82306,-3.4247 -2e-5,-2.3717 0.9646,-4.23889 2.8939,-5.60174 1.92925,-1.38073 4.57523,-2.07081 7.93799,-2.07081 3.13273,0 6.19475,0.63705 9.18577,1.91146 l -1.5664,3.58409 c -2.92023,-1.20353 -5.56629,-1.80523 -7.93798,-1.80543 -2.08858,2e-4 -3.66377,0.32765 -4.72571,0.9824 -1.06195,0.65487 -1.5929,1.55756 -1.5929,2.70786 0,0.77897 0.19482,1.44257 0.58405,1.99117 0.40711,0.5488 1.05311,1.0709 1.93809,1.5666 0.88502,0.4955 2.58412,1.2121 5.09743,2.1503 3.45123,1.2565 5.77872,2.5221 6.98225,3.7965 1.22116,1.2741 1.83174,2.876 1.83176,4.8053"
       style="font-size:28px;font-style:normal;font-variant:normal;font-weight:normal;font-stretch:normal;text-align:start;line-height:125%;letter-spacing:0px;word-spacing:0px;writing-mode:lr-tb;text-anchor:start;fill:#4d4d4d;fill-opacity:1;stroke:none;display:inline;font-family:Open Sans;-inkscape-font-specification:Open Sans"
       id="path4294"
       inkscape:connector-curvature="0"
       inkscape:export-filename="/Users/lucacorsato/Documents/o{s}d/o{s}d_semplice.png"
       inkscape:export-xdpi="300"
       inkscape:export-ydpi="300" />
    <path
       d="m 104.41204,1022.6518 c -3.4868,0 -6.2301,-1.354 -8.23015,-4.0619 -1.98234,-2.7079 -2.97339,-6.4601 -2.97339,-11.2566 0,-4.8672 1.0087,-8.65479 3.02648,-11.36264 2.03538,-2.72572 4.83179,-4.0886 8.3894,-4.0886 3.73445,0 6.58412,1.45137 8.5486,4.35394 l 0.26557,0 c -0.4071,-2.21229 -0.61058,-4.18588 -0.61054,-5.9202 l 0,-9.50457 8.12381,0 0,41.30977 -6.21243,0 -1.56641,-3.8495 -0.34497,0 c -1.84084,2.9202 -4.64606,4.3803 -8.41597,4.3803 m 2.84065,-6.4512 c 2.07077,0 3.58407,-0.6018 4.53986,-1.8051 0.97332,-1.2037 1.50428,-3.2481 1.59295,-6.133 l 0,-0.8761 c -2e-5,-3.1857 -0.49558,-5.4688 -1.48681,-6.8496 -0.97345,-1.38034 -2.56636,-2.07081 -4.77867,-2.07081 -1.80546,0 -3.21243,0.77004 -4.22127,2.30991 -0.99117,1.5221 -1.48675,3.7433 -1.48674,6.6635 -2e-5,2.9205 0.50445,5.1151 1.51326,6.5842 1.00886,1.4514 2.45123,2.177 4.3274,2.177"
       style="font-size:28px;font-style:normal;font-variant:normal;font-weight:bold;font-stretch:normal;text-align:start;line-height:125%;letter-spacing:0px;word-spacing:0px;writing-mode:lr-tb;text-anchor:start;fill:#808080;fill-opacity:1;stroke:none;display:inline;font-family:Open Sans;-inkscape-font-specification:Open Sans Bold"
       id="path4296"
       inkscape:connector-curvature="0"
       inkscape:export-filename="/Users/lucacorsato/Documents/o{s}d/o{s}d_semplice.png"
       inkscape:export-xdpi="300"
       inkscape:export-ydpi="300" />
    <path
       inkscape:connector-curvature="0"
       id="path4298"
       style="font-size:56px;font-style:normal;font-variant:normal;font-weight:normal;font-stretch:normal;text-align:start;line-height:125%;letter-spacing:0px;word-spacing:0px;writing-mode:lr-tb;text-anchor:start;fill:#ea5480;fill-opacity:1;stroke:none;display:inline;font-family:Liberation Serif;-inkscape-font-specification:Liberation Serif"
       d="m 53.81938,1052.3622 c -4.46012,-2e-4 -7.89383,-1.363 -10.30077,-4.0887 -2.37181,-2.7258 -3.55762,-6.5663 -3.5576,-11.522 l 0,-15.6637 c -2e-5,-4.1415 -0.93808,-7.2391 -2.81404,-9.2922 -1.84084,-2.0884 -4.70801,-3.2034 -8.60194,-3.345 l 0,-2.3893 c 7.61074,-0.1419 11.41596,-4.3186 11.41598,-12.53098 l 0,-15.61075 c -2e-5,-4.99106 1.15041,-8.83157 3.45126,-11.52199 2.301,-2.69018 5.76987,-4.0354 10.40711,-4.0354 l 7.16825,0 0,2.49571 -3.2922,0 c -3.22129,0 -5.52208,0.97347 -6.9026,2.9202 -1.34507,1.91164 -2.01762,4.74336 -2.0176,8.49559 l 0,17.52199 c -2e-5,3.363 -0.92044,6.26563 -2.76117,8.70813 -1.84063,2.407 -4.31858,3.9467 -7.43365,4.6195 l 0,0.1592 c 3.15047,0.7432 5.6284,2.3184 7.43365,4.7256 1.84073,2.3715 2.76115,5.2742 2.76117,8.708 l 0,17.7344 c -2e-5,3.7522 0.67253,6.584 2.0176,8.4957 1.38052,1.9466 3.68131,2.9201 6.9026,2.9201 l 3.2922,0 0,2.4957 -7.16825,0"
       inkscape:export-filename="/Users/lucacorsato/Documents/o{s}d/o{s}d_semplice.png"
       inkscape:export-xdpi="300"
       inkscape:export-ydpi="300" />
    <path
       inkscape:connector-curvature="0"
       id="path4300"
       style="font-size:56px;font-style:normal;font-variant:normal;font-weight:normal;font-stretch:normal;text-align:start;line-height:125%;letter-spacing:0px;word-spacing:0px;writing-mode:lr-tb;text-anchor:start;fill:#002fa7;fill-opacity:1;stroke:none;display:inline;font-family:Liberation Serif;-inkscape-font-specification:Liberation Serif"
       d="m 60.80706,1052.3622 0,-2.4959 3.29196,0 c 3.22122,0 5.50433,-0.9735 6.84957,-2.9201 1.38042,-1.9117 2.07083,-4.7435 2.07085,-8.4957 l 0,-17.7344 c -2e-5,-3.4337 0.90246,-6.3363 2.70792,-8.708 1.80522,-2.4072 4.3008,-3.9824 7.48668,-4.7256 l 0,-0.1592 c -3.11506,-0.6726 -5.59304,-2.2302 -7.4336,-4.6725 -1.84083,-2.4426 -2.76102,-5.32743 -2.761,-8.65513 l 0,-17.52199 c -2e-5,-3.75223 -0.69043,-6.58395 -2.07085,-8.49559 -1.34524,-1.94673 -3.62835,-2.9202 -6.84957,-2.9202 l -3.29196,0 0,-2.49571 7.22112,0 c 4.60177,2.1e-4 8.05324,1.34543 10.35406,4.0356 2.30075,2.69022 3.45114,6.53092 3.45118,11.52179 l 0,15.61075 c -4e-5,8.21238 3.80548,12.38928 11.416,12.53098 l 0,2.3893 c -3.82299,0.1418 -6.69034,1.2388 -8.60166,3.292 -1.87624,2.0532 -2.81438,5.1682 -2.81434,9.3452 l 0,15.6637 c -4e-5,4.9204 -1.2035,8.7434 -3.61044,11.4689 -2.37178,2.7611 -5.76991,4.1418 -10.1948,4.1418 l -7.22112,0"
       inkscape:export-filename="/Users/lucacorsato/Documents/o{s}d/o{s}d_semplice.png"
       inkscape:export-xdpi="300"
       inkscape:export-ydpi="300" />
  </g>
</svg>
