<?xml version="1.0" encoding="UTF-8" standalone="no"?>
<!-- Created with Inkscape (http://www.inkscape.org/) -->

<svg
   xmlns:osb="http://www.openswatchbook.org/uri/2009/osb"
   xmlns:dc="http://purl.org/dc/elements/1.1/"
   xmlns:cc="http://creativecommons.org/ns#"
   xmlns:rdf="http://www.w3.org/1999/02/22-rdf-syntax-ns#"
   xmlns:svg="http://www.w3.org/2000/svg"
   xmlns="http://www.w3.org/2000/svg"
   xmlns:xlink="http://www.w3.org/1999/xlink"
   xmlns:sodipodi="http://sodipodi.sourceforge.net/DTD/sodipodi-0.dtd"
   xmlns:inkscape="http://www.inkscape.org/namespaces/inkscape"
   width="24"
   height="24"
   id="svg2"
   version="1.1"
   inkscape:version="0.48.2 r9819"
   sodipodi:docname="o{s}d_logo.svg">
  <defs
     id="defs4">
    <linearGradient
       id="linearGradient4444"
       osb:paint="solid">
      <stop
         style="stop-color:#002fa7;stop-opacity:1;"
         offset="0"
         id="stop4446" />
    </linearGradient>
    <linearGradient
       inkscape:collect="always"
       xlink:href="#linearGradient4444"
       id="linearGradient4448"
       x1="1481.6096"
       y1="393.59521"
       x2="3401.6096"
       y2="393.59521"
       gradientUnits="userSpaceOnUse" />
    <linearGradient
       inkscape:collect="always"
       xlink:href="#linearGradient4444"
       id="linearGradient4452"
       gradientUnits="userSpaceOnUse"
       x1="1481.6096"
       y1="393.59521"
       x2="3401.6096"
       y2="393.59521"
       gradientTransform="translate(-1761.6116,2283.4524)" />
  </defs>
  <sodipodi:namedview
     id="base"
     pagecolor="#ffffff"
     bordercolor="#666666"
     borderopacity="1.0"
     inkscape:pageopacity="0.0"
     inkscape:pageshadow="2"
     inkscape:zoom="20.48"
     inkscape:cx="18.106316"
     inkscape:cy="13.417353"
     inkscape:document-units="px"
     inkscape:current-layer="layer10"
     showgrid="false"
     inkscape:window-width="1440"
     inkscape:window-height="852"
     inkscape:window-x="0"
     inkscape:window-y="0"
     inkscape:window-maximized="1" />
  <metadata
     id="metadata7">
    <rdf:RDF>
      <cc:Work
         rdf:about="">
        <dc:format>image/svg+xml</dc:format>
        <dc:type
           rdf:resource="http://purl.org/dc/dcmitype/StillImage" />
        <dc:title></dc:title>
      </cc:Work>
    </rdf:RDF>
  </metadata>
  <g
     inkscape:groupmode="layer"
     id="layer10"
     inkscape:label="didascalie"
     style="display:inline"
     transform="translate(0,-1028.3622)" />
  <g
     inkscape:groupmode="layer"
     id="layer2"
     inkscape:label="margine"
     style="display:inline"
     transform="translate(0,-1028.3622)" />
  <g
     inkscape:groupmode="layer"
     id="layer3"
     inkscape:label="sfondo"
     style="display:inline"
     transform="translate(0,-1028.3622)" />
  <g
     inkscape:groupmode="layer"
     id="layer4"
     inkscape:label="open"
     sodipodi:insensitive="true"
     style="display:none"
     transform="translate(0,-1028.3622)" />
  <g
     inkscape:groupmode="layer"
     id="layer5"
     inkscape:label="sensors"
     sodipodi:insensitive="true"
     style="display:none"
     transform="translate(0,-1028.3622)" />
  <g
     inkscape:groupmode="layer"
     id="layer6"
     inkscape:label="data"
     sodipodi:insensitive="true"
     style="display:none"
     transform="translate(0,-1028.3622)" />
  <g
     inkscape:groupmode="layer"
     id="layer7"
     inkscape:label="graffe"
     sodipodi:insensitive="true"
     style="display:none"
     transform="translate(0,-1028.3622)">
    <path
       inkscape:connector-curvature="0"
       id="path3004"
       style="font-size:32px;font-style:normal;font-variant:normal;font-weight:normal;font-stretch:normal;text-align:start;line-height:125%;letter-spacing:0px;word-spacing:0px;writing-mode:lr-tb;text-anchor:start;fill:#000000;fill-opacity:1;stroke:none;font-family:Liberation Serif;-inkscape-font-specification:Liberation Serif"
       d="m 209.18304,686.28632 c -1.3125,-1e-5 -2.32292,-0.40105 -3.03125,-1.20313 -0.69792,-0.80208 -1.04688,-1.93229 -1.04687,-3.39062 l 0,-4.60938 c -1e-5,-1.21874 -0.27605,-2.1302 -0.82813,-2.73437 -0.54167,-0.61458 -1.38542,-0.9427 -2.53125,-0.98438 l 0,-0.70312 c 2.23958,-0.0417 3.35937,-1.27083 3.35938,-3.6875 l 0,-4.59375 c -1e-5,-1.46873 0.33853,-2.59894 1.01562,-3.39063 0.67708,-0.79164 1.69791,-1.18748 3.0625,-1.1875 l 2.10938,0 0,0.73438 -0.96875,0 c -0.94793,2e-5 -1.62501,0.28648 -2.03125,0.85937 -0.39584,0.56252 -0.59376,1.39585 -0.59375,2.5 l 0,5.15625 c -1e-5,0.9896 -0.27084,1.84376 -0.8125,2.5625 -0.54167,0.70834 -1.27084,1.16147 -2.1875,1.35938 l 0,0.0469 c 0.92708,0.21876 1.65624,0.6823 2.1875,1.39063 0.54166,0.69792 0.81249,1.55209 0.8125,2.5625 l 0,5.21875 c -1e-5,1.10416 0.19791,1.93749 0.59375,2.5 0.40624,0.57291 1.08332,0.85937 2.03125,0.85937 l 0.96875,0 0,0.73438 -2.10938,0" />
    <path
       inkscape:connector-curvature="0"
       id="path3006"
       style="font-size:32px;font-style:normal;font-variant:normal;font-weight:normal;font-stretch:normal;text-align:start;line-height:125%;letter-spacing:0px;word-spacing:0px;writing-mode:lr-tb;text-anchor:start;fill:#000000;fill-opacity:1;stroke:none;font-family:Liberation Serif;-inkscape-font-specification:Liberation Serif"
       d="m 217.12054,686.28632 0,-0.73438 0.96875,0 c 0.94792,0 1.61979,-0.28646 2.01563,-0.85937 0.40624,-0.56251 0.60937,-1.39584 0.60937,-2.5 l 0,-5.21875 c 0,-1.01041 0.26562,-1.86458 0.79688,-2.5625 0.53124,-0.70833 1.26562,-1.17187 2.20312,-1.39063 l 0,-0.0469 c -0.91667,-0.19791 -1.64584,-0.65624 -2.1875,-1.375 -0.54167,-0.71874 -0.8125,-1.5677 -0.8125,-2.54688 l 0,-5.15625 c 0,-1.10415 -0.20313,-1.93748 -0.60937,-2.5 -0.39584,-0.57289 -1.06771,-0.85935 -2.01563,-0.85937 l -0.96875,0 0,-0.73438 2.125,0 c 1.35416,2e-5 2.36979,0.39586 3.04688,1.1875 0.67707,0.79169 1.01562,1.9219 1.01562,3.39063 l 0,4.59375 c 0,2.41667 1.11979,3.64584 3.35938,3.6875 l 0,0.70312 c -1.12501,0.0417 -1.96876,0.36459 -2.53125,0.96875 -0.55209,0.60417 -0.82813,1.52084 -0.82813,2.75 l 0,4.60938 c 0,1.44791 -0.35417,2.57291 -1.0625,3.375 -0.69792,0.81249 -1.69792,1.21874 -3,1.21875 l -2.125,0" />
  </g>
  <g
     inkscape:label="scritta"
     inkscape:groupmode="layer"
     id="layer1"
     style="display:inline"
     transform="translate(0,-1028.3622)" />
  <g
     inkscape:groupmode="layer"
     id="layer9"
     inkscape:label="rettangoli"
     style="display:inline"
     transform="translate(0,-1028.3622)">
    <rect
       inkscape:export-ydpi="300"
       inkscape:export-xdpi="300"
       inkscape:export-filename="/Users/lucacorsato/Documents/o{s}d.png"
       ry="0"
       y="1029.3378"
       x="17.688196"
       height="22.039272"
       width="4.971549"
       id="rect4214"
       style="fill:#f9f9f9;fill-opacity:1;stroke:none;display:inline" />
    <rect
       inkscape:export-ydpi="300"
       inkscape:export-xdpi="300"
       inkscape:export-filename="/Users/lucacorsato/Documents/o{s}d.png"
       style="fill:#f2f2f2;fill-opacity:1;stroke:none;display:inline"
       id="rect4216"
       width="5.8137045"
       height="18.098442"
       x="11.881801"
       y="1031.3081"
       ry="0" />
    <rect
       inkscape:export-ydpi="300"
       inkscape:export-xdpi="300"
       inkscape:export-filename="/Users/lucacorsato/Documents/o{s}d.png"
       ry="0"
       y="1030.3229"
       x="6.1003976"
       height="20.068853"
       width="5.8137045"
       id="rect4218"
       style="fill:#ececec;fill-opacity:1;stroke:none;display:inline" />
    <rect
       inkscape:export-ydpi="300"
       inkscape:export-xdpi="300"
       inkscape:export-filename="/Users/lucacorsato/Documents/o{s}d.png"
       style="fill:#e6e6e6;fill-opacity:1;stroke:none;display:inline"
       id="rect4220"
       width="5.1571631"
       height="22.039272"
       x="0.98519379"
       y="1029.3378"
       ry="0" />
  </g>
  <g
     inkscape:groupmode="layer"
     id="layer8"
     inkscape:label="crocette"
     style="display:inline"
     transform="translate(0,-1028.3622)">
    <path
       inkscape:export-ydpi="300"
       inkscape:export-xdpi="300"
       inkscape:export-filename="/Users/lucacorsato/Documents/o{s}d.png"
       inkscape:connector-curvature="0"
       id="path4222"
       d="m 22.659936,1028.4605 0,1.7742"
       style="fill:none;stroke:#002fa7;stroke-width:0.19667135;stroke-linecap:round;stroke-linejoin:miter;stroke-miterlimit:4;stroke-opacity:1;stroke-dasharray:none" />
    <path
       inkscape:export-ydpi="300"
       inkscape:export-xdpi="300"
       inkscape:export-filename="/Users/lucacorsato/Documents/o{s}d.png"
       style="fill:none;stroke:#002fa7;stroke-width:0.19667135;stroke-linecap:round;stroke-linejoin:miter;stroke-miterlimit:4;stroke-opacity:1;stroke-dasharray:none"
       d="m 21.772886,1029.3476 1.77411,0"
       id="path4224"
       inkscape:connector-curvature="0" />
    <path
       inkscape:export-ydpi="300"
       inkscape:export-xdpi="300"
       inkscape:export-filename="/Users/lucacorsato/Documents/o{s}d.png"
       transform="matrix(0.16497527,0,0,0.16497527,-1.8560543,904.17327)"
       d="m 151.08883,758.74713 a 2.4859223,2.4859223 0 1 1 -4.97185,0 2.4859223,2.4859223 0 1 1 4.97185,0 z"
       sodipodi:ry="2.4859223"
       sodipodi:rx="2.4859223"
       sodipodi:cy="758.74713"
       sodipodi:cx="148.60291"
       id="path4226"
       style="fill:none;stroke:#002fa7;stroke-width:1;stroke-linecap:round;stroke-linejoin:round;stroke-miterlimit:4;stroke-opacity:1;stroke-dasharray:none;stroke-dashoffset:16.33108387"
       sodipodi:type="arc" />
    <path
       inkscape:export-ydpi="300"
       inkscape:export-xdpi="300"
       inkscape:export-filename="/Users/lucacorsato/Documents/o{s}d.png"
       style="fill:none;stroke:#ea5480;stroke-width:0.19667135;stroke-linecap:round;stroke-linejoin:miter;stroke-miterlimit:4;stroke-opacity:1;stroke-dasharray:none"
       d="m 0.98539568,1028.4605 0,1.7742"
       id="path4228"
       inkscape:connector-curvature="0" />
    <path
       inkscape:export-ydpi="300"
       inkscape:export-xdpi="300"
       inkscape:export-filename="/Users/lucacorsato/Documents/o{s}d.png"
       inkscape:connector-curvature="0"
       id="path4230"
       d="m 0.09833568,1029.3476 1.77411002,0"
       style="fill:none;stroke:#ea5480;stroke-width:0.19667135;stroke-linecap:round;stroke-linejoin:miter;stroke-miterlimit:4;stroke-opacity:1;stroke-dasharray:none" />
    <path
       inkscape:export-ydpi="300"
       inkscape:export-xdpi="300"
       inkscape:export-filename="/Users/lucacorsato/Documents/o{s}d.png"
       sodipodi:type="arc"
       style="fill:none;stroke:#ea5480;stroke-width:1;stroke-linecap:round;stroke-linejoin:round;stroke-miterlimit:4;stroke-opacity:1;stroke-dasharray:none;stroke-dashoffset:16.33108387"
       id="path4232"
       sodipodi:cx="148.60291"
       sodipodi:cy="758.74713"
       sodipodi:rx="2.4859223"
       sodipodi:ry="2.4859223"
       d="m 151.08883,758.74713 a 2.4859223,2.4859223 0 1 1 -4.97185,0 2.4859223,2.4859223 0 1 1 4.97185,0 z"
       transform="matrix(0.16497527,0,0,0.16497527,-23.530594,904.17327)" />
    <path
       inkscape:export-ydpi="300"
       inkscape:export-xdpi="300"
       inkscape:export-filename="/Users/lucacorsato/Documents/o{s}d.png"
       style="fill:none;stroke:#002fa7;stroke-width:0.19667135;stroke-linecap:round;stroke-linejoin:miter;stroke-miterlimit:4;stroke-opacity:1;stroke-dasharray:none"
       d="m 22.659936,1050.4898 0,1.7741"
       id="path4234"
       inkscape:connector-curvature="0" />
    <path
       inkscape:export-ydpi="300"
       inkscape:export-xdpi="300"
       inkscape:export-filename="/Users/lucacorsato/Documents/o{s}d.png"
       inkscape:connector-curvature="0"
       id="path4236"
       d="m 21.772886,1051.3768 1.77411,0"
       style="fill:none;stroke:#002fa7;stroke-width:0.19667135;stroke-linecap:round;stroke-linejoin:miter;stroke-miterlimit:4;stroke-opacity:1;stroke-dasharray:none" />
    <path
       inkscape:export-ydpi="300"
       inkscape:export-xdpi="300"
       inkscape:export-filename="/Users/lucacorsato/Documents/o{s}d.png"
       sodipodi:type="arc"
       style="fill:none;stroke:#002fa7;stroke-width:1;stroke-linecap:round;stroke-linejoin:round;stroke-miterlimit:4;stroke-opacity:1;stroke-dasharray:none;stroke-dashoffset:16.33108387"
       id="path4238"
       sodipodi:cx="148.60291"
       sodipodi:cy="758.74713"
       sodipodi:rx="2.4859223"
       sodipodi:ry="2.4859223"
       d="m 151.08883,758.74713 a 2.4859223,2.4859223 0 1 1 -4.97185,0 2.4859223,2.4859223 0 1 1 4.97185,0 z"
       transform="matrix(0.16497527,0,0,0.16497527,-1.8560543,926.20249)" />
    <path
       inkscape:export-ydpi="300"
       inkscape:export-xdpi="300"
       inkscape:export-filename="/Users/lucacorsato/Documents/o{s}d.png"
       inkscape:connector-curvature="0"
       id="path4240"
       d="m 0.98539568,1050.4898 0,1.7741"
       style="fill:none;stroke:#ea5480;stroke-width:0.19667135;stroke-linecap:round;stroke-linejoin:miter;stroke-miterlimit:4;stroke-opacity:1;stroke-dasharray:none" />
    <path
       inkscape:export-ydpi="300"
       inkscape:export-xdpi="300"
       inkscape:export-filename="/Users/lucacorsato/Documents/o{s}d.png"
       style="fill:none;stroke:#ea5480;stroke-width:0.19667135;stroke-linecap:round;stroke-linejoin:miter;stroke-miterlimit:4;stroke-opacity:1;stroke-dasharray:none"
       d="m 0.09833568,1051.3768 1.77411002,0"
       id="path4242"
       inkscape:connector-curvature="0" />
    <path
       inkscape:export-ydpi="300"
       inkscape:export-xdpi="300"
       inkscape:export-filename="/Users/lucacorsato/Documents/o{s}d.png"
       transform="matrix(0.16497527,0,0,0.16497527,-23.530594,926.20249)"
       d="m 151.08883,758.74713 a 2.4859223,2.4859223 0 1 1 -4.97185,0 2.4859223,2.4859223 0 1 1 4.97185,0 z"
       sodipodi:ry="2.4859223"
       sodipodi:rx="2.4859223"
       sodipodi:cy="758.74713"
       sodipodi:cx="148.60291"
       id="path4244"
       style="fill:none;stroke:#ea5480;stroke-width:1;stroke-linecap:round;stroke-linejoin:round;stroke-miterlimit:4;stroke-opacity:1;stroke-dasharray:none;stroke-dashoffset:16.33108387"
       sodipodi:type="arc" />
  </g>
  <g
     inkscape:groupmode="layer"
     id="layer11"
     inkscape:label="logo"
     style="display:inline"
     transform="translate(0,-1028.3622)">
    <path
       inkscape:export-ydpi="300"
       inkscape:export-xdpi="300"
       inkscape:export-filename="/Users/lucacorsato/Documents/o{s}d.png"
       d="m 2.4647957,1040.3332 c 0,0.5265 0.0856,0.9246 0.2569,1.1941 0.17444,0.2696 0.45672,0.4044 0.84684,0.4044 0.38694,0 0.66447,-0.1332 0.83257,-0.3996 0.17126,-0.2696 0.2569,-0.6692 0.2569,-1.1989 0,-0.5265 -0.0856,-0.9214 -0.2569,-1.1846 -0.17128,-0.2632 -0.45197,-0.3949 -0.84208,-0.3949 -0.38695,0 -0.66606,0.1317 -0.83733,0.3949 -0.17127,0.2601 -0.2569,0.6549 -0.2569,1.1846 m 3.67756,0 c -1e-5,0.8659 -0.22837,1.543 -0.68508,2.0315 -0.45673,0.4884 -1.09265,0.7326 -1.90777,0.7326 -0.51064,0 -0.96102,-0.111 -1.35113,-0.333 -0.39012,-0.2252 -0.68984,-0.5471 -0.89917,-0.9658 -0.20933,-0.4186 -0.31400002,-0.9071 -0.31400002,-1.4653 0,-0.869 0.22678002,-1.5446 0.68033002,-2.0267 0.45354,-0.4821 1.09105,-0.7231 1.91251,-0.7231 0.51064,0 0.96102,0.111 1.35114,0.333 0.39011,0.222 0.68983,0.5408 0.89917,0.9563 0.20933,0.4154 0.31399,0.9023 0.314,1.4605"
       style="font-size:28px;font-style:normal;font-variant:normal;font-weight:bold;font-stretch:normal;text-align:start;line-height:125%;letter-spacing:0px;word-spacing:0px;writing-mode:lr-tb;text-anchor:start;fill:#1a1a1a;fill-opacity:1;stroke:none;display:inline;font-family:Open Sans;-inkscape-font-specification:Open Sans Bold"
       id="path4246"
       inkscape:connector-curvature="0" />
    <path
       inkscape:export-ydpi="300"
       inkscape:export-xdpi="300"
       inkscape:export-filename="/Users/lucacorsato/Documents/o{s}d.png"
       inkscape:connector-curvature="0"
       id="path4248"
       style="font-size:28px;font-style:normal;font-variant:normal;font-weight:normal;font-stretch:normal;text-align:start;line-height:125%;letter-spacing:0px;word-spacing:0px;writing-mode:lr-tb;text-anchor:start;fill:#4d4d4d;fill-opacity:1;stroke:none;display:inline;font-family:Open Sans;-inkscape-font-specification:Open Sans"
       d="m 13.746616,1041.5797 c 0,0.4852 -0.18079,0.8595 -0.54235,1.1227 -0.36157,0.2633 -0.86904,0.3949 -1.52241,0.3949 -0.69142,0 -1.23061,-0.1094 -1.61755,-0.3283 l 0,-0.7326 c 0.25056,0.1269 0.51857,0.2268 0.80402,0.2997 0.28862,0.073 0.56614,0.1094 0.83257,0.1094 0.41231,0 0.72948,-0.065 0.9515,-0.195 0.22201,-0.1332 0.33302,-0.3346 0.33302,-0.6042 0,-0.203 -0.0888,-0.3759 -0.26642,-0.5186 -0.17444,-0.1459 -0.51698,-0.3172 -1.02762,-0.5138 -0.48527,-0.1808 -0.83098,-0.3378 -1.03714,-0.471 -0.20299,-0.1364 -0.35522,-0.2902 -0.45672,-0.4615 -0.0983,-0.1712 -0.14748,-0.3758 -0.14748,-0.6137 0,-0.425 0.17285,-0.7596 0.51857,-1.0038 0.34571,-0.2474 0.81988,-0.3711 1.42249,-0.3711 0.56139,0 1.11009,0.1142 1.6461,0.3425 l -0.28069,0.6423 c -0.52333,-0.2157 -0.9975,-0.3235 -1.4225,-0.3235 -0.37426,0 -0.65653,0.059 -0.84683,0.176 -0.19031,0.1174 -0.28546,0.2791 -0.28546,0.4853 0,0.1395 0.0349,0.2585 0.10467,0.3568 0.0729,0.098 0.18871,0.1919 0.3473,0.2807 0.15858,0.089 0.46306,0.2172 0.91344,0.3853 0.61848,0.2252 1.03555,0.452 1.25123,0.6804 0.21884,0.2283 0.32826,0.5154 0.32826,0.8611" />
    <path
       inkscape:export-ydpi="300"
       inkscape:export-xdpi="300"
       inkscape:export-filename="/Users/lucacorsato/Documents/o{s}d.png"
       inkscape:connector-curvature="0"
       id="path4250"
       style="font-size:28px;font-style:normal;font-variant:normal;font-weight:bold;font-stretch:normal;text-align:start;line-height:125%;letter-spacing:0px;word-spacing:0px;writing-mode:lr-tb;text-anchor:start;fill:#808080;fill-opacity:1;stroke:none;display:inline;font-family:Open Sans;-inkscape-font-specification:Open Sans Bold"
       d="m 19.695826,1043.0973 c -0.62482,0 -1.11643,-0.2426 -1.47483,-0.7279 -0.35523,-0.4852 -0.53284,-1.1576 -0.53284,-2.0172 0,-0.8722 0.18078,-1.5509 0.54235,-2.0362 0.36475,-0.4884 0.86587,-0.7326 1.50338,-0.7326 0.66922,0 1.17986,0.26 1.53192,0.7802 l 0.0476,0 c -0.0729,-0.3965 -0.10943,-0.7501 -0.10942,-1.0609 l 0,-1.7032 1.4558,0 0,7.4027 -1.11326,0 -0.28069,-0.6899 -0.0618,0 c -0.32986,0.5234 -0.83257,0.785 -1.50813,0.785 m 0.50905,-1.1561 c 0.37109,0 0.64226,-0.1078 0.81353,-0.3234 0.17445,-0.2157 0.2696,-0.5821 0.28545,-1.0991 l 0,-0.1569 c 0,-0.5709 -0.0888,-0.9801 -0.26642,-1.2275 -0.17444,-0.2474 -0.45989,-0.3711 -0.85634,-0.3711 -0.32352,0 -0.57567,0.138 -0.75645,0.4139 -0.17762,0.2728 -0.26642,0.6708 -0.26642,1.1942 0,0.5233 0.0904,0.9166 0.27118,1.1798 0.18078,0.2601 0.43927,0.3901 0.77547,0.3901" />
    <path
       inkscape:export-ydpi="300"
       inkscape:export-xdpi="300"
       inkscape:export-filename="/Users/lucacorsato/Documents/o{s}d.png"
       d="m 10.629636,1048.4214 c -0.7992603,0 -1.4145703,-0.2442 -1.8459103,-0.7327 -0.42501,-0.4885 -0.63751,-1.1767 -0.63751,-2.0648 l 0,-2.8069 c 0,-0.7421 -0.1681,-1.2972 -0.5043,-1.6651 -0.32985,-0.3743 -0.84366,-0.5741 -1.54143,-0.5994 l 0,-0.4282 c 1.36382,-0.025 2.04573,-0.7739 2.04573,-2.2456 l 0,-2.7974 c 0,-0.8944 0.20616,-1.5826 0.61848,-2.0648 0.41231,-0.4821 1.03396,-0.7231 1.8649403,-0.7231 l 1.28453,0 0,0.4472 -0.58993,0 c -0.57725,0 -0.98957,0.1745 -1.23695,0.5233 -0.2410603,0.3426 -0.3615803,0.8501 -0.3615703,1.5224 l 0,3.14 c -10e-6,0.6026 -0.16494,1.1228 -0.49479,1.5605 -0.32985,0.4313 -0.77389,0.7072 -1.3321,0.8278 l 0,0.029 c 0.56456,0.1332 1.00859,0.4155 1.3321,0.8468 0.32985,0.425 0.49478,0.9451 0.49479,1.5605 l 0,3.178 c -10e-6,0.6724 0.12051,1.1799 0.3615703,1.5224 0.24738,0.3489 0.6597,0.5233 1.23695,0.5233 l 0.58993,0 0,0.4472 -1.28453,0"
       style="font-size:56px;font-style:normal;font-variant:normal;font-weight:normal;font-stretch:normal;text-align:start;line-height:125%;letter-spacing:0px;word-spacing:0px;writing-mode:lr-tb;text-anchor:start;fill:#333333;fill-opacity:1;stroke:none;display:inline;font-family:Liberation Serif;-inkscape-font-specification:Liberation Serif"
       id="path4252"
       inkscape:connector-curvature="0" />
    <path
       inkscape:export-ydpi="300"
       inkscape:export-xdpi="300"
       inkscape:export-filename="/Users/lucacorsato/Documents/o{s}d.png"
       d="m 11.881816,1048.4214 0,-0.4472 0.58993,0 c 0.57724,0 0.98639,-0.1745 1.22744,-0.5234 0.24739,-0.3425 0.37108,-0.85 0.37108,-1.5224 l 0,-3.178 c 0,-0.6153 0.16176,-1.1354 0.48527,-1.5605 0.32351,-0.4313 0.77071,-0.7136 1.34162,-0.8468 l 0,-0.029 c -0.55822,-0.1205 -1.00225,-0.3996 -1.33211,-0.8373 -0.32986,-0.4377 -0.49478,-0.9547 -0.49478,-1.551 l 0,-3.1399 c 0,-0.6724 -0.12369,-1.1799 -0.37108,-1.5224 -0.24105,-0.3489 -0.6502,-0.5233 -1.22744,-0.5233 l -0.58993,0 0,-0.4473 1.29404,0 c 0.82463,10e-5 1.44311,0.2411 1.85543,0.7232 0.41232,0.4821 0.61847,1.1704 0.61848,2.0647 l 0,2.7975 c -10e-6,1.4716 0.6819,2.2201 2.04573,2.2455 l 0,0.4282 c -0.68509,0.025 -1.1989,0.222 -1.54143,0.5899 -0.33621,0.3679 -0.50431,0.9261 -0.5043,1.6746 l 0,2.807 c -10e-6,0.8817 -0.21568,1.5668 -0.64703,2.0552 -0.425,0.4948 -1.03396,0.7422 -1.82688,0.7422 l -1.29404,0"
       style="font-size:56px;font-style:normal;font-variant:normal;font-weight:normal;font-stretch:normal;text-align:start;line-height:125%;letter-spacing:0px;word-spacing:0px;writing-mode:lr-tb;text-anchor:start;fill:#666666;fill-opacity:1;stroke:none;display:inline;font-family:Liberation Serif;-inkscape-font-specification:Liberation Serif"
       id="path4254"
       inkscape:connector-curvature="0" />
  </g>
</svg>
