<?xml version="1.0" encoding="UTF-8" standalone="no"?>
<!-- Created with Inkscape (http://www.inkscape.org/) -->

<svg
   xmlns:osb="http://www.openswatchbook.org/uri/2009/osb"
   xmlns:dc="http://purl.org/dc/elements/1.1/"
   xmlns:cc="http://creativecommons.org/ns#"
   xmlns:rdf="http://www.w3.org/1999/02/22-rdf-syntax-ns#"
   xmlns:svg="http://www.w3.org/2000/svg"
   xmlns="http://www.w3.org/2000/svg"
   xmlns:xlink="http://www.w3.org/1999/xlink"
   xmlns:sodipodi="http://sodipodi.sourceforge.net/DTD/sodipodi-0.dtd"
   xmlns:inkscape="http://www.inkscape.org/namespaces/inkscape"
   width="65"
   height="48"
   id="svg2"
   version="1.1"
   inkscape:version="0.48.2 r9819"
   sodipodi:docname="o{s}d_simple.svg">
  <defs
     id="defs4">
    <linearGradient
       id="linearGradient4444"
       osb:paint="solid">
      <stop
         style="stop-color:#002fa7;stop-opacity:1;"
         offset="0"
         id="stop4446" />
    </linearGradient>
    <linearGradient
       inkscape:collect="always"
       xlink:href="#linearGradient4444"
       id="linearGradient4448"
       x1="1481.6096"
       y1="393.59521"
       x2="3401.6096"
       y2="393.59521"
       gradientUnits="userSpaceOnUse" />
    <linearGradient
       inkscape:collect="always"
       xlink:href="#linearGradient4444"
       id="linearGradient4452"
       gradientUnits="userSpaceOnUse"
       x1="1481.6096"
       y1="393.59521"
       x2="3401.6096"
       y2="393.59521"
       gradientTransform="translate(-1761.6116,2283.4524)" />
  </defs>
  <sodipodi:namedview
     id="base"
     pagecolor="#ffffff"
     bordercolor="#666666"
     borderopacity="1.0"
     inkscape:pageopacity="0.0"
     inkscape:pageshadow="2"
     inkscape:zoom="0.64"
     inkscape:cx="677.72028"
     inkscape:cy="379.22928"
     inkscape:document-units="px"
     inkscape:current-layer="layer10"
     showgrid="false"
     inkscape:window-width="1440"
     inkscape:window-height="852"
     inkscape:window-x="0"
     inkscape:window-y="0"
     inkscape:window-maximized="1" />
  <metadata
     id="metadata7">
    <rdf:RDF>
      <cc:Work
         rdf:about="">
        <dc:format>image/svg+xml</dc:format>
        <dc:type
           rdf:resource="http://purl.org/dc/dcmitype/StillImage" />
        <dc:title />
      </cc:Work>
    </rdf:RDF>
  </metadata>
  <g
     inkscape:groupmode="layer"
     id="layer10"
     inkscape:label="didascalie"
     style="display:inline"
     transform="translate(0,-1004.3622)" />
  <g
     inkscape:groupmode="layer"
     id="layer2"
     inkscape:label="margine"
     style="display:inline"
     transform="translate(0,-1004.3622)" />
  <g
     inkscape:groupmode="layer"
     id="layer3"
     inkscape:label="sfondo"
     style="display:inline"
     transform="translate(0,-1004.3622)" />
  <g
     inkscape:groupmode="layer"
     id="layer4"
     inkscape:label="open"
     sodipodi:insensitive="true"
     style="display:none"
     transform="translate(0,-1004.3622)" />
  <g
     inkscape:groupmode="layer"
     id="layer5"
     inkscape:label="sensors"
     sodipodi:insensitive="true"
     style="display:none"
     transform="translate(0,-1004.3622)" />
  <g
     inkscape:groupmode="layer"
     id="layer6"
     inkscape:label="data"
     sodipodi:insensitive="true"
     style="display:none"
     transform="translate(0,-1004.3622)" />
  <g
     inkscape:groupmode="layer"
     id="layer7"
     inkscape:label="graffe"
     sodipodi:insensitive="true"
     style="display:none"
     transform="translate(0,-1004.3622)">
    <path
       inkscape:connector-curvature="0"
       id="path3004"
       style="font-size:32px;font-style:normal;font-variant:normal;font-weight:normal;font-stretch:normal;text-align:start;line-height:125%;letter-spacing:0px;word-spacing:0px;writing-mode:lr-tb;text-anchor:start;fill:#000000;fill-opacity:1;stroke:none;font-family:Liberation Serif;-inkscape-font-specification:Liberation Serif"
       d="m 209.18304,686.28632 c -1.3125,-1e-5 -2.32292,-0.40105 -3.03125,-1.20313 -0.69792,-0.80208 -1.04688,-1.93229 -1.04687,-3.39062 l 0,-4.60938 c -1e-5,-1.21874 -0.27605,-2.1302 -0.82813,-2.73437 -0.54167,-0.61458 -1.38542,-0.9427 -2.53125,-0.98438 l 0,-0.70312 c 2.23958,-0.0417 3.35937,-1.27083 3.35938,-3.6875 l 0,-4.59375 c -1e-5,-1.46873 0.33853,-2.59894 1.01562,-3.39063 0.67708,-0.79164 1.69791,-1.18748 3.0625,-1.1875 l 2.10938,0 0,0.73438 -0.96875,0 c -0.94793,2e-5 -1.62501,0.28648 -2.03125,0.85937 -0.39584,0.56252 -0.59376,1.39585 -0.59375,2.5 l 0,5.15625 c -1e-5,0.9896 -0.27084,1.84376 -0.8125,2.5625 -0.54167,0.70834 -1.27084,1.16147 -2.1875,1.35938 l 0,0.0469 c 0.92708,0.21876 1.65624,0.6823 2.1875,1.39063 0.54166,0.69792 0.81249,1.55209 0.8125,2.5625 l 0,5.21875 c -1e-5,1.10416 0.19791,1.93749 0.59375,2.5 0.40624,0.57291 1.08332,0.85937 2.03125,0.85937 l 0.96875,0 0,0.73438 -2.10938,0" />
    <path
       inkscape:connector-curvature="0"
       id="path3006"
       style="font-size:32px;font-style:normal;font-variant:normal;font-weight:normal;font-stretch:normal;text-align:start;line-height:125%;letter-spacing:0px;word-spacing:0px;writing-mode:lr-tb;text-anchor:start;fill:#000000;fill-opacity:1;stroke:none;font-family:Liberation Serif;-inkscape-font-specification:Liberation Serif"
       d="m 217.12054,686.28632 0,-0.73438 0.96875,0 c 0.94792,0 1.61979,-0.28646 2.01563,-0.85937 0.40624,-0.56251 0.60937,-1.39584 0.60937,-2.5 l 0,-5.21875 c 0,-1.01041 0.26562,-1.86458 0.79688,-2.5625 0.53124,-0.70833 1.26562,-1.17187 2.20312,-1.39063 l 0,-0.0469 c -0.91667,-0.19791 -1.64584,-0.65624 -2.1875,-1.375 -0.54167,-0.71874 -0.8125,-1.5677 -0.8125,-2.54688 l 0,-5.15625 c 0,-1.10415 -0.20313,-1.93748 -0.60937,-2.5 -0.39584,-0.57289 -1.06771,-0.85935 -2.01563,-0.85937 l -0.96875,0 0,-0.73438 2.125,0 c 1.35416,2e-5 2.36979,0.39586 3.04688,1.1875 0.67707,0.79169 1.01562,1.9219 1.01562,3.39063 l 0,4.59375 c 0,2.41667 1.11979,3.64584 3.35938,3.6875 l 0,0.70312 c -1.12501,0.0417 -1.96876,0.36459 -2.53125,0.96875 -0.55209,0.60417 -0.82813,1.52084 -0.82813,2.75 l 0,4.60938 c 0,1.44791 -0.35417,2.57291 -1.0625,3.375 -0.69792,0.81249 -1.69792,1.21874 -3,1.21875 l -2.125,0" />
  </g>
  <g
     inkscape:label="scritta"
     inkscape:groupmode="layer"
     id="layer1"
     style="display:inline"
     transform="translate(0,-1004.3622)" />
  <g
     inkscape:groupmode="layer"
     id="layer9"
     inkscape:label="rettangoli"
     style="display:inline"
     transform="translate(0,-1004.3622)" />
  <g
     inkscape:groupmode="layer"
     id="layer8"
     inkscape:label="crocette"
     style="display:inline"
     transform="translate(0,-1004.3622)" />
  <g
     inkscape:groupmode="layer"
     id="layer11"
     inkscape:label="logo"
     style="display:inline"
     transform="translate(0,-1004.3622)">
    <path
       inkscape:connector-curvature="0"
       id="path4292"
       style="font-size:28px;font-style:normal;font-variant:normal;font-weight:bold;font-stretch:normal;text-align:start;line-height:125%;letter-spacing:0px;word-spacing:0px;writing-mode:lr-tb;text-anchor:start;fill:#1a1a1a;fill-opacity:1;stroke:none;display:inline;font-family:Open Sans;-inkscape-font-specification:Open Sans Bold"
       d="m 4.4035723,1028.2901 c -1.06e-5,1.5672 0.2548266,2.7518 0.7645492,3.5541 0.5191519,0.8023 1.3592744,1.2035 2.5203352,1.2035 1.151616,0 1.9775946,-0.3965 2.4779043,-1.1893 0.509732,-0.8025 0.764607,-1.9918 0.764612,-3.5683 -5e-6,-1.567 -0.25488,-2.7421 -0.764612,-3.5256 -0.509771,-0.7834 -1.3451577,-1.1752 -2.506187,-1.1752 -1.1516421,0 -1.9823033,0.3918 -2.4920525,1.1752 -0.5097226,0.7741 -0.7645598,1.9492 -0.7645492,3.5256 m 10.9450537,0 c -2.1e-5,2.577 -0.679637,4.5924 -2.038917,6.0461 -1.359344,1.4537 -3.251866,2.1805 -5.6778603,2.1805 -1.5197167,0 -2.8601751,-0.3303 -4.0212148,-0.9911 -1.1610558,-0.6703 -2.0530449,-1.6283 -2.67615943,-2.8744 C 0.3114986,1031.4053 0,1029.9515 0,1028.2901 c 0,-2.5862 0.67487453,-4.5968 2.0247515,-6.0318 1.3498824,-1.4347 3.2472473,-2.1522 5.6920092,-2.1522 1.5198133,0 2.8601383,0.3304 4.0213223,0.9912 1.161029,0.6608 2.053034,1.6094 2.676063,2.8461 0.62296,1.2365 0.934459,2.6854 0.93448,4.3467"
       inkscape:export-filename="/Users/lucacorsato/Documents/o{s}d/o{s}d_semplice.png"
       inkscape:export-xdpi="300"
       inkscape:export-ydpi="300" />
    <path
       d="m 37.980365,1031.9999 c -1.1e-5,1.4442 -0.537973,2.5582 -1.61409,3.3416 -1.076123,0.7836 -2.58641,1.1752 -4.530944,1.1752 -2.057887,0 -3.662532,-0.3256 -4.814153,-0.977 l 0,-2.1805 c 0.745664,0.3775 1.543322,0.6749 2.392853,0.8921 0.858997,0.217 1.684965,0.3255 2.477914,0.3255 1.227109,0 2.17112,-0.1934 2.831844,-0.5804 0.660731,-0.3965 0.991067,-0.9959 0.991078,-1.7982 -1.1e-5,-0.6041 -0.264304,-1.1187 -0.792822,-1.5435 -0.519178,-0.4341 -1.538692,-0.9438 -3.058426,-1.5291 -1.444228,-0.538 -2.473156,-1.0054 -3.086714,-1.4018 -0.604106,-0.4058 -1.057242,-0.8637 -1.359306,-1.3735 -0.292629,-0.5097 -0.438976,-1.1186 -0.438965,-1.8264 -1.1e-5,-1.265 0.514453,-2.2608 1.543413,-2.9876 1.028933,-0.7364 2.440122,-1.1044 4.233594,-1.1044 1.670789,0 3.303866,0.3397 4.899076,1.0194 l -0.835413,1.9115 c -1.557456,-0.6419 -2.968687,-0.9628 -4.233589,-0.9629 -1.113908,10e-5 -1.95401,0.1748 -2.520378,0.524 -0.566373,0.3492 -0.849546,0.8306 -0.849546,1.4442 0,0.4154 0.103904,0.7693 0.311493,1.0619 0.217125,0.2927 0.561659,0.5711 1.033648,0.8355 0.472011,0.2643 1.378197,0.6464 2.718629,1.1468 1.840655,0.6702 3.081983,1.3452 3.723866,2.0248 0.651284,0.6796 0.976927,1.5339 0.976938,2.5628"
       style="font-size:28px;font-style:normal;font-variant:normal;font-weight:normal;font-stretch:normal;text-align:start;line-height:125%;letter-spacing:0px;word-spacing:0px;writing-mode:lr-tb;text-anchor:start;fill:#4d4d4d;fill-opacity:1;stroke:none;display:inline;font-family:Open Sans;-inkscape-font-specification:Open Sans"
       id="path4294"
       inkscape:connector-curvature="0"
       inkscape:export-filename="/Users/lucacorsato/Documents/o{s}d/o{s}d_semplice.png"
       inkscape:export-xdpi="300"
       inkscape:export-ydpi="300" />
    <path
       d="m 55.686409,1036.5167 c -1.859626,0 -3.322719,-0.7222 -4.389412,-2.1664 -1.057248,-1.4442 -1.585808,-3.4454 -1.585808,-6.0035 0,-2.5959 0.537973,-4.6159 1.614122,-6.0601 1.085536,-1.4537 2.576954,-2.1806 4.474346,-2.1806 1.991706,0 3.51153,0.7741 4.559252,2.3221 l 0.141638,0 c -0.21712,-1.1799 -0.325643,-2.2325 -0.325622,-3.1574 l 0,-5.0691 4.332698,0 0,22.0318 -3.313295,0 -0.835419,-2.053 -0.183984,0 c -0.981781,1.5574 -2.477898,2.3362 -4.488516,2.3362 m 1.515013,-3.4407 c 1.104411,0 1.911503,-0.3209 2.421258,-0.9627 0.519104,-0.642 0.802283,-1.7323 0.849573,-3.271 l 0,-0.4672 c -1e-5,-1.699 -0.264309,-2.9167 -0.792965,-3.6531 -0.519173,-0.7362 -1.368725,-1.1045 -2.548623,-1.1045 -0.962912,0 -1.713296,0.4108 -2.251344,1.232 -0.528624,0.8118 -0.792933,1.9964 -0.792928,3.5539 -1e-5,1.5576 0.26904,2.728 0.807072,3.5115 0.538059,0.7741 1.307322,1.1611 2.307946,1.1611"
       style="font-size:28px;font-style:normal;font-variant:normal;font-weight:bold;font-stretch:normal;text-align:start;line-height:125%;letter-spacing:0px;word-spacing:0px;writing-mode:lr-tb;text-anchor:start;fill:#808080;fill-opacity:1;stroke:none;display:inline;font-family:Open Sans;-inkscape-font-specification:Open Sans Bold"
       id="path4296"
       inkscape:connector-curvature="0"
       inkscape:export-filename="/Users/lucacorsato/Documents/o{s}d/o{s}d_semplice.png"
       inkscape:export-xdpi="300"
       inkscape:export-ydpi="300" />
    <path
       inkscape:connector-curvature="0"
       id="path4298"
       style="font-size:56px;font-style:normal;font-variant:normal;font-weight:normal;font-stretch:normal;text-align:start;line-height:125%;letter-spacing:0px;word-spacing:0px;writing-mode:lr-tb;text-anchor:start;fill:#ea5480;fill-opacity:1;stroke:none;display:inline;font-family:Liberation Serif;-inkscape-font-specification:Liberation Serif"
       d="m 28.703663,1052.3622 c -2.37873,-10e-5 -4.210042,-0.7269 -5.493743,-2.1807 -1.264965,-1.4537 -1.897397,-3.502 -1.897386,-6.145 l 0,-8.354 c -1.1e-5,-2.2088 -0.500309,-3.8608 -1.500821,-4.9558 -0.981781,-1.1138 -2.510938,-1.7085 -4.5877,-1.784 l 0,-1.2743 c 4.05906,-0.076 6.08851,-2.3033 6.088521,-6.6832 l 0,-8.3257 c -1.1e-5,-2.6619 0.613552,-4.7102 1.840671,-6.1451 1.2272,-1.4347 3.077264,-2.1522 5.550458,-2.1522 l 3.823066,0 0,1.331 -1.75584,0 c -1.718021,0 -2.945108,0.5192 -3.681386,1.5575 -0.71737,1.0195 -1.076064,2.5298 -1.076053,4.531 l 0,9.345 c -1.1e-5,1.7936 -0.490901,3.3417 -1.472623,4.6444 -0.98167,1.2837 -2.303242,2.1048 -3.964613,2.4637 l 0,0.085 c 1.680251,0.3964 3.001813,1.2365 3.964613,2.5203 0.981722,1.2648 1.472612,2.8129 1.472623,4.6443 l 0,9.4583 c -1.1e-5,2.0012 0.358683,3.5115 1.076053,4.5311 0.736278,1.0382 1.963365,1.5574 3.681386,1.5574 l 1.75584,0 0,1.331 -3.823066,0"
       inkscape:export-filename="/Users/lucacorsato/Documents/o{s}d/o{s}d_semplice.png"
       inkscape:export-xdpi="300"
       inkscape:export-ydpi="300" />
    <path
       inkscape:connector-curvature="0"
       id="path4300"
       style="font-size:56px;font-style:normal;font-variant:normal;font-weight:normal;font-stretch:normal;text-align:start;line-height:125%;letter-spacing:0px;word-spacing:0px;writing-mode:lr-tb;text-anchor:start;fill:#002fa7;fill-opacity:1;stroke:none;display:inline;font-family:Liberation Serif;-inkscape-font-specification:Liberation Serif"
       d="m 32.430425,1052.3622 0,-1.3311 1.755712,0 c 1.717983,0 2.935642,-0.5192 3.653102,-1.5574 0.736224,-1.0196 1.104443,-2.5299 1.104454,-4.5311 l 0,-9.4583 c -1.1e-5,-1.8313 0.481312,-3.3794 1.444224,-4.6443 0.962783,-1.2838 2.293759,-2.1239 3.992894,-2.5203 l 0,-0.085 c -1.661364,-0.3587 -2.982954,-1.1895 -3.964585,-2.492 -0.981776,-1.3027 -1.472544,-2.8413 -1.472533,-4.6161 l 0,-9.345 c -1.1e-5,-2.0012 -0.36823,-3.5115 -1.104454,-4.531 -0.71746,-1.0383 -1.935119,-1.5575 -3.653102,-1.5575 l -1.755712,0 0,-1.331 3.851263,0 c 2.454277,10e-5 4.29506,0.7176 5.522164,2.1523 1.227067,1.4348 1.840607,3.4832 1.840629,6.145 l 0,8.3257 c -2.2e-5,4.3799 2.029589,6.6076 6.088532,6.6832 l 0,1.2743 c -2.038928,0.076 -3.56818,0.6607 -4.587551,1.7557 -1.000661,1.0951 -1.501003,2.7564 -1.500981,4.9841 l 0,8.354 c -2.2e-5,2.6242 -0.641866,4.6632 -1.925568,6.1168 -1.264948,1.4725 -3.077284,2.2089 -5.437225,2.2089 l -3.851263,0"
       inkscape:export-filename="/Users/lucacorsato/Documents/o{s}d/o{s}d_semplice.png"
       inkscape:export-xdpi="300"
       inkscape:export-ydpi="300" />
  </g>
</svg>
