<?xml version="1.0" encoding="UTF-8" standalone="no"?>
<!-- Created with Inkscape (http://www.inkscape.org/) -->

<svg
   xmlns:osb="http://www.openswatchbook.org/uri/2009/osb"
   xmlns:dc="http://purl.org/dc/elements/1.1/"
   xmlns:cc="http://creativecommons.org/ns#"
   xmlns:rdf="http://www.w3.org/1999/02/22-rdf-syntax-ns#"
   xmlns:svg="http://www.w3.org/2000/svg"
   xmlns="http://www.w3.org/2000/svg"
   xmlns:xlink="http://www.w3.org/1999/xlink"
   xmlns:sodipodi="http://sodipodi.sourceforge.net/DTD/sodipodi-0.dtd"
   xmlns:inkscape="http://www.inkscape.org/namespaces/inkscape"
   width="97"
   height="72"
   id="svg2"
   version="1.1"
   inkscape:version="0.48.2 r9819"
   sodipodi:docname="o{s}d_simple.svg">
  <defs
     id="defs4">
    <linearGradient
       id="linearGradient4444"
       osb:paint="solid">
      <stop
         style="stop-color:#002fa7;stop-opacity:1;"
         offset="0"
         id="stop4446" />
    </linearGradient>
    <linearGradient
       inkscape:collect="always"
       xlink:href="#linearGradient4444"
       id="linearGradient4448"
       x1="1481.6096"
       y1="393.59521"
       x2="3401.6096"
       y2="393.59521"
       gradientUnits="userSpaceOnUse" />
    <linearGradient
       inkscape:collect="always"
       xlink:href="#linearGradient4444"
       id="linearGradient4452"
       gradientUnits="userSpaceOnUse"
       x1="1481.6096"
       y1="393.59521"
       x2="3401.6096"
       y2="393.59521"
       gradientTransform="translate(-1761.6116,2283.4524)" />
  </defs>
  <sodipodi:namedview
     id="base"
     pagecolor="#ffffff"
     bordercolor="#666666"
     borderopacity="1.0"
     inkscape:pageopacity="0.0"
     inkscape:pageshadow="2"
     inkscape:zoom="0.64"
     inkscape:cx="677.72028"
     inkscape:cy="379.22928"
     inkscape:document-units="px"
     inkscape:current-layer="layer10"
     showgrid="false"
     inkscape:window-width="1440"
     inkscape:window-height="852"
     inkscape:window-x="0"
     inkscape:window-y="0"
     inkscape:window-maximized="1" />
  <metadata
     id="metadata7">
    <rdf:RDF>
      <cc:Work
         rdf:about="">
        <dc:format>image/svg+xml</dc:format>
        <dc:type
           rdf:resource="http://purl.org/dc/dcmitype/StillImage" />
        <dc:title />
      </cc:Work>
    </rdf:RDF>
  </metadata>
  <g
     inkscape:groupmode="layer"
     id="layer10"
     inkscape:label="didascalie"
     style="display:inline"
     transform="translate(0,-980.36218)" />
  <g
     inkscape:groupmode="layer"
     id="layer2"
     inkscape:label="margine"
     style="display:inline"
     transform="translate(0,-980.36218)" />
  <g
     inkscape:groupmode="layer"
     id="layer3"
     inkscape:label="sfondo"
     style="display:inline"
     transform="translate(0,-980.36218)" />
  <g
     inkscape:groupmode="layer"
     id="layer4"
     inkscape:label="open"
     sodipodi:insensitive="true"
     style="display:none"
     transform="translate(0,-980.36218)" />
  <g
     inkscape:groupmode="layer"
     id="layer5"
     inkscape:label="sensors"
     sodipodi:insensitive="true"
     style="display:none"
     transform="translate(0,-980.36218)" />
  <g
     inkscape:groupmode="layer"
     id="layer6"
     inkscape:label="data"
     sodipodi:insensitive="true"
     style="display:none"
     transform="translate(0,-980.36218)" />
  <g
     inkscape:groupmode="layer"
     id="layer7"
     inkscape:label="graffe"
     sodipodi:insensitive="true"
     style="display:none"
     transform="translate(0,-980.36218)">
    <path
       inkscape:connector-curvature="0"
       id="path3004"
       style="font-size:32px;font-style:normal;font-variant:normal;font-weight:normal;font-stretch:normal;text-align:start;line-height:125%;letter-spacing:0px;word-spacing:0px;writing-mode:lr-tb;text-anchor:start;fill:#000000;fill-opacity:1;stroke:none;font-family:Liberation Serif;-inkscape-font-specification:Liberation Serif"
       d="m 209.18304,686.28632 c -1.3125,-1e-5 -2.32292,-0.40105 -3.03125,-1.20313 -0.69792,-0.80208 -1.04688,-1.93229 -1.04687,-3.39062 l 0,-4.60938 c -1e-5,-1.21874 -0.27605,-2.1302 -0.82813,-2.73437 -0.54167,-0.61458 -1.38542,-0.9427 -2.53125,-0.98438 l 0,-0.70312 c 2.23958,-0.0417 3.35937,-1.27083 3.35938,-3.6875 l 0,-4.59375 c -1e-5,-1.46873 0.33853,-2.59894 1.01562,-3.39063 0.67708,-0.79164 1.69791,-1.18748 3.0625,-1.1875 l 2.10938,0 0,0.73438 -0.96875,0 c -0.94793,2e-5 -1.62501,0.28648 -2.03125,0.85937 -0.39584,0.56252 -0.59376,1.39585 -0.59375,2.5 l 0,5.15625 c -1e-5,0.9896 -0.27084,1.84376 -0.8125,2.5625 -0.54167,0.70834 -1.27084,1.16147 -2.1875,1.35938 l 0,0.0469 c 0.92708,0.21876 1.65624,0.6823 2.1875,1.39063 0.54166,0.69792 0.81249,1.55209 0.8125,2.5625 l 0,5.21875 c -1e-5,1.10416 0.19791,1.93749 0.59375,2.5 0.40624,0.57291 1.08332,0.85937 2.03125,0.85937 l 0.96875,0 0,0.73438 -2.10938,0" />
    <path
       inkscape:connector-curvature="0"
       id="path3006"
       style="font-size:32px;font-style:normal;font-variant:normal;font-weight:normal;font-stretch:normal;text-align:start;line-height:125%;letter-spacing:0px;word-spacing:0px;writing-mode:lr-tb;text-anchor:start;fill:#000000;fill-opacity:1;stroke:none;font-family:Liberation Serif;-inkscape-font-specification:Liberation Serif"
       d="m 217.12054,686.28632 0,-0.73438 0.96875,0 c 0.94792,0 1.61979,-0.28646 2.01563,-0.85937 0.40624,-0.56251 0.60937,-1.39584 0.60937,-2.5 l 0,-5.21875 c 0,-1.01041 0.26562,-1.86458 0.79688,-2.5625 0.53124,-0.70833 1.26562,-1.17187 2.20312,-1.39063 l 0,-0.0469 c -0.91667,-0.19791 -1.64584,-0.65624 -2.1875,-1.375 -0.54167,-0.71874 -0.8125,-1.5677 -0.8125,-2.54688 l 0,-5.15625 c 0,-1.10415 -0.20313,-1.93748 -0.60937,-2.5 -0.39584,-0.57289 -1.06771,-0.85935 -2.01563,-0.85937 l -0.96875,0 0,-0.73438 2.125,0 c 1.35416,2e-5 2.36979,0.39586 3.04688,1.1875 0.67707,0.79169 1.01562,1.9219 1.01562,3.39063 l 0,4.59375 c 0,2.41667 1.11979,3.64584 3.35938,3.6875 l 0,0.70312 c -1.12501,0.0417 -1.96876,0.36459 -2.53125,0.96875 -0.55209,0.60417 -0.82813,1.52084 -0.82813,2.75 l 0,4.60938 c 0,1.44791 -0.35417,2.57291 -1.0625,3.375 -0.69792,0.81249 -1.69792,1.21874 -3,1.21875 l -2.125,0" />
  </g>
  <g
     inkscape:label="scritta"
     inkscape:groupmode="layer"
     id="layer1"
     style="display:inline"
     transform="translate(0,-980.36218)" />
  <g
     inkscape:groupmode="layer"
     id="layer9"
     inkscape:label="rettangoli"
     style="display:inline"
     transform="translate(0,-980.36218)" />
  <g
     inkscape:groupmode="layer"
     id="layer8"
     inkscape:label="crocette"
     style="display:inline"
     transform="translate(0,-980.36218)" />
  <g
     inkscape:groupmode="layer"
     id="layer11"
     inkscape:label="logo"
     style="display:inline"
     transform="translate(0,-980.36218)">
    <path
       inkscape:connector-curvature="0"
       id="path4292"
       style="font-size:28px;font-style:normal;font-variant:normal;font-weight:bold;font-stretch:normal;text-align:start;line-height:125%;letter-spacing:0px;word-spacing:0px;writing-mode:lr-tb;text-anchor:start;fill:#1a1a1a;fill-opacity:1;stroke:none;display:inline;font-family:Open Sans;-inkscape-font-specification:Open Sans Bold"
       d="m 6.6053585,1016.2541 c -1.6e-5,2.3507 0.3822399,4.1276 1.1468238,5.3311 0.7787278,1.2034 2.0389115,1.8052 3.7805027,1.8052 1.727424,0 2.966392,-0.5947 3.716856,-1.7839 0.764599,-1.2037 1.146911,-2.9877 1.146919,-5.3524 -8e-6,-2.3505 -0.38232,-4.1132 -1.146919,-5.2884 -0.764656,-1.1751 -2.017736,-1.7629 -3.75928,-1.7629 -1.7274632,0 -2.9734549,0.5878 -3.7380787,1.7629 -0.7645839,1.1611 -1.1468398,2.9238 -1.1468238,5.2884 m 16.4175805,0 c -3.2e-5,3.8655 -1.019456,6.8885 -3.058375,9.0691 -2.039016,2.1806 -4.877799,3.2707 -8.516791,3.2707 -2.279575,0 -4.2902626,-0.4954 -6.0318222,-1.4866 -1.7415836,-1.0055 -3.0795673,-2.4425 -4.0142391,-4.3116 C 0.4672479,1020.9268 0,1018.7462 0,1016.2541 c 0,-3.8794 1.0123118,-6.8953 3.0371273,-9.0477 2.0248236,-2.1521 4.8708709,-3.2283 8.5380137,-3.2283 2.27972,0 4.290207,0.4955 6.031983,1.4867 1.741544,0.9913 3.079551,2.4142 4.014095,4.2692 0.93444,1.8548 1.401688,4.0281 1.40172,6.5201"
       inkscape:export-filename="/Users/lucacorsato/Documents/o{s}d/o{s}d_semplice.png"
       inkscape:export-xdpi="300"
       inkscape:export-ydpi="300" />
    <path
       d="m 56.970547,1021.8188 c -1.6e-5,2.1663 -0.806959,3.8372 -2.421135,5.0124 -1.614184,1.1754 -3.879615,1.7627 -6.796415,1.7627 -3.086831,0 -5.493798,-0.4883 -7.22123,-1.4654 l 0,-3.2708 c 1.118496,0.5663 2.314983,1.0124 3.589279,1.3381 1.288496,0.3255 2.527448,0.4883 3.716871,0.4883 1.840664,0 3.25668,-0.2901 4.247767,-0.8706 0.991096,-0.5947 1.4866,-1.4939 1.486616,-2.6973 -1.6e-5,-0.9062 -0.396456,-1.678 -1.189232,-2.3153 -0.778767,-0.6511 -2.308039,-1.4157 -4.587639,-2.2936 -2.166343,-0.807 -3.709735,-1.5081 -4.630071,-2.1027 -0.906159,-0.6087 -1.585863,-1.2955 -2.038959,-2.0602 -0.438944,-0.7646 -0.658464,-1.6779 -0.658448,-2.7397 -1.6e-5,-1.8974 0.77168,-3.3911 2.315119,-4.4814 1.5434,-1.1046 3.660184,-1.6566 6.350391,-1.6566 2.506184,0 4.955799,0.5096 7.348614,1.5291 l -1.253119,2.8673 c -2.336184,-0.9628 -4.453031,-1.4442 -6.350383,-1.4444 -1.670863,2e-4 -2.931015,0.2622 -3.780567,0.786 -0.84956,0.5239 -1.27432,1.246 -1.27432,2.1663 0,0.6231 0.155856,1.154 0.46724,1.5929 0.325688,0.439 0.842488,0.8567 1.550472,1.2533 0.708016,0.3964 2.067295,0.9696 4.077943,1.7202 2.760983,1.0052 4.622975,2.0177 5.585799,3.0372 0.976927,1.0193 1.465391,2.3008 1.465407,3.8442"
       style="font-size:28px;font-style:normal;font-variant:normal;font-weight:normal;font-stretch:normal;text-align:start;line-height:125%;letter-spacing:0px;word-spacing:0px;writing-mode:lr-tb;text-anchor:start;fill:#4d4d4d;fill-opacity:1;stroke:none;display:inline;font-family:Open Sans;-inkscape-font-specification:Open Sans"
       id="path4294"
       inkscape:connector-curvature="0"
       inkscape:export-filename="/Users/lucacorsato/Documents/o{s}d/o{s}d_semplice.png"
       inkscape:export-xdpi="300"
       inkscape:export-ydpi="300" />
    <path
       d="m 83.529613,1028.5939 c -2.789439,0 -4.984078,-1.0832 -6.584118,-3.2495 -1.585872,-2.1664 -2.378712,-5.1681 -2.378712,-9.0053 0,-3.8938 0.80696,-6.9238 2.421184,-9.0901 1.628304,-2.1806 3.865431,-3.2709 6.711518,-3.2709 2.98756,0 5.267295,1.1611 6.838879,3.4831 l 0.212456,0 c -0.32568,-1.7698 -0.488464,-3.3487 -0.488432,-4.7361 l 0,-7.60366 6.499046,0 0,33.04776 -4.969942,0 -1.253128,-3.0796 -0.275976,0 c -1.472672,2.3362 -3.716847,3.5043 -6.732775,3.5043 m 2.27252,-5.161 c 1.656616,0 2.867255,-0.4814 3.631887,-1.4441 0.778656,-0.9629 1.203424,-2.5984 1.27436,-4.9064 l 0,-0.7008 c -1.6e-5,-2.5486 -0.396464,-4.3751 -1.189448,-5.4797 -0.77876,-1.1043 -2.053087,-1.6567 -3.822935,-1.6567 -1.444368,0 -2.569943,0.6161 -3.377015,1.848 -0.792936,1.2176 -1.1894,2.9946 -1.189392,5.3308 -1.6e-5,2.3364 0.40356,4.092 1.210608,5.2673 0.807088,1.1611 1.960983,1.7416 3.461919,1.7416"
       style="font-size:28px;font-style:normal;font-variant:normal;font-weight:bold;font-stretch:normal;text-align:start;line-height:125%;letter-spacing:0px;word-spacing:0px;writing-mode:lr-tb;text-anchor:start;fill:#808080;fill-opacity:1;stroke:none;display:inline;font-family:Open Sans;-inkscape-font-specification:Open Sans Bold"
       id="path4296"
       inkscape:connector-curvature="0"
       inkscape:export-filename="/Users/lucacorsato/Documents/o{s}d/o{s}d_semplice.png"
       inkscape:export-xdpi="300"
       inkscape:export-ydpi="300" />
    <path
       inkscape:connector-curvature="0"
       id="path4298"
       style="font-size:56px;font-style:normal;font-variant:normal;font-weight:normal;font-stretch:normal;text-align:start;line-height:125%;letter-spacing:0px;word-spacing:0px;writing-mode:lr-tb;text-anchor:start;fill:#ea5480;fill-opacity:1;stroke:none;display:inline;font-family:Liberation Serif;-inkscape-font-specification:Liberation Serif"
       d="m 43.055494,1052.3622 c -3.568095,-2e-4 -6.315062,-1.0904 -8.240614,-3.271 -1.897447,-2.1806 -2.846095,-5.253 -2.846079,-9.2176 l 0,-12.5309 c -1.6e-5,-3.3132 -0.750464,-5.7913 -2.251232,-7.4338 -1.472671,-1.6707 -3.766407,-2.5627 -6.88155,-2.676 l 0,-1.9114 c 6.088591,-0.1135 9.132766,-3.4549 9.132782,-10.0248 l 0,-12.48859 c -1.6e-5,-3.99285 0.920328,-7.06526 2.761007,-9.21759 1.8408,-2.15214 4.615895,-3.22832 8.325686,-3.22832 l 5.734599,0 0,1.99657 -2.633759,0 c -2.577032,0 -4.417663,0.77877 -5.522079,2.33616 -1.076056,1.52931 -1.614096,3.79468 -1.61408,6.79647 l 0,14.0176 c -1.6e-5,2.6904 -0.736352,5.0125 -2.208935,6.9665 -1.472504,1.9256 -3.454863,3.1573 -5.946919,3.6956 l 0,0.1273 c 2.520376,0.5946 4.502719,1.8548 5.946919,3.7805 1.472583,1.8972 2.208919,4.2194 2.208935,6.9664 l 0,14.1875 c -1.6e-5,3.0018 0.538024,5.2672 1.61408,6.7966 1.104416,1.5573 2.945047,2.3361 5.522079,2.3361 l 2.633759,0 0,1.9965 -5.734599,0"
       inkscape:export-filename="/Users/lucacorsato/Documents/o{s}d/o{s}d_semplice.png"
       inkscape:export-xdpi="300"
       inkscape:export-ydpi="300" />
    <path
       inkscape:connector-curvature="0"
       id="path4300"
       style="font-size:56px;font-style:normal;font-variant:normal;font-weight:normal;font-stretch:normal;text-align:start;line-height:125%;letter-spacing:0px;word-spacing:0px;writing-mode:lr-tb;text-anchor:start;fill:#002fa7;fill-opacity:1;stroke:none;display:inline;font-family:Liberation Serif;-inkscape-font-specification:Liberation Serif"
       d="m 48.645637,1052.3622 0,-1.9967 2.633568,0 c 2.576975,0 4.403463,-0.7788 5.479654,-2.3361 1.104336,-1.5294 1.656664,-3.7948 1.65668,-6.7966 l 0,-14.1875 c -1.6e-5,-2.7469 0.721968,-5.069 2.166336,-6.9664 1.444175,-1.9257 3.440639,-3.1859 5.989342,-3.7805 l 0,-0.1273 c -2.492047,-0.5381 -4.474431,-1.7842 -5.946878,-3.738 -1.472664,-1.9541 -2.208816,-4.262 -2.2088,-6.9241 l 0,-14.0176 c -1.6e-5,-3.00179 -0.552344,-5.26716 -1.65668,-6.79647 -1.076191,-1.55739 -2.902679,-2.33616 -5.479654,-2.33616 l -2.633568,0 0,-1.99657 5.776895,0 c 3.681415,1.7e-4 6.44259,1.07634 8.283246,3.22848 1.8406,2.15217 2.760911,5.22473 2.760943,9.21743 l 0,12.48859 c -3.2e-5,6.5699 3.044384,9.9114 9.132798,10.0248 l 0,1.9114 c -3.058391,0.1135 -5.35227,0.9911 -6.881326,2.6336 -1.500992,1.6426 -2.251504,4.1346 -2.251472,7.4762 l 0,12.5309 c -3.2e-5,3.9364 -0.962799,6.9948 -2.888351,9.1752 -1.897423,2.2088 -4.615927,3.3134 -8.155838,3.3134 l -5.776895,0"
       inkscape:export-filename="/Users/lucacorsato/Documents/o{s}d/o{s}d_semplice.png"
       inkscape:export-xdpi="300"
       inkscape:export-ydpi="300" />
  </g>
</svg>
