<?xml version="1.0" encoding="UTF-8" standalone="no"?>
<!-- Created with Inkscape (http://www.inkscape.org/) -->

<svg
   xmlns:osb="http://www.openswatchbook.org/uri/2009/osb"
   xmlns:dc="http://purl.org/dc/elements/1.1/"
   xmlns:cc="http://creativecommons.org/ns#"
   xmlns:rdf="http://www.w3.org/1999/02/22-rdf-syntax-ns#"
   xmlns:svg="http://www.w3.org/2000/svg"
   xmlns="http://www.w3.org/2000/svg"
   xmlns:xlink="http://www.w3.org/1999/xlink"
   xmlns:sodipodi="http://sodipodi.sourceforge.net/DTD/sodipodi-0.dtd"
   xmlns:inkscape="http://www.inkscape.org/namespaces/inkscape"
   width="52"
   height="52"
   id="svg2"
   version="1.1"
   inkscape:version="0.48.2 r9819"
   sodipodi:docname="o{s}d_logo.svg">
  <defs
     id="defs4">
    <linearGradient
       id="linearGradient4444"
       osb:paint="solid">
      <stop
         style="stop-color:#002fa7;stop-opacity:1;"
         offset="0"
         id="stop4446" />
    </linearGradient>
    <linearGradient
       inkscape:collect="always"
       xlink:href="#linearGradient4444"
       id="linearGradient4448"
       x1="1481.6096"
       y1="393.59521"
       x2="3401.6096"
       y2="393.59521"
       gradientUnits="userSpaceOnUse" />
    <linearGradient
       inkscape:collect="always"
       xlink:href="#linearGradient4444"
       id="linearGradient4452"
       gradientUnits="userSpaceOnUse"
       x1="1481.6096"
       y1="393.59521"
       x2="3401.6096"
       y2="393.59521"
       gradientTransform="translate(-1761.6116,2283.4524)" />
  </defs>
  <sodipodi:namedview
     id="base"
     pagecolor="#ffffff"
     bordercolor="#666666"
     borderopacity="1.0"
     inkscape:pageopacity="0.0"
     inkscape:pageshadow="2"
     inkscape:zoom="3.6203867"
     inkscape:cx="12.742026"
     inkscape:cy="50.938558"
     inkscape:document-units="px"
     inkscape:current-layer="layer10"
     showgrid="false"
     inkscape:window-width="1440"
     inkscape:window-height="852"
     inkscape:window-x="0"
     inkscape:window-y="0"
     inkscape:window-maximized="1" />
  <metadata
     id="metadata7">
    <rdf:RDF>
      <cc:Work
         rdf:about="">
        <dc:format>image/svg+xml</dc:format>
        <dc:type
           rdf:resource="http://purl.org/dc/dcmitype/StillImage" />
        <dc:title />
      </cc:Work>
    </rdf:RDF>
  </metadata>
  <g
     inkscape:groupmode="layer"
     id="layer10"
     inkscape:label="didascalie"
     style="display:inline"
     transform="translate(0,-1000.3622)" />
  <g
     inkscape:groupmode="layer"
     id="layer2"
     inkscape:label="margine"
     style="display:inline"
     transform="translate(0,-1000.3622)" />
  <g
     inkscape:groupmode="layer"
     id="layer3"
     inkscape:label="sfondo"
     style="display:inline"
     transform="translate(0,-1000.3622)" />
  <g
     inkscape:groupmode="layer"
     id="layer4"
     inkscape:label="open"
     sodipodi:insensitive="true"
     style="display:none"
     transform="translate(0,-1000.3622)" />
  <g
     inkscape:groupmode="layer"
     id="layer5"
     inkscape:label="sensors"
     sodipodi:insensitive="true"
     style="display:none"
     transform="translate(0,-1000.3622)" />
  <g
     inkscape:groupmode="layer"
     id="layer6"
     inkscape:label="data"
     sodipodi:insensitive="true"
     style="display:none"
     transform="translate(0,-1000.3622)" />
  <g
     inkscape:groupmode="layer"
     id="layer7"
     inkscape:label="graffe"
     sodipodi:insensitive="true"
     style="display:none"
     transform="translate(0,-1000.3622)">
    <path
       inkscape:connector-curvature="0"
       id="path3004"
       style="font-size:32px;font-style:normal;font-variant:normal;font-weight:normal;font-stretch:normal;text-align:start;line-height:125%;letter-spacing:0px;word-spacing:0px;writing-mode:lr-tb;text-anchor:start;fill:#000000;fill-opacity:1;stroke:none;font-family:Liberation Serif;-inkscape-font-specification:Liberation Serif"
       d="m 209.18304,686.28632 c -1.3125,-1e-5 -2.32292,-0.40105 -3.03125,-1.20313 -0.69792,-0.80208 -1.04688,-1.93229 -1.04687,-3.39062 l 0,-4.60938 c -1e-5,-1.21874 -0.27605,-2.1302 -0.82813,-2.73437 -0.54167,-0.61458 -1.38542,-0.9427 -2.53125,-0.98438 l 0,-0.70312 c 2.23958,-0.0417 3.35937,-1.27083 3.35938,-3.6875 l 0,-4.59375 c -1e-5,-1.46873 0.33853,-2.59894 1.01562,-3.39063 0.67708,-0.79164 1.69791,-1.18748 3.0625,-1.1875 l 2.10938,0 0,0.73438 -0.96875,0 c -0.94793,2e-5 -1.62501,0.28648 -2.03125,0.85937 -0.39584,0.56252 -0.59376,1.39585 -0.59375,2.5 l 0,5.15625 c -1e-5,0.9896 -0.27084,1.84376 -0.8125,2.5625 -0.54167,0.70834 -1.27084,1.16147 -2.1875,1.35938 l 0,0.0469 c 0.92708,0.21876 1.65624,0.6823 2.1875,1.39063 0.54166,0.69792 0.81249,1.55209 0.8125,2.5625 l 0,5.21875 c -1e-5,1.10416 0.19791,1.93749 0.59375,2.5 0.40624,0.57291 1.08332,0.85937 2.03125,0.85937 l 0.96875,0 0,0.73438 -2.10938,0" />
    <path
       inkscape:connector-curvature="0"
       id="path3006"
       style="font-size:32px;font-style:normal;font-variant:normal;font-weight:normal;font-stretch:normal;text-align:start;line-height:125%;letter-spacing:0px;word-spacing:0px;writing-mode:lr-tb;text-anchor:start;fill:#000000;fill-opacity:1;stroke:none;font-family:Liberation Serif;-inkscape-font-specification:Liberation Serif"
       d="m 217.12054,686.28632 0,-0.73438 0.96875,0 c 0.94792,0 1.61979,-0.28646 2.01563,-0.85937 0.40624,-0.56251 0.60937,-1.39584 0.60937,-2.5 l 0,-5.21875 c 0,-1.01041 0.26562,-1.86458 0.79688,-2.5625 0.53124,-0.70833 1.26562,-1.17187 2.20312,-1.39063 l 0,-0.0469 c -0.91667,-0.19791 -1.64584,-0.65624 -2.1875,-1.375 -0.54167,-0.71874 -0.8125,-1.5677 -0.8125,-2.54688 l 0,-5.15625 c 0,-1.10415 -0.20313,-1.93748 -0.60937,-2.5 -0.39584,-0.57289 -1.06771,-0.85935 -2.01563,-0.85937 l -0.96875,0 0,-0.73438 2.125,0 c 1.35416,2e-5 2.36979,0.39586 3.04688,1.1875 0.67707,0.79169 1.01562,1.9219 1.01562,3.39063 l 0,4.59375 c 0,2.41667 1.11979,3.64584 3.35938,3.6875 l 0,0.70312 c -1.12501,0.0417 -1.96876,0.36459 -2.53125,0.96875 -0.55209,0.60417 -0.82813,1.52084 -0.82813,2.75 l 0,4.60938 c 0,1.44791 -0.35417,2.57291 -1.0625,3.375 -0.69792,0.81249 -1.69792,1.21874 -3,1.21875 l -2.125,0" />
  </g>
  <g
     inkscape:label="scritta"
     inkscape:groupmode="layer"
     id="layer1"
     style="display:inline"
     transform="translate(0,-1000.3622)" />
  <g
     inkscape:groupmode="layer"
     id="layer9"
     inkscape:label="rettangoli"
     style="display:inline"
     transform="translate(0,-1000.3622)">
    <rect
       inkscape:export-ydpi="300"
       inkscape:export-xdpi="300"
       inkscape:export-filename="/Users/lucacorsato/Documents/o{s}d.png"
       ry="0"
       y="1002.476"
       x="38.324303"
       height="47.75161"
       width="10.771656"
       id="rect4214"
       style="fill:#f9f9f9;fill-opacity:1;stroke:none;display:inline" />
    <rect
       inkscape:export-ydpi="300"
       inkscape:export-xdpi="300"
       inkscape:export-filename="/Users/lucacorsato/Documents/o{s}d.png"
       style="fill:#f2f2f2;fill-opacity:1;stroke:none;display:inline"
       id="rect4216"
       width="12.59632"
       height="39.213169"
       x="25.743818"
       y="1006.7451"
       ry="0" />
    <rect
       inkscape:export-ydpi="300"
       inkscape:export-xdpi="300"
       inkscape:export-filename="/Users/lucacorsato/Documents/o{s}d.png"
       ry="0"
       y="1004.6104"
       x="13.217486"
       height="43.48238"
       width="12.59632"
       id="rect4218"
       style="fill:#ececec;fill-opacity:1;stroke:none;display:inline" />
    <rect
       inkscape:export-ydpi="300"
       inkscape:export-xdpi="300"
       inkscape:export-filename="/Users/lucacorsato/Documents/o{s}d.png"
       style="fill:#e6e6e6;fill-opacity:1;stroke:none;display:inline"
       id="rect4220"
       width="11.173819"
       height="47.75161"
       x="2.1345799"
       y="1002.476"
       ry="0" />
  </g>
  <g
     inkscape:groupmode="layer"
     id="layer8"
     inkscape:label="crocette"
     style="display:inline"
     transform="translate(0,-1000.3622)">
    <path
       inkscape:export-ydpi="300"
       inkscape:export-xdpi="300"
       inkscape:export-filename="/Users/lucacorsato/Documents/o{s}d.png"
       inkscape:connector-curvature="0"
       id="path4222"
       d="m 49.096374,1000.5753 0,3.8441"
       style="fill:none;stroke:#002fa7;stroke-width:0.42611992;stroke-linecap:round;stroke-linejoin:miter;stroke-miterlimit:4;stroke-opacity:1;stroke-dasharray:none" />
    <path
       inkscape:export-ydpi="300"
       inkscape:export-xdpi="300"
       inkscape:export-filename="/Users/lucacorsato/Documents/o{s}d.png"
       style="fill:none;stroke:#002fa7;stroke-width:0.42611992;stroke-linecap:round;stroke-linejoin:miter;stroke-miterlimit:4;stroke-opacity:1;stroke-dasharray:none"
       d="m 47.174438,1002.4974 3.843893,0"
       id="path4224"
       inkscape:connector-curvature="0" />
    <path
       inkscape:export-ydpi="300"
       inkscape:export-xdpi="300"
       inkscape:export-filename="/Users/lucacorsato/Documents/o{s}d.png"
       transform="matrix(0.3574453,0,0,0.3574453,-4.0214384,731.28717)"
       d="m 151.08883,758.74713 c 0,1.37294 -1.11299,2.48592 -2.48592,2.48592 -1.37294,0 -2.48593,-1.11298 -2.48593,-2.48592 0,-1.37294 1.11299,-2.48592 2.48593,-2.48592 1.37293,0 2.48592,1.11298 2.48592,2.48592 z"
       sodipodi:ry="2.4859223"
       sodipodi:rx="2.4859223"
       sodipodi:cy="758.74713"
       sodipodi:cx="148.60291"
       id="path4226"
       style="fill:none;stroke:#002fa7;stroke-width:1;stroke-linecap:round;stroke-linejoin:round;stroke-miterlimit:4;stroke-opacity:1;stroke-dasharray:none;stroke-dashoffset:16.33108387"
       sodipodi:type="arc" />
    <path
       inkscape:export-ydpi="300"
       inkscape:export-xdpi="300"
       inkscape:export-filename="/Users/lucacorsato/Documents/o{s}d.png"
       style="fill:none;stroke:#ea5480;stroke-width:0.42611992;stroke-linecap:round;stroke-linejoin:miter;stroke-miterlimit:4;stroke-opacity:1;stroke-dasharray:none"
       d="m 2.1350172,1000.5753 0,3.8441"
       id="path4228"
       inkscape:connector-curvature="0" />
    <path
       inkscape:export-ydpi="300"
       inkscape:export-xdpi="300"
       inkscape:export-filename="/Users/lucacorsato/Documents/o{s}d.png"
       inkscape:connector-curvature="0"
       id="path4230"
       d="m 0.21305997,1002.4974 3.84389293,0"
       style="fill:none;stroke:#ea5480;stroke-width:0.42611992;stroke-linecap:round;stroke-linejoin:miter;stroke-miterlimit:4;stroke-opacity:1;stroke-dasharray:none" />
    <path
       inkscape:export-ydpi="300"
       inkscape:export-xdpi="300"
       inkscape:export-filename="/Users/lucacorsato/Documents/o{s}d.png"
       sodipodi:type="arc"
       style="fill:none;stroke:#ea5480;stroke-width:1;stroke-linecap:round;stroke-linejoin:round;stroke-miterlimit:4;stroke-opacity:1;stroke-dasharray:none;stroke-dashoffset:16.33108387"
       id="path4232"
       sodipodi:cx="148.60291"
       sodipodi:cy="758.74713"
       sodipodi:rx="2.4859223"
       sodipodi:ry="2.4859223"
       d="m 151.08883,758.74713 c 0,1.37294 -1.11299,2.48592 -2.48592,2.48592 -1.37294,0 -2.48593,-1.11298 -2.48593,-2.48592 0,-1.37294 1.11299,-2.48592 2.48593,-2.48592 1.37293,0 2.48592,1.11298 2.48592,2.48592 z"
       transform="matrix(0.3574453,0,0,0.3574453,-50.982793,731.28717)" />
    <path
       inkscape:export-ydpi="300"
       inkscape:export-xdpi="300"
       inkscape:export-filename="/Users/lucacorsato/Documents/o{s}d.png"
       style="fill:none;stroke:#002fa7;stroke-width:0.42611992;stroke-linecap:round;stroke-linejoin:miter;stroke-miterlimit:4;stroke-opacity:1;stroke-dasharray:none"
       d="m 49.096374,1048.3053 0,3.8438"
       id="path4234"
       inkscape:connector-curvature="0" />
    <path
       inkscape:export-ydpi="300"
       inkscape:export-xdpi="300"
       inkscape:export-filename="/Users/lucacorsato/Documents/o{s}d.png"
       inkscape:connector-curvature="0"
       id="path4236"
       d="m 47.174438,1050.2272 3.843893,0"
       style="fill:none;stroke:#002fa7;stroke-width:0.42611992;stroke-linecap:round;stroke-linejoin:miter;stroke-miterlimit:4;stroke-opacity:1;stroke-dasharray:none" />
    <path
       inkscape:export-ydpi="300"
       inkscape:export-xdpi="300"
       inkscape:export-filename="/Users/lucacorsato/Documents/o{s}d.png"
       sodipodi:type="arc"
       style="fill:none;stroke:#002fa7;stroke-width:1;stroke-linecap:round;stroke-linejoin:round;stroke-miterlimit:4;stroke-opacity:1;stroke-dasharray:none;stroke-dashoffset:16.33108387"
       id="path4238"
       sodipodi:cx="148.60291"
       sodipodi:cy="758.74713"
       sodipodi:rx="2.4859223"
       sodipodi:ry="2.4859223"
       d="m 151.08883,758.74713 c 0,1.37294 -1.11299,2.48592 -2.48592,2.48592 -1.37294,0 -2.48593,-1.11298 -2.48593,-2.48592 0,-1.37294 1.11299,-2.48592 2.48593,-2.48592 1.37293,0 2.48592,1.11298 2.48592,2.48592 z"
       transform="matrix(0.3574453,0,0,0.3574453,-4.0214384,779.01699)" />
    <path
       inkscape:export-ydpi="300"
       inkscape:export-xdpi="300"
       inkscape:export-filename="/Users/lucacorsato/Documents/o{s}d.png"
       inkscape:connector-curvature="0"
       id="path4240"
       d="m 2.1350172,1048.3053 0,3.8438"
       style="fill:none;stroke:#ea5480;stroke-width:0.42611992;stroke-linecap:round;stroke-linejoin:miter;stroke-miterlimit:4;stroke-opacity:1;stroke-dasharray:none" />
    <path
       inkscape:export-ydpi="300"
       inkscape:export-xdpi="300"
       inkscape:export-filename="/Users/lucacorsato/Documents/o{s}d.png"
       style="fill:none;stroke:#ea5480;stroke-width:0.42611992;stroke-linecap:round;stroke-linejoin:miter;stroke-miterlimit:4;stroke-opacity:1;stroke-dasharray:none"
       d="m 0.21305997,1050.2272 3.84389293,0"
       id="path4242"
       inkscape:connector-curvature="0" />
    <path
       inkscape:export-ydpi="300"
       inkscape:export-xdpi="300"
       inkscape:export-filename="/Users/lucacorsato/Documents/o{s}d.png"
       transform="matrix(0.3574453,0,0,0.3574453,-50.982793,779.01699)"
       d="m 151.08883,758.74713 c 0,1.37294 -1.11299,2.48592 -2.48592,2.48592 -1.37294,0 -2.48593,-1.11298 -2.48593,-2.48592 0,-1.37294 1.11299,-2.48592 2.48593,-2.48592 1.37293,0 2.48592,1.11298 2.48592,2.48592 z"
       sodipodi:ry="2.4859223"
       sodipodi:rx="2.4859223"
       sodipodi:cy="758.74713"
       sodipodi:cx="148.60291"
       id="path4244"
       style="fill:none;stroke:#ea5480;stroke-width:1;stroke-linecap:round;stroke-linejoin:round;stroke-miterlimit:4;stroke-opacity:1;stroke-dasharray:none;stroke-dashoffset:16.33108387"
       sodipodi:type="arc" />
  </g>
  <g
     inkscape:groupmode="layer"
     id="layer11"
     inkscape:label="logo"
     style="display:inline"
     transform="translate(0,-1000.3622)">
    <path
       inkscape:export-ydpi="300"
       inkscape:export-xdpi="300"
       inkscape:export-filename="/Users/lucacorsato/Documents/o{s}d.png"
       d="m 5.340374,1026.2994 c 0,1.1408 0.185466,2.0033 0.5566148,2.5873 0.3779521,0.5841 0.9895569,0.8762 1.8348142,0.8762 0.8383674,0 1.4396806,-0.2886 1.803896,-0.8658 0.3710623,-0.5842 0.556615,-1.45 0.556615,-2.5977 0,-1.1407 -0.1854661,-1.9964 -0.556615,-2.5667 -0.3711054,-0.5702 -0.9792653,-0.8555 -1.8245009,-0.8555 -0.838389,0 -1.4431255,0.2853 -1.8142093,0.8555 -0.3710838,0.5637 -0.5566148,1.4191 -0.5566148,2.5667 m 7.968022,0 c -2.2e-5,1.8762 -0.494801,3.3431 -1.484336,4.4016 -0.989578,1.0582 -2.3674007,1.5873 -4.1334885,1.5873 -1.1063832,0 -2.0822035,-0.2405 -2.9274392,-0.7215 -0.8452572,-0.4879 -1.4946486,-1.1854 -1.9481954,-2.0925 -0.453547,-0.907 -0.6803313,-1.9655 -0.6803313,-3.1749 0,-1.8829 0.4913551,-3.3467 1.4740437,-4.3911 0.9826669,-1.0447 2.3639343,-1.5668 4.1437587,-1.5668 1.1063831,0 2.0822034,0.2405 2.927461,0.7215 0.845235,0.481 1.494627,1.1717 1.948195,2.072 0.453547,0.9001 0.68031,1.9549 0.680332,3.1644"
       style="font-size:28px;font-style:normal;font-variant:normal;font-weight:bold;font-stretch:normal;text-align:start;line-height:125%;letter-spacing:0px;word-spacing:0px;writing-mode:lr-tb;text-anchor:start;fill:#1a1a1a;fill-opacity:1;stroke:none;display:inline;font-family:Open Sans;-inkscape-font-specification:Open Sans Bold"
       id="path4246"
       inkscape:connector-curvature="0" />
    <path
       inkscape:export-ydpi="300"
       inkscape:export-xdpi="300"
       inkscape:export-filename="/Users/lucacorsato/Documents/o{s}d.png"
       inkscape:connector-curvature="0"
       id="path4248"
       style="font-size:28px;font-style:normal;font-variant:normal;font-weight:normal;font-stretch:normal;text-align:start;line-height:125%;letter-spacing:0px;word-spacing:0px;writing-mode:lr-tb;text-anchor:start;fill:#4d4d4d;fill-opacity:1;stroke:none;display:inline;font-family:Open Sans;-inkscape-font-specification:Open Sans"
       d="m 29.784241,1029.0002 c 0,1.0513 -0.39171,1.8622 -1.175088,2.4324 -0.783399,0.5706 -1.882914,0.8557 -3.298544,0.8557 -1.498073,0 -2.666314,-0.237 -3.504681,-0.7114 l 0,-1.5873 c 0.542878,0.2751 1.123565,0.4914 1.742038,0.6495 0.625341,0.1581 1.226632,0.237 1.803896,0.237 0.893335,0 1.580535,-0.1416 2.061577,-0.4225 0.48102,-0.2886 0.72154,-0.725 0.72154,-1.3091 0,-0.4398 -0.1924,-0.8145 -0.577241,-1.1236 -0.377952,-0.3162 -1.120119,-0.6873 -2.226503,-1.1133 -1.051415,-0.3917 -1.80045,-0.7319 -2.24713,-1.0205 -0.43981,-0.2955 -0.769641,-0.6287 -0.989556,-1 -0.212983,-0.3709 -0.31954,-0.8142 -0.31954,-1.3296 0,-0.9208 0.374507,-1.6458 1.123566,-2.1749 0.749035,-0.536 1.7764,-0.8041 3.082052,-0.8041 1.21634,0 2.405187,0.2474 3.566538,0.7422 l -0.60816,1.3915 c -1.133877,-0.4672 -2.161243,-0.7008 -3.082073,-0.7008 -0.810895,0 -1.422477,0.1271 -1.834792,0.3813 -0.412338,0.2544 -0.618495,0.6047 -0.618495,1.0514 0,0.3024 0.07562,0.5602 0.226783,0.7731 0.15795,0.2123 0.408872,0.4159 0.752482,0.6083 0.343588,0.1928 1.003294,0.4706 1.979114,0.8347 1.340035,0.4879 2.243684,0.9793 2.710989,1.4742 0.474152,0.4947 0.711228,1.1167 0.711228,1.8658" />
    <path
       inkscape:export-ydpi="300"
       inkscape:export-xdpi="300"
       inkscape:export-filename="/Users/lucacorsato/Documents/o{s}d.png"
       inkscape:connector-curvature="0"
       id="path4250"
       style="font-size:28px;font-style:normal;font-variant:normal;font-weight:bold;font-stretch:normal;text-align:start;line-height:125%;letter-spacing:0px;word-spacing:0px;writing-mode:lr-tb;text-anchor:start;fill:#808080;fill-opacity:1;stroke:none;display:inline;font-family:Open Sans;-inkscape-font-specification:Open Sans Bold"
       d="m 42.674155,1032.2883 c -1.353772,0 -2.418924,-0.5256 -3.195454,-1.5772 -0.769664,-1.0512 -1.154484,-2.5081 -1.154484,-4.3706 0,-1.8897 0.391689,-3.3602 1.175089,-4.4117 0.790289,-1.0582 1.876045,-1.5873 3.257313,-1.5873 1.449972,0 2.556355,0.5633 3.319149,1.6904 l 0.103133,0 c -0.15795,-0.859 -0.237098,-1.6251 -0.237076,-2.2985 l 0,-3.6903 3.154224,0 0,16.0391 -2.412056,0 -0.60816,-1.4947 -0.1339,0 c -0.714694,1.134 -1.803896,1.7008 -3.267604,1.7008 m 1.102938,-2.5049 c 0.804025,0 1.391559,-0.2336 1.762642,-0.7007 0.377974,-0.4673 0.584132,-1.2612 0.618474,-2.3813 l 0,-0.3401 c 0,-1.2368 -0.1924,-2.1234 -0.577242,-2.6595 -0.377952,-0.536 -0.996425,-0.8041 -1.855397,-0.8041 -0.700959,0 -1.247281,0.299 -1.638971,0.8969 -0.384841,0.591 -0.57724,1.4534 -0.57724,2.5874 0,1.1337 0.195865,1.986 0.587554,2.5562 0.39169,0.5635 0.951748,0.8452 1.68018,0.8452" />
    <path
       inkscape:export-ydpi="300"
       inkscape:export-xdpi="300"
       inkscape:export-filename="/Users/lucacorsato/Documents/o{s}d.png"
       d="m 23.030806,1043.8238 c -1.731725,0 -3.064894,-0.5291 -3.999461,-1.5874 -0.920852,-1.0585 -1.381267,-2.5496 -1.381267,-4.4738 l 0,-6.0817 c 0,-1.6078 -0.364215,-2.8106 -1.092647,-3.6076 -0.714672,-0.8111 -1.827924,-1.244 -3.339754,-1.2987 l 0,-0.9278 c 2.954934,-0.053 4.432401,-1.6768 4.432401,-4.8654 l 0,-6.0611 c 0,-1.9378 0.446679,-3.4289 1.340036,-4.4737 0.893336,-1.0445 2.24024,-1.5666 4.040692,-1.5666 l 2.783139,0 0,0.9689 -1.278178,0 c -1.250704,0 -2.144061,0.378 -2.680049,1.1337 -0.522296,0.7423 -0.783422,1.842 -0.7834,3.2986 l 0,6.8033 c -2.2e-5,1.3056 -0.357369,2.4327 -1.072042,3.381 -0.714672,0.9346 -1.676756,1.5323 -2.886208,1.7936 l 0,0.062 c 1.22321,0.2886 2.185272,0.9003 2.886208,1.8347 0.714673,0.9208 1.07202,2.0478 1.072042,3.3812 l 0,6.8856 c -2.2e-5,1.4569 0.261104,2.5564 0.7834,3.2986 0.535988,0.7558 1.429345,1.1337 2.680049,1.1337 l 1.278178,0 0,0.9689 -2.783139,0"
       style="font-size:56px;font-style:normal;font-variant:normal;font-weight:normal;font-stretch:normal;text-align:start;line-height:125%;letter-spacing:0px;word-spacing:0px;writing-mode:lr-tb;text-anchor:start;fill:#333333;fill-opacity:1;stroke:none;display:inline;font-family:Liberation Serif;-inkscape-font-specification:Liberation Serif"
       id="path4252"
       inkscape:connector-curvature="0" />
    <path
       inkscape:export-ydpi="300"
       inkscape:export-xdpi="300"
       inkscape:export-filename="/Users/lucacorsato/Documents/o{s}d.png"
       d="m 25.743854,1043.8238 0,-0.9689 1.278177,0 c 1.250683,0 2.137172,-0.378 2.659445,-1.1341 0.536011,-0.742 0.804004,-1.8416 0.804004,-3.2985 l 0,-6.8857 c 0,-1.333 0.35048,-2.46 1.051415,-3.381 0.700937,-0.9345 1.669867,-1.5461 2.906835,-1.8347 l 0,-0.062 c -1.209473,-0.2612 -2.171535,-0.8658 -2.88623,-1.8142 -0.714693,-0.9483 -1.07202,-2.0685 -1.07202,-3.3605 l 0,-6.8031 c 0,-1.4569 -0.267993,-2.5564 -0.804004,-3.2985 -0.522273,-0.7559 -1.408762,-1.1338 -2.659445,-1.1338 l -1.278177,0 0,-0.9692 2.803744,0 c 1.786694,3e-4 3.126729,0.5225 4.020086,1.567 0.893357,1.0446 1.340014,2.5358 1.340035,4.4735 l 0,6.0612 c -2.1e-5,3.1885 1.477446,4.8102 4.432402,4.8652 l 0,0.9278 c -1.484357,0.055 -2.597609,0.481 -3.339755,1.2781 -0.728453,0.7971 -1.092668,2.0065 -1.092647,3.6283 l 0,6.0819 c -2.1e-5,1.9103 -0.467305,3.3947 -1.401893,4.4529 -0.920831,1.0721 -2.240239,1.608 -3.958228,1.608 l -2.803744,0"
       style="font-size:56px;font-style:normal;font-variant:normal;font-weight:normal;font-stretch:normal;text-align:start;line-height:125%;letter-spacing:0px;word-spacing:0px;writing-mode:lr-tb;text-anchor:start;fill:#666666;fill-opacity:1;stroke:none;display:inline;font-family:Liberation Serif;-inkscape-font-specification:Liberation Serif"
       id="path4254"
       inkscape:connector-curvature="0" />
  </g>
</svg>
